<svg width="605" height="487" viewBox="0 0 605 487" fill="none" xmlns="http://www.w3.org/2000/svg">
<path fill-rule="evenodd" clip-rule="evenodd" d="M348.217 486.779C420.646 486.779 484.206 432.902 448.511 359.724C412.815 286.546 545.447 288.909 584.408 238.333C631.922 176.653 618.162 -85.1669 313.141 74.4516C264.281 100.021 138.796 48.1471 97.1717 73.8857C48.1762 104.183 -20.7576 166.221 48.1762 229.771C82.1317 261.074 -39.6067 342.323 13.7123 415.101C65.7383 486.114 102.208 418.418 181.416 432.902C260.625 447.386 294.425 486.779 348.217 486.779Z" fill="#B2DF4B"/>
<path d="M264.15 359.47C264.15 359.47 280.826 351.625 287.053 346.167C293.279 340.71 301.019 327.15 301.019 327.15C301.019 327.15 386.042 388.553 441.48 379.794C454.253 377.776 479.142 369.286 480.729 354.326C485.063 313.478 425.099 303.039 438.198 282.324C446.193 269.679 471.03 288.498 471.03 288.498L574.048 339.17C574.048 339.17 538.458 426.9 452.09 430.416C345.846 434.741 264.15 359.47 264.15 359.47Z" fill="white"/>
<path fill-rule="evenodd" clip-rule="evenodd" d="M182.473 15.8998C181.506 15.5202 176.313 9.16208 169.721 8.00488C166.726 7.47902 169.445 11.2935 166.148 11.3278C156.329 11.43 140.372 9.58528 137.416 11.3278C135.219 12.6187 140.057 17.1286 137.416 17.3356C112.494 19.289 74.4744 44.1724 66.2257 56.2445C63.6005 60.0864 84.832 53.5681 81.4492 55.4674C77.6524 57.5992 73.4416 71.5577 70.9239 82.3384C69.1809 89.7623 68.0835 99.3164 67.6962 109.71C67.3734 118.683 67.5025 120.168 68.7936 125.074C70.2784 130.561 71.4404 132.175 73.4416 131.4C74.1517 131.142 74.4744 130.174 74.4744 128.366C74.4744 126.946 75.2491 122.685 76.2174 118.877L77.8959 112.034L78.606 114.874C79.5097 118.167 84.8033 128.366 89.5803 135.79C89.838 136.184 90.9465 135.683 91.9461 133.267C92.8569 131.065 92.4873 127.548 94.0347 123.778C97.5594 115.191 104.48 104.027 112.494 95.0904C124.338 81.8827 128.267 66.5974 139.37 54.3275C160.089 31.4294 186.093 17.3208 182.473 15.8998Z" fill="white"/>
<path fill-rule="evenodd" clip-rule="evenodd" d="M81.7437 58.583C78.4201 61.2556 73.4865 82.9339 73.4019 83.2963C71.6589 90.7201 69.9788 116.5 71.6962 121.381C73.4136 126.262 78.2225 108.668 78.2225 108.668C78.2225 108.668 85.4912 127.542 91.9138 132.717C92.1882 132.938 84.2797 109.365 81.7437 95.6041C78.396 77.4385 83.6352 57.062 81.7437 58.583Z" fill="#E7EAEE"/>
<path fill-rule="evenodd" clip-rule="evenodd" d="M205.624 438.246C211.821 436.89 222.278 432.17 226.282 430.555C230.285 428.941 242.485 411.714 246.875 392.283C250.038 377.952 251.652 357.552 249.844 354.131C249.577 353.645 248.601 344.369 251.2 347.398C256.978 354.131 263.837 364.701 285.478 345.76C291.372 340.602 299.185 333.944 297.128 328.058C291.372 311.59 266.423 278.43 262.62 275.918C258.072 272.915 235.087 275.467 200.88 265.371C162.086 253.921 145.933 220.204 130.752 224.593C118.475 228.142 89.0599 249.955 81.6777 263.768C46.8263 328.979 89.0599 374.673 98.678 387.798L108.017 391.831L108.339 400.159L108.791 405.388C109.631 415.394 109.953 416.297 114.472 419.654C125.769 428.24 148.041 436.245 168.182 439.085C177.543 440.376 197.877 439.925 205.624 438.246Z" fill="white"/>
<path fill-rule="evenodd" clip-rule="evenodd" d="M111.689 397.11L112.141 402.339C112.981 412.345 113.303 413.249 117.822 416.606C124.487 421.671 134.971 426.534 146.583 430.253C154.655 432.839 163.273 434.872 171.532 436.037C180.893 437.328 201.227 436.876 208.974 435.198C212.803 434.368 181.307 409.624 162.752 416.606C148.503 421.968 114.919 381.068 128.574 370.383C143.892 358.397 115.823 311.12 114.919 300.857C114.015 290.593 110.456 288.141 110.352 288.501C110.248 288.861 110.248 290.089 110.527 293.047C111.732 305.801 111.689 397.11 111.689 397.11Z" fill="#E7EAEE"/>
<path fill-rule="evenodd" clip-rule="evenodd" d="M108.327 297.927C109.682 297.663 110.994 298.548 111.258 299.903C116.13 324.934 136.739 341.88 173.59 350.741C210.661 359.655 235.911 359.174 249.216 349.659C250.339 348.856 249.502 355.734 248.679 356.262C240.002 361.827 210.499 370.13 175.291 362.625C130.274 353.03 109.137 315.177 106.35 300.858C106.086 299.503 106.971 298.19 108.327 297.927Z" fill="#AD2CFC"/>
<path fill-rule="evenodd" clip-rule="evenodd" d="M89.554 252.765C90.7524 252.079 135.464 303.323 196.824 314.922C258.183 326.521 273.04 319.144 275.428 303.323C275.634 301.958 276.908 301.018 278.273 301.224C279.638 301.43 280.578 302.704 280.372 304.069C277.345 324.12 248.953 328.89 195.983 319.851C143.678 310.925 107.818 289.719 88.6257 256.177C87.94 254.978 88.3556 253.451 89.554 252.765Z" fill="#AD2CFC"/>
<path fill-rule="evenodd" clip-rule="evenodd" d="M347.091 249.924C345.412 249.343 343.605 248.051 342.443 246.567L340.506 244.178L347.349 237.4C357.871 227.071 365.941 216.484 372.913 203.896C375.237 199.7 381.111 185.691 381.111 184.336C381.111 183.884 381.821 182.076 382.661 180.204C383.952 177.493 384.92 176.46 387.696 174.91C390.988 172.974 394.732 172.328 396.346 173.426C399.445 175.491 399.445 182.012 396.346 193.244C392.925 205.574 388.341 214.418 378.852 227.136C377.367 229.072 374.591 232.881 372.59 235.528C367.232 242.629 363.746 246.05 359.033 248.697C354.385 251.279 351.674 251.602 347.091 249.924ZM393.441 244.114L398.089 246.179C399.053 246.624 409.685 251.733 422.457 257.87C443.048 267.763 469.199 280.329 469.358 280.329C469.616 280.329 470.828 277.528 471.101 274.261C471.747 267.224 474.135 257.67 476.911 251.021C478.202 248.051 479.235 244.34 479.235 244.017C479.235 243.87 478.186 243.447 476.467 242.754C474.422 241.929 471.429 240.722 468.132 239.143C451.864 231.332 420.038 215.387 416.1 212.998C412.227 210.739 411.452 210.545 411.452 212.03C411.452 213.966 407.514 222.939 404.48 227.781C402.866 230.428 399.703 235.205 397.444 238.368L393.441 244.114ZM468.261 268.709C470.112 269.782 466.905 271.356 466.13 271.614C461.569 272.001 456.199 271.144 451.799 268.58C449.499 266.949 431.384 256.885 419.368 250.209C413.875 247.157 409.656 244.814 408.805 244.307C406.094 242.693 403.512 240.95 403.06 240.434C401.704 238.691 402.996 237.916 406.804 238.239C409.094 238.433 464.262 266.392 468.261 268.709ZM205.844 437.714C210.824 436.625 218.554 433.363 223.476 431.285C224.68 430.778 225.715 430.341 226.502 430.023C230.505 428.409 242.705 411.182 247.095 391.751C250.258 377.42 251.872 357.02 250.064 353.599C248.975 351.618 255.449 358.265 260.271 363.215C261.733 364.716 263.043 366.061 263.944 366.962C292.09 394.914 333.986 417.38 377.496 427.902C399.187 433.196 414.615 435.068 435.338 435.068C470.133 435.068 497.569 428.225 522.487 413.183C523.671 412.469 524.78 411.812 525.837 411.186C534.523 406.044 539.698 402.98 553.861 387.039C569.747 369.157 583.879 327.648 588.591 313.317C590.657 306.861 595.693 281.185 595.693 274.777C595.693 267.191 593.046 263.609 589.431 259.93C583.04 253.668 574.389 251.408 567.224 254.12L563.867 255.411L562.834 251.989C561.349 246.825 558.251 242.693 553.473 239.595C546.372 234.882 545.34 234.559 538.949 234.559C533.978 234.559 532.622 234.818 529.459 236.302L525.779 237.981L525.005 235.657C523.52 230.88 518.54 224.22 514.676 222.294C511.249 220.585 505.317 220.429 501.184 221.197C492.146 222.875 485.691 227.071 483.044 232.946C482.269 234.753 481.301 236.173 480.914 236.173C480.591 236.173 467.873 232.622 452.703 225.908C450.144 224.772 447.74 223.706 445.483 222.706C418.241 210.631 412.336 208.014 412.872 204.735C413.324 201.959 413.195 200.41 412.421 198.021C411.065 194.019 409.516 192.921 405.126 192.921C401.64 192.921 401.64 192.921 402.027 191.178C404.093 181.301 404.028 175.621 401.833 172.005C400.349 169.617 398.606 168.649 394.603 168.068C392.279 167.745 391.182 167.939 388.6 169.359C386.857 170.262 385.372 170.908 385.243 170.779C385.114 170.65 385.566 167.099 386.276 162.903C391.569 131.852 387.48 105.099 373.988 76.6944C373.858 76.4226 373.709 76.1012 373.537 75.7334C369.436 66.9275 352.943 31.5186 305.775 13.6518C303.641 12.8431 301.621 12.0612 299.679 11.3097L299.679 11.3096C283.612 5.09045 272.931 0.956053 247.159 0.998957C218.274 1.04705 208.491 5.13049 189.447 13.8454C186.8 15.072 184.476 15.7821 184.283 15.5239C184.089 15.2011 182.863 14.4264 181.636 13.7809C180.409 13.1353 177.763 11.5214 175.826 10.2303C170.274 6.48614 166.853 4.93682 165.11 5.32415C163.109 5.84059 163.109 7.51903 165.11 8.29369C165.949 8.61646 166.917 9.7139 167.305 10.8113C168.144 13.1353 169.112 13.3935 169.693 11.4569C169.951 10.7468 170.339 10.2303 170.532 10.3595C170.606 10.3962 170.852 10.5112 171.227 10.6868L171.227 10.6869C172.171 11.1286 173.932 11.9533 175.826 12.8771C178.473 14.1682 181.378 15.5239 182.152 15.8466C183.573 16.3631 183.121 16.7504 176.988 20.3655C153.038 34.4385 133.542 56.3227 122.633 81.241C120.954 84.9852 119.469 87.3092 117.92 88.6003C113.982 91.8926 106.236 101.253 104.428 104.933C103.46 106.934 101.394 110.033 99.7801 111.84C98.2307 113.648 96.5523 115.972 95.9713 116.94C95.4549 117.973 94.9384 118.683 94.7448 118.554C94.6157 118.36 94.8093 115.197 95.2612 111.517C96.2295 102.932 96.2295 100.672 95.4549 100.478C94.2929 100.156 92.6145 104.674 91.9043 110.291C91.3879 113.712 91.2588 118.877 91.5816 124.17L91.9689 132.562L87.3855 125.138C85.8094 122.656 84.2574 120.174 83.1551 118.411L83.1547 118.41L83.1543 118.41L83.1537 118.409L83.1515 118.405L83.1504 118.403L83.1498 118.402L83.1494 118.402L83.1488 118.401L83.147 118.398C82.4474 117.279 81.9301 116.452 81.7046 116.101C80.0262 113.648 79.0579 109.968 79.768 108.741C80.1553 108.031 80.0908 107.709 79.4452 107.709C78.0895 107.709 75.4428 112.034 73.6998 117.005C72.8606 119.329 72.0214 121.265 71.7631 121.265C70.7948 121.265 71.2467 98.1544 72.2796 90.7306C74.4099 76.0766 80.0262 58.0011 82.5438 58.0011C83.0603 58.0011 83.5122 57.7429 83.5122 57.3556C83.5122 56.1936 81.8337 56.6455 80.4781 58.1302C77.444 61.4226 73.4416 71.5577 70.9239 82.3384C69.1809 89.7623 68.0835 99.3164 67.6962 109.71C67.3734 118.683 67.5025 120.168 68.7936 125.074C70.2784 130.561 71.4404 132.175 73.4416 131.4C74.1517 131.142 74.4745 130.174 74.4745 128.366C74.4745 126.946 75.2491 122.685 76.2174 118.877L77.8959 112.034L78.606 114.874C79.5098 118.167 84.8033 128.366 89.5804 135.79C92.8727 140.825 92.9372 141.148 94.0347 149.024C94.6157 153.478 96.4232 164.313 100.619 180.979C104.327 195.704 125.169 210.312 130.373 213.959L130.374 213.96L130.377 213.962C131.061 214.441 131.474 214.73 131.541 214.806C132.187 215.516 133.091 215.903 133.607 215.709C134.188 215.516 134.511 215.774 134.511 216.484C134.511 217.13 134.963 217.969 135.479 218.356C136.125 218.808 136.576 220.551 136.706 223.585C137.028 229.653 141.547 241.273 145.033 245.082C147.293 247.535 152.005 248.568 157.234 247.664C160.656 247.148 161.624 246.76 161.301 245.986C161.107 245.469 162.334 246.115 164.012 247.406C183.637 262.383 203.52 271.356 225.856 275.229C234.507 276.714 248.838 277.553 256.649 276.972C263.556 276.52 263.556 276.52 263.234 277.876C262.782 279.683 263.363 280.781 272.852 296.855C280.405 309.572 281.051 310.412 289.443 318.997C307.26 337.396 326.691 351.662 348.705 362.701C369.427 373.03 402.511 381.616 432.755 384.327C463 387.039 484.722 359.28 484.658 352.179C484.529 342.431 483.173 336.04 479.881 329.843C476.653 323.839 474.523 321.773 464.839 315.318C454.059 308.152 447.409 302.278 443.02 296.016C440.244 292.078 439.211 287.624 439.211 285.235C439.211 283.686 441.212 280.2 444.182 279.49C446.893 278.78 447.409 278.844 450.444 280.329C452.251 281.168 456.964 283.363 460.837 285.235C464.775 287.043 468.583 288.85 469.358 289.238C471.642 289.872 472.608 294.343 473.131 296.765C473.248 297.307 473.343 297.746 473.425 298.017C474.329 301.374 478.606 305.708 481.365 307.184C486.211 309.775 498.151 310.122 501.443 306.571C502.283 305.667 505.065 304.556 505.638 304.893C506.211 305.229 508.285 308.023 508.285 310.283C508.349 314.156 510.351 317.706 514.611 321.257C522.681 327.971 528.943 329.585 535.269 326.615C538.561 325.066 541.26 324.46 541.26 324.46C541.26 324.46 543.951 327.894 544.113 329.068C545.381 338.24 558.96 342.085 562.575 342.473C563.404 342.555 565.016 342.201 566.654 341.841C568.844 341.36 571.079 340.868 571.549 341.398C572.471 342.438 556.12 369.48 553.861 372.901C532.364 405.179 490.532 424.932 439.34 426.998C406.094 428.354 365.231 419.058 329.79 402.145C307.131 391.235 287.054 377.872 265.558 359.151C261.813 355.923 257.488 352.243 255.939 350.952C254.39 349.726 250.71 345.53 247.87 341.656C243.092 335.201 240.381 332.877 240.381 335.072C240.381 336.04 243.48 341.979 247.03 347.854C248.451 350.178 249.354 351.792 249.032 351.533C248.709 351.275 247.676 355.923 246.708 361.862C243.544 380.906 238.315 399.691 233.022 411.376C230.117 417.702 224.547 422.427 222.868 423.718C216.671 428.43 207.393 430.549 194.547 431.84C178.279 433.454 154.329 429.839 136.06 422.996C131.218 421.188 118.759 415.959 117.92 415.378C117.87 415.328 117.584 413.471 117.184 410.879C117.072 410.148 116.95 409.359 116.823 408.535C114.499 392.59 111.271 331.198 111.271 302.794C111.271 291.045 111.142 288.463 110.367 288.463C108.753 288.463 108.108 290.012 107.398 295.564C105.784 308.217 106.106 374.257 107.849 388.136L108.237 391.299L106.042 390.073C102.685 388.136 89.9031 375.16 85.4488 369.157C81.6779 364.024 79.4367 357.451 77.7599 352.533C77.3699 351.389 77.0104 350.335 76.6693 349.409C67.3088 323.458 70.6012 294.337 83.5122 268.128C94.4865 245.792 107.979 233.397 127.732 227.394C130.96 226.425 133.801 225.393 134.123 225.134C135.35 223.972 127.474 224.553 123.149 225.909C109.076 230.234 94.3574 242.048 84.3514 257.154C70.2784 278.328 63.952 309.572 68.4063 336.234C69.4392 342.56 73.6352 356.246 74.7972 357.214C74.9001 357.317 75.4311 358.431 76.2341 360.115C78.4544 364.773 82.7546 373.795 85.8362 377.872C89.5804 382.972 100.878 394.075 105.59 397.497L108.56 399.627L109.011 404.856C109.851 414.862 110.173 415.766 114.692 419.122C125.989 427.708 148.261 435.713 168.402 438.554C177.763 439.845 198.098 439.393 205.844 437.714ZM424.04 377.097C386.534 373.805 341.216 355.922 308.422 328.292C294.607 316.608 276.661 293.886 269.56 281.297C268.075 278.715 266.978 277.489 265.687 277.166C264.331 276.778 265.493 276.391 271.045 275.487C294.478 271.485 317.266 261.737 335.664 247.858L338.376 245.857L339.15 247.729C340.893 251.925 347.607 256.185 352.578 256.185C354.579 256.185 361.293 253.151 365.36 250.375L368.136 248.503L370.395 250.763C372.461 252.829 372.848 252.958 376.722 252.958C381.176 252.958 386.534 250.956 389.503 248.116L391.117 246.631L395.701 249.665C398.154 251.408 404.997 255.217 410.871 258.251C419.651 262.77 428.947 267.999 437.791 273.422L439.211 274.325L437.855 276.133C436.435 278.07 433.789 281.749 433.789 287.366C433.789 293.692 440.368 305.058 452.961 312.865C462.855 318.997 479.881 331.061 479.235 348.693C479.157 350.823 476.782 356.117 473.619 360.894C471.553 363.928 465.808 368.447 460.579 371.094C451.67 375.548 435.983 378.13 424.04 377.097ZM79.8325 87.3092C81.5755 87.6965 82.7375 88.2775 82.4793 88.5357C81.6401 89.3749 77.1858 88.9876 76.1529 87.9547C74.539 86.4054 74.9263 85.308 77.1858 84.8561C78.3478 84.6624 80.0908 83.6941 81.0591 82.7257C82.0274 81.7574 82.8666 81.3055 82.8666 81.6283C82.8666 82.4675 79.6389 85.4371 78.025 86.0826C76.9921 86.5345 77.3149 86.7282 79.8325 87.3092ZM105.525 88.342C107.398 87.3092 107.01 86.5991 104.815 86.9218C102.62 87.2446 102.491 86.9864 103.912 84.7915C104.493 83.9523 104.815 82.7257 104.686 82.0802C104.493 81.241 104.041 81.6283 103.008 83.6941C102.233 85.1788 101.136 86.4054 100.619 86.4054C99.0054 86.4054 98.8763 87.6965 100.426 88.2775C102.427 89.1167 103.976 89.1167 105.525 88.342ZM83.1894 53.0949C81.6401 53.3532 76.7984 55.2898 72.5378 57.4201C68.2126 59.4859 64.533 61.2289 64.2748 61.1643C57.6901 60.4542 66.857 49.4799 83.5122 38.2473C99.4573 27.4666 110.238 21.7857 120.244 18.8807C126.506 17.0732 133.542 16.815 135.544 18.2997C136.641 19.1389 136.254 19.2035 131.477 19.2681C121.148 19.2681 109.205 24.5616 89.774 37.5372C79.7034 44.2509 68.0189 53.8696 68.0189 55.4189C68.0189 55.7417 69.891 55.0962 72.215 54.0633C77.1858 51.8038 82.2856 50.6418 84.5451 51.1583C86.9336 51.8038 86.4172 52.6431 83.1894 53.0949ZM108.172 58.6467C114.24 57.4201 114.499 57.3556 114.499 56.71C114.499 56.3873 112.175 56.0645 109.27 55.9354L104.041 55.7417L108.882 50.2545C111.529 47.2204 114.628 44.1863 115.725 43.4762C118.114 41.9269 118.243 40.8295 116.306 40.1839L114.821 39.732L116.435 39.151C117.339 38.8283 119.017 38.6992 120.179 38.8928C121.922 39.151 122.31 39.0219 122.116 38.1182C121.922 37.2144 121.212 37.0207 118.049 37.0853C108.818 37.2144 104.88 39.6675 112.11 40.8295C114.111 41.1522 115.79 41.6687 115.79 41.9915C115.79 42.2497 115.467 42.5079 115.08 42.5079C113.853 42.5079 103.46 53.0304 102.169 55.6126C100.167 59.4213 101.265 60.0023 108.172 58.6467ZM150.779 33.5993C148.907 33.7284 148.455 34.0512 148.584 34.955L148.604 35.0865C148.676 35.564 148.718 35.8383 148.611 35.9216C148.466 36.034 148.051 35.7984 147.075 35.2447L146.905 35.1486C145.679 34.5031 145.55 34.1803 146.26 33.6638C146.712 33.2765 147.938 32.6955 148.907 32.5019L150.714 32.05L149.358 30.6298C148.648 29.7905 148.261 29.0159 148.455 28.7577C148.971 28.2412 155.297 28.9513 156.201 29.6614C156.589 29.9842 157.17 29.9197 157.557 29.5323C158.461 28.6285 159.687 29.3387 159.687 30.7589C159.687 31.5335 159.494 31.5981 158.913 31.0171C158.396 30.5006 157.944 30.5006 157.363 30.9525C156.847 31.4044 156.459 31.4044 156.137 30.888C155.943 30.5652 154.716 30.2424 153.425 30.2424C152.234 30.2424 151.671 30.2424 151.556 30.4694C151.453 30.673 151.71 31.0592 152.199 31.7918C153.229 33.4007 153.168 33.4056 150.801 33.5975L150.779 33.5993ZM140.966 16.4276C140.966 15.5884 140.192 14.1036 139.223 13.1353L137.416 11.3278L147.099 11.7151C152.457 11.9733 158.525 12.5543 160.656 13.1353C162.786 13.6518 165.239 14.0391 166.143 14.0391C167.498 14.0391 167.24 13.7809 164.723 12.4252C160.333 10.1658 154.716 9.06835 143.936 8.29369C131.025 7.38991 124.505 8.61646 125.731 11.8442C125.925 12.4898 126.958 12.8125 128.507 12.8125C131.67 12.8125 136.835 14.6846 138.578 16.4276C140.45 18.2997 140.966 18.2997 140.966 16.4276ZM109.463 187.37C114.692 194.083 121.6 201.701 124.827 204.283C126.764 205.832 128.443 207.123 128.572 207.123C128.636 207.123 127.216 204.154 125.408 200.539C118.114 186.014 113.853 171.554 111.852 154.898C111.4 151.219 110.69 148.12 109.915 146.829C108.366 144.247 108.366 140.89 109.98 137.727C110.819 136.048 111.271 133.918 111.271 131.594V128.043L108.172 131.271C105.138 134.434 102.233 135.726 102.233 133.789C102.233 132.369 107.01 125.526 109.528 123.395C111.529 121.717 111.787 121.136 112.433 116.101C112.885 113.067 113.918 107.709 114.757 104.158C115.661 100.608 116.177 97.5734 116.048 97.4443C115.596 96.9924 100.426 114.416 98.3599 119.974C97.9063 121.194 96.6814 123.331 95.7131 124.622L94.0347 126.777C94.0347 126.777 94.556 129.795 95.1321 133.587C95.7141 137.419 95.9872 140.053 96.2304 142.399C96.5558 145.537 96.8277 148.16 97.7143 152.445C98.7472 157.739 99.7801 162.322 100.038 162.645C100.232 163.032 101.071 166.002 101.91 169.294C103.718 176.589 106.752 183.819 109.463 187.37ZM371.428 248.439L370.072 247.083C370.072 247.083 392.573 218.496 396.605 207.963C399.681 199.924 401.492 197.645 403.935 197.645C405.301 197.645 406.417 197.957 406.933 198.731C407.837 200.087 408.708 201.765 407.546 207.511C405.609 216.807 402.64 222.939 393.731 236.173C391.665 239.207 389.019 242.564 387.857 243.726C385.145 246.244 379.046 248.826 375.495 249.407C373.236 249.73 372.59 249.601 371.428 248.439Z" fill="#00160A"/>
<path d="M550.181 311.59C558.212 289.708 556.997 285.046 555.604 284.59C555.604 284.59 552.537 286.333 551.181 290.012C548.663 296.92 540.046 314.995 536.818 318.223C533.009 322.032 533.009 322.032 529.136 322.032C525.263 322.032 514.092 316.199 512.571 310.449C510.138 301.249 520.615 269.29 520.873 267.483L519.13 266.256C517.968 267.353 502.854 313.188 482.979 301.245C480.704 299.877 475.878 293.434 475.491 290.012C473.34 280.071 483.21 245.308 484.888 238.167C486.39 231.776 494.212 225.844 503.831 225.844C518.614 225.844 516.628 238.767 523.25 243.32C526.184 245.338 531.006 241.68 532.493 241.402C540.821 239.853 544.012 241.657 550.117 246.502C554.829 250.242 558.316 257.644 562.153 260.252C564.285 261.701 566.547 259.721 567.288 259.349C570.326 257.824 576.842 258.961 578.65 260.252C581.3 261.408 587.793 267.65 588.819 271.28C593.469 287.734 578.787 324.212 573.245 331.055C564.07 342.382 542.15 333.472 550.181 311.59Z" fill="white"/>
<path fill-rule="evenodd" clip-rule="evenodd" d="M179.054 251.631C196.742 262.799 214.981 270.094 235.767 272.095C252.164 273.645 274.273 271.514 290.153 266.35C303.516 262.025 321.591 250.043 333.663 239.908C357.097 220.283 371.88 189.629 378.335 157.093C379.239 152.51 380.618 140.989 380.553 129.562C380.553 116.264 374.7 79.9233 356.968 58.9695C320.394 15.7522 260.274 -3.71598 209.748 12.9183C191.522 18.9188 172.116 29.7905 157.462 43.9927C138.999 62.0036 125.378 86.5345 119.955 111.582C114.275 138.049 121.664 169.682 134.511 195.633C144.775 216.29 161.688 240.592 179.054 251.631ZM351.416 173.619C339.28 210.093 307.648 237.335 267.882 245.598C261.813 246.825 257.617 247.277 249.096 247.406C243.092 247.6 237.089 247.535 235.862 247.406C208.039 244.049 186.865 233.785 167.369 214.289C158.848 205.703 155.233 201.055 149.939 191.888C141.612 177.364 137.157 162.516 135.802 144.634C131.154 83.3713 174.987 32.3082 236.701 27.0147C260.91 24.9489 287.765 32.3727 308.164 46.8331C315.717 52.1912 329.403 65.7478 333.663 72.0742C335.406 74.5918 352.32 99.3164 355.289 113.519C359.098 131.981 357.613 155.092 351.416 173.619Z" fill="white"/>
<path fill-rule="evenodd" clip-rule="evenodd" d="M380.576 129.562C380.576 172.892 360.08 220.264 333.628 240.495C321.008 250.147 304.515 261.834 290.153 266.35C269.105 272.967 235.767 272.095 235.767 272.095C235.767 272.095 269.779 267.549 282.383 262.476C318.526 247.931 338.256 225.602 350.44 204.179C374.489 161.89 380.576 128.51 380.576 129.562Z" fill="#E7EAEE"/>
<path fill-rule="evenodd" clip-rule="evenodd" d="M236.508 239.659C219.272 237.464 202.164 231.332 188.35 222.229C180.151 216.871 167.757 204.283 161.753 195.31C153.167 182.399 147.486 168.584 144.71 153.736C142.709 142.956 142.774 126.365 144.775 116.746C146.841 106.934 149.487 99.4455 154.2 89.9559C159.687 78.9816 165.497 70.9122 174.212 62.1972C189.06 47.3495 206.296 37.9245 226.825 33.4056C233.474 31.9854 257.553 30.8234 258.392 31.9209C258.586 32.2436 259.877 33.0829 261.232 33.793C262.588 34.5676 266.203 37.2789 269.173 39.9257C273.627 43.799 275.628 46.2521 279.502 52.3203C282.148 56.4518 284.279 60.196 284.279 60.5188C284.279 61.2289 286.344 62.52 287.506 62.52C289.12 62.52 290.218 57.6784 290.54 49.1571C290.734 44.4446 291.121 40.5712 291.38 40.5712C292.283 40.5712 302.225 46.0584 306.873 49.1571C315.975 55.2253 325.077 63.7465 331.791 72.6551C334.825 76.6576 335.277 77.6904 335.277 80.1435C335.277 82.403 335.923 84.146 337.924 87.6319C342.959 96.4114 346.897 107.45 349.286 119.651C350.835 127.85 350.835 143.343 349.221 151.929C344.831 175.556 331.791 199.054 314.813 213.966C300.417 226.555 285.118 234.301 267.042 238.11C260.845 239.466 242.253 240.369 236.508 239.659ZM190.351 195.504C190.932 194.858 191.319 193.89 191.126 193.438C191.067 193.302 190.259 192.922 189.076 192.366C186.318 191.069 181.523 188.815 179.445 186.466C171.182 177.041 168.148 170.004 166.275 155.479C164.468 141.342 165.986 131.784 169.245 116.424C170.835 108.93 175.06 102.741 177.688 98.8899C179.475 96.2716 180.525 94.7345 179.506 94.6039C176.988 94.2166 176.601 94.4102 173.954 96.9279C168.273 102.351 165.691 106.676 162.98 115.003C158.783 128.043 157.973 163.284 166.275 179.171C174.578 195.058 188.866 197.182 190.351 195.504ZM282.148 141.277C281.052 151.306 276.403 165.808 270.98 172.135C268.463 175.104 259.221 180.204 251.42 179.171C243.885 178.173 237.993 174.652 232.957 167.099C228.632 160.579 226.398 152.665 224.888 142.697C222.28 125.485 233.667 105.449 238.574 100.478C243.544 95.3786 247.095 93.571 251.614 93.5065C256.003 93.5065 258.844 94.4748 263.298 97.638C271.432 103.319 284.279 121.79 282.148 141.277ZM195.128 87.8902C196.419 86.4054 196.613 85.6953 196.225 82.9194C195.967 80.3372 195.451 79.3043 194.095 78.2069C191.707 76.2702 188.737 76.2702 186.542 78.336C184.993 79.8208 184.799 80.3372 184.993 83.8877C185.186 87.6965 185.316 87.9547 187.446 89.1167C190.286 90.666 193.062 90.2141 195.128 87.8902ZM235.41 48.0596C223.79 56.3873 218.755 59.8087 213.526 63.0364C209.395 65.6186 208.104 65.6832 208.104 63.3592C208.104 62.1327 209.007 60.777 211.331 58.6467L214.559 55.6771L208.297 54.8379C201.261 53.9342 194.418 51.9975 192.933 50.5127C190.48 47.9951 192.61 47.4141 199.582 48.7052C202.681 49.2216 208.685 49.8672 212.945 49.9963L220.692 50.3191L226.308 46.2521C238.638 37.3435 251.42 32.3082 257.553 33.8575C261.362 34.7613 260.91 35.7942 256.584 36.3106C251.614 36.8916 248.58 38.57 235.41 48.0596Z" fill="white"/>
<path d="M252.001 170.327C252.001 170.004 252.388 169.682 252.905 169.682C253.421 169.682 254.067 170.004 254.26 170.327C254.454 170.714 254.067 170.973 253.357 170.973C252.582 170.973 252.001 170.714 252.001 170.327Z" fill="white"/>
<path d="M255.874 169.746C255.874 169.036 257.488 168.39 259.296 168.39C260.716 168.455 260.716 168.455 259.489 169.359C258.069 170.456 255.874 170.65 255.874 169.746Z" fill="white"/>
<path d="M245.868 168.068C245.675 167.551 245.416 166.647 245.223 166.131C245.029 165.485 245.352 165.163 246.191 165.163C246.901 165.163 247.482 165.55 247.482 166.066C247.482 166.583 247.676 167.422 247.87 168.003C248.128 168.713 247.934 169.036 247.224 169.036C246.643 169.036 245.997 168.584 245.868 168.068Z" fill="white"/>
<path d="M249.29 166.454C248.967 164.517 249.677 163.872 252.001 163.872C252.711 163.872 253.292 164.517 253.55 165.615C254.067 167.487 253.228 168.39 250.968 168.39C249.935 168.39 249.483 167.939 249.29 166.454Z" fill="white"/>
<path d="M242.705 166.777C241.479 165.808 241.479 165.808 242.834 165.808C243.673 165.808 244.254 166.196 244.254 166.777C244.254 167.939 244.254 167.939 242.705 166.777Z" fill="white"/>
<path d="M255.681 166.712C254.841 165.873 255.229 163.355 256.262 162.968C258.134 162.258 258.973 162.58 259.36 164.259C259.619 165.227 259.748 166.066 259.619 166.131C259.102 166.712 256.068 167.099 255.681 166.712Z" fill="white"/>
<path d="M261.426 165.356C261.232 165.163 261.039 164.323 261.039 163.549C261.039 162.451 261.555 161.999 263.105 161.677C264.46 161.418 265.299 161.548 265.687 162.064C266.332 163.097 266.332 164.388 265.751 164.711C264.589 165.356 261.878 165.744 261.426 165.356Z" fill="white"/>
<path d="M239.736 163.355C239.736 162.58 240.317 161.935 241.156 161.741C242.834 161.289 242.77 161.225 243.092 162.903C243.222 163.872 242.899 164.259 241.543 164.388C240.123 164.582 239.736 164.323 239.736 163.355Z" fill="white"/>
<path d="M244.642 163.42C243.738 162.451 244.319 160.644 245.546 160.644C246.385 160.644 246.837 161.096 246.837 161.87C246.837 163.097 245.352 164.13 244.642 163.42Z" fill="white"/>
<path d="M248.515 161.483C247.999 160.256 249.096 159.353 251.226 159.353C252.195 159.353 252.647 159.74 252.647 160.579C252.647 161.289 252.066 161.935 251.226 162.193C249.096 162.71 248.967 162.71 248.515 161.483Z" fill="white"/>
<path d="M267.171 161.289C267.365 160.967 267.688 160.644 267.882 160.644C268.075 160.644 268.011 160.967 267.817 161.289C267.623 161.677 267.301 161.935 267.107 161.935C266.913 161.935 266.978 161.677 267.171 161.289Z" fill="white"/>
<path d="M254.325 160.192C253.809 158.901 254.454 158.255 256.52 157.932C257.682 157.803 258.198 158.062 258.327 158.965C258.779 161.096 255.1 162.258 254.325 160.192Z" fill="white"/>
<path d="M238.832 159.094C238.251 156.964 238.38 156.77 240.058 156.77C240.962 156.77 241.672 157.029 241.672 157.351C241.672 157.674 241.866 158.384 242.06 158.901C242.253 159.546 241.866 159.934 240.768 160.127C239.542 160.386 239.09 160.127 238.832 159.094Z" fill="white"/>
<path d="M260.393 158.384C260.393 157.222 260.845 156.706 262.072 156.383C263.879 155.931 264.912 156.835 264.912 158.901C264.912 159.74 264.396 159.998 262.653 159.998C260.651 159.998 260.393 159.805 260.393 158.384Z" fill="white"/>
<path d="M236.895 158.384C236.702 157.868 236.831 157.416 237.153 157.416C237.541 157.416 237.799 157.868 237.799 158.384C237.799 158.901 237.67 159.353 237.541 159.353C237.412 159.353 237.153 158.901 236.895 158.384Z" fill="white"/>
<path d="M243.415 158.901C242.511 158.062 243.028 156.254 244.19 155.931C244.9 155.738 245.61 155.802 245.804 155.996C246.578 156.706 246.127 158.578 245.158 158.965C243.932 159.417 243.932 159.417 243.415 158.901Z" fill="white"/>
<path d="M266.461 158.449C265.751 156.577 266.526 155.157 268.333 154.963C269.689 154.769 270.076 155.027 270.076 156.06C270.076 158.191 269.366 159.353 268.075 159.353C267.365 159.353 266.655 158.965 266.461 158.449Z" fill="white"/>
<path d="M247.934 157.61C247.159 156.9 247.418 155.608 248.515 155.221C249.742 154.769 252.324 156.06 251.614 156.77C250.71 157.545 248.386 158.126 247.934 157.61Z" fill="white"/>
<path d="M253.55 155.996C252.969 155.092 255.035 153.543 256.714 153.543C257.488 153.543 257.811 153.93 257.682 154.64C257.424 155.931 254.131 156.964 253.55 155.996Z" fill="white"/>
<path d="M235.862 155.544C235.862 155.221 235.669 154.511 235.475 153.93C235.281 153.349 235.346 152.897 235.733 152.897C236.572 152.897 237.218 155.35 236.443 155.867C236.121 156.06 235.862 155.931 235.862 155.544Z" fill="white"/>
<path d="M237.605 154.059C237.218 152.639 237.993 151.606 239.477 151.606C240.317 151.606 241.156 154.124 240.639 154.963C239.929 156.06 237.928 155.415 237.605 154.059Z" fill="white"/>
<path d="M242.124 154.382C241.156 153.414 241.737 151.09 243.028 150.767C243.996 150.509 244.513 150.831 245.029 151.993C245.416 152.833 245.61 153.672 245.481 153.801C244.835 154.382 242.511 154.834 242.124 154.382Z" fill="white"/>
<path d="M259.554 154.382C258.715 153.543 259.102 153.026 261.039 152.316C262.653 151.8 263.105 151.864 263.427 152.639C264.008 154.188 260.781 155.673 259.554 154.382Z" fill="white"/>
<path d="M265.235 152.897C264.589 151.864 265.493 150.961 267.172 150.961C269.173 150.961 269.754 152.639 267.946 153.155C266.01 153.672 265.687 153.607 265.235 152.897Z" fill="white"/>
<path d="M270.722 151.348C270.722 150.38 271.884 149.347 272.4 149.863C272.852 150.315 271.949 152.252 271.303 152.252C270.98 152.252 270.722 151.864 270.722 151.348Z" fill="white"/>
<path d="M235.023 150.509C234.765 150.315 234.571 149.476 234.636 148.766C234.636 147.539 234.7 147.539 235.281 148.959C235.927 150.509 235.798 151.283 235.023 150.509Z" fill="white"/>
<path d="M236.25 149.54C235.669 147.281 235.733 147.087 237.412 147.087C239.284 147.087 240.446 149.476 239.025 150.38C237.541 151.283 236.701 151.025 236.25 149.54Z" fill="white"/>
<path d="M258.457 150.831C258.457 150.638 258.779 149.605 259.167 148.443C260.07 145.861 262.072 145.732 262.524 148.249C262.717 149.218 262.782 150.057 262.717 150.121C262.394 150.509 258.457 151.09 258.457 150.831Z" fill="white"/>
<path d="M240.833 149.218C240.575 149.024 240.381 148.249 240.381 147.539C240.381 146.506 240.575 146.442 241.349 147.087C241.866 147.539 242.318 148.314 242.318 148.766C242.318 149.734 241.543 149.992 240.833 149.218Z" fill="white"/>
<path d="M264.073 147.926C263.685 145.925 264.525 145.021 266.526 145.28C267.494 145.409 267.817 145.99 267.817 147.41C267.817 149.024 267.559 149.411 266.139 149.54C264.718 149.734 264.396 149.411 264.073 147.926Z" fill="white"/>
<path d="M270.399 148.185C269.56 145.602 269.818 144.828 271.561 144.634C273.111 144.44 273.304 144.634 273.304 146.313C273.304 147.733 272.917 148.314 271.949 148.572C271.238 148.766 270.528 148.572 270.399 148.185Z" fill="white"/>
<path d="M234.055 144.505C234.055 143.278 234.184 142.762 234.378 143.408C234.507 143.989 234.507 145.021 234.378 145.667C234.184 146.248 234.055 145.732 234.055 144.505Z" fill="white"/>
<path d="M235.669 145.344C234.829 144.57 235.217 142.052 236.25 141.665C237.734 141.084 238.444 141.794 238.444 143.924C238.444 145.28 238.122 145.796 237.282 145.796C236.637 145.796 235.862 145.602 235.669 145.344Z" fill="white"/>
<path d="M239.542 143.601C239.284 142.633 239.155 141.6 239.413 141.406C240.058 140.761 240.446 141.794 240.252 143.666L240.058 145.473L239.542 143.601Z" fill="white"/>
<path d="M260.393 143.149C260.393 142.439 260.716 142.052 261.039 142.246C261.426 142.439 261.684 143.085 261.684 143.601C261.684 144.118 261.426 144.505 261.039 144.505C260.716 144.505 260.393 143.924 260.393 143.149Z" fill="white"/>
<path d="M263.298 143.989C262.394 143.02 263.105 141.277 264.589 140.89C266.461 140.438 266.526 140.438 267.107 142.31C267.494 143.472 267.236 143.73 265.558 143.989C264.525 144.182 263.492 144.118 263.298 143.989Z" fill="white"/>
<path d="M269.237 142.762C268.527 142.116 268.721 139.986 269.431 139.986C269.818 139.986 270.076 139.728 270.076 139.341C270.076 139.018 269.689 138.695 269.173 138.695C268.075 138.695 267.171 135.532 268.075 134.628C269.237 133.466 270.528 134.693 271.303 137.856C271.755 139.534 272.207 141.471 272.4 142.116C272.659 142.956 272.4 143.214 271.174 143.214C270.335 143.214 269.431 143.02 269.237 142.762Z" fill="white"/>
<path d="M272.723 139.341C272.271 137.404 271.109 133.531 270.27 130.69C268.979 126.559 268.85 125.526 269.56 125.074C270.012 124.751 270.593 124.493 270.787 124.493C271.497 124.493 274.079 137.727 273.821 140.309L273.627 142.891L272.723 139.341Z" fill="white"/>
<path d="M233.409 139.018C233.409 137.985 233.538 137.598 233.732 138.243C233.861 138.824 233.861 139.728 233.732 140.18C233.538 140.567 233.409 140.115 233.409 139.018Z" fill="white"/>
<path d="M234.7 138.889C234.958 136.629 236.831 136.113 237.347 138.179C237.799 139.857 237.928 139.663 235.991 140.309C234.636 140.696 234.507 140.567 234.7 138.889Z" fill="white"/>
<path d="M261.943 138.308C261.426 136.436 262.524 135.338 264.589 135.596C266.139 135.79 266.72 138.566 265.428 139.405C263.815 140.438 262.33 139.986 261.943 138.308Z" fill="white"/>
<path d="M238.444 137.791C238.444 136.694 238.767 136.113 239.477 136.113C240.123 136.113 240.381 136.565 240.252 137.533C239.929 139.599 238.444 139.792 238.444 137.791Z" fill="white"/>
<path d="M232.699 135.08C232.699 134.37 232.893 134.176 233.086 134.693C233.28 135.145 233.216 135.726 233.022 135.919C232.828 136.177 232.635 135.79 232.699 135.08Z" fill="white"/>
<path d="M233.926 134.886C233.926 133.918 234.313 133.531 235.281 133.531C236.185 133.531 236.508 133.853 236.379 134.628C236.056 136.307 233.926 136.5 233.926 134.886Z" fill="white"/>
<path d="M237.476 134.305C237.024 133.143 237.024 133.143 238.961 132.627C240.123 132.24 240.381 132.433 240.381 133.402C240.381 134.951 238.057 135.726 237.476 134.305Z" fill="white"/>
<path d="M260.845 133.402C260.393 131.788 261.232 130.948 263.492 130.948C264.589 130.948 264.912 131.336 264.912 132.562C264.912 133.531 264.525 134.176 264.008 134.176C263.492 134.176 262.653 134.37 262.136 134.564C261.555 134.757 261.103 134.37 260.845 133.402Z" fill="white"/>
<path d="M266.461 131.917C265.945 130.626 266.72 129.657 268.204 129.657C269.108 129.657 269.431 130.109 269.431 131.271C269.431 132.433 269.108 132.885 268.14 132.885C267.43 132.885 266.655 132.433 266.461 131.917Z" fill="white"/>
<path d="M233.28 131.013C233.28 129.657 234.765 128.108 235.41 128.818C235.669 129.012 235.862 129.916 235.862 130.755C235.862 131.788 235.475 132.24 234.571 132.24C233.732 132.24 233.28 131.788 233.28 131.013Z" fill="white"/>
<path d="M236.831 130.238C236.314 128.624 236.895 127.914 239.09 127.592C241.091 127.333 241.737 129.464 239.994 130.755C238.315 131.981 237.282 131.788 236.831 130.238Z" fill="white"/>
<path d="M260.2 129.851C259.748 129.464 259.554 127.075 259.941 127.075C260.006 127.075 260.974 126.817 262.136 126.494C264.073 125.913 264.202 125.978 264.137 127.721C264.073 129.012 263.686 129.657 262.717 129.916C260.974 130.367 260.716 130.367 260.2 129.851Z" fill="white"/>
<path d="M257.811 128.366C257.811 127.914 258.005 127.721 258.263 127.914C258.457 128.173 258.457 128.56 258.263 128.818C258.005 129.012 257.811 128.818 257.811 128.366Z" fill="white"/>
<path d="M265.041 127.333C265.235 126.236 267.236 124.622 267.688 125.138C267.882 125.332 268.204 126.107 268.398 126.946C268.85 128.237 268.656 128.366 266.849 128.366C265.299 128.366 264.848 128.108 265.041 127.333Z" fill="white"/>
<path d="M233.926 127.269C233.926 126.946 234.248 126.3 234.571 125.784C235.088 125.009 235.217 125.074 235.217 126.3C235.217 127.075 234.959 127.721 234.571 127.721C234.248 127.721 233.926 127.527 233.926 127.269Z" fill="white"/>
<path d="M235.862 125.849C235.862 124.041 237.218 123.46 238.251 124.816C238.896 125.784 238.896 126.107 238.251 126.559C236.895 127.398 235.862 127.14 235.862 125.849Z" fill="white"/>
<path d="M255.487 125.009C254.325 123.718 254.325 123.654 255.422 124.041C256.068 124.299 256.907 124.493 257.23 124.493C257.553 124.493 257.811 124.945 257.811 125.461C257.811 126.817 256.907 126.688 255.487 125.009Z" fill="white"/>
<path d="M241.608 124.945C238.832 122.814 238.444 118.037 241.027 118.037C242.77 118.037 244.384 120.749 244.125 123.266C243.932 125.59 243.157 126.107 241.608 124.945Z" fill="white"/>
<path d="M259.296 125.332C259.554 125.138 259.941 125.138 260.2 125.332C260.393 125.59 260.2 125.784 259.748 125.784C259.296 125.784 259.102 125.59 259.296 125.332Z" fill="white"/>
<path d="M269.044 122.814C269.237 122.233 269.431 121.652 269.431 121.523C269.431 121.394 269.754 121.265 270.076 121.265C270.464 121.265 270.722 121.846 270.722 122.556C270.722 123.331 270.27 123.847 269.689 123.847C268.979 123.847 268.785 123.525 269.044 122.814Z" fill="white"/>
<path d="M235.217 122.621C235.217 121.136 236.572 118.683 237.347 118.683C238.703 118.683 237.734 122.814 236.314 123.073C235.733 123.202 235.217 123.008 235.217 122.621Z" fill="white"/>
<path d="M249.742 121.911L247.805 121.459L249.548 121.007C251.356 120.49 252.647 120.878 252.647 121.975C252.647 122.621 252.582 122.621 249.742 121.911Z" fill="white"/>
<path d="M247.482 118.812C247.482 116.165 248.967 115.778 250.323 118.102C251.226 119.651 251.291 119.974 250.452 119.974C249.935 119.974 249.096 120.168 248.515 120.361C247.74 120.684 247.482 120.297 247.482 118.812Z" fill="white"/>
<path d="M258.715 119.716C255.81 118.425 253.938 115.003 253.938 110.936C253.938 108.031 254.196 107.321 255.939 105.707C257.036 104.674 258.134 103.835 258.457 103.835C259.877 103.835 265.106 108.806 266.849 111.905L268.85 115.455L266.72 117.715C264.267 120.297 261.555 121.007 258.715 119.716Z" fill="white"/>
<path d="M245.223 118.037C245.029 117.715 245.158 117.392 245.481 117.392C245.868 117.392 246.191 117.715 246.191 118.037C246.191 118.425 246.062 118.683 245.933 118.683C245.739 118.683 245.416 118.425 245.223 118.037Z" fill="white"/>
<path d="M236.766 117.005C236.96 116.424 237.153 115.843 237.153 115.713C237.153 115.584 237.734 115.455 238.444 115.455C240.058 115.455 240.123 116.488 238.509 117.392C236.766 118.296 236.314 118.231 236.766 117.005Z" fill="white"/>
<path d="M241.866 116.23C240.381 116.036 239.929 115.197 240.898 114.616C241.156 114.422 242.318 114.1 243.48 113.841C245.223 113.454 245.546 113.583 245.546 114.681C245.546 116.036 244.19 116.617 241.866 116.23Z" fill="white"/>
<path d="M246.837 114.035C246.837 113.26 246.901 112.808 247.03 112.938C247.095 113.067 247.611 113.712 248.063 114.358C248.838 115.262 248.773 115.455 247.87 115.455C247.224 115.455 246.837 114.939 246.837 114.035Z" fill="white"/>
<path d="M237.799 113.583C237.799 113.196 238.122 112.744 238.445 112.55C238.832 112.357 239.09 112.615 239.09 113.131C239.09 113.712 238.832 114.164 238.445 114.164C238.122 114.164 237.799 113.906 237.799 113.583Z" fill="white"/>
<path d="M240.187 112.615C239.671 111.324 244.254 109.903 245.029 111.13C245.61 112.163 245.029 112.615 242.576 113.131C241.091 113.454 240.446 113.325 240.187 112.615Z" fill="white"/>
<path d="M246.256 110.549C246.256 109.839 246.449 109.645 246.643 110.162C246.837 110.614 246.772 111.195 246.578 111.388C246.385 111.646 246.191 111.259 246.256 110.549Z" fill="white"/>
<path d="M240.768 109.516C241.543 108.096 243.803 105.772 244.384 105.772C245.029 105.772 245.094 108.806 244.448 109.193C244.125 109.322 243.092 109.645 242.124 109.903C240.704 110.226 240.381 110.162 240.768 109.516Z" fill="white"/>
<path d="M245.933 108.031C245.223 106.095 245.546 105.255 247.095 104.997C248.709 104.674 248.709 104.674 247.676 106.676C246.385 109.258 246.449 109.258 245.933 108.031Z" fill="white"/>
<path d="M245.546 104.158C245.546 104.029 246.837 103.125 248.451 102.221C250.387 101.059 251.743 100.672 252.711 100.93C253.873 101.318 253.55 101.576 250.71 102.932C247.547 104.352 245.546 104.868 245.546 104.158Z" fill="white"/>
<path d="M281.374 46.9622C279.631 44.4446 275.951 40.3776 273.304 37.9245C270.657 35.4714 268.914 33.4702 269.431 33.4702C270.851 33.4702 281.696 36.4397 284.408 37.6017C286.667 38.57 286.732 38.6991 286.151 40.7004C285.828 41.8624 285.57 44.7673 285.57 47.1559C285.57 49.609 285.376 51.5456 285.118 51.5456C284.795 51.5456 283.181 49.4799 281.374 46.9622Z" fill="white"/>
<path d="M150.004 242.5C147.357 241.144 146.776 240.369 143.419 233.72C138.578 224.295 138.449 222.1 143.032 227.458C144.84 229.589 149.036 233.978 152.328 237.206C157.944 242.629 158.202 243.016 156.33 242.758C154.975 242.564 154.458 242.693 154.781 243.21C155.556 244.372 153.103 244.049 150.004 242.5Z" fill="white"/>
<path fill-rule="evenodd" clip-rule="evenodd" d="M258.191 360.114C257.655 358.841 258.253 357.375 259.525 356.839L260.916 356.249C274.438 350.463 282.2 346.988 287.474 341.469C292.748 335.95 293.379 327.844 294.369 322.911C294.641 321.557 297.707 323.935 299.06 324.207C300.414 324.479 301.291 325.796 301.019 327.15C299.828 333.081 296.62 338.735 291.455 344.102C286.308 349.451 276.342 355.184 261.465 361.448C260.193 361.983 258.727 361.386 258.191 360.114Z" fill="#00160A"/>
<path fill-rule="evenodd" clip-rule="evenodd" d="M319.341 102.538C320.528 101.832 322.062 102.221 322.768 103.408C329.84 115.287 333.628 128.866 333.628 142.995C333.628 185.797 298.93 220.495 256.128 220.495C244.754 220.495 233.723 218.041 223.622 213.368C222.368 212.788 217.635 208.172 222.402 210.049C227.17 211.927 245.616 216.141 256.261 216.141C296.301 216.141 324.628 183.035 324.628 142.995C324.628 129.773 319.341 118.037 318.472 105.965C318.371 104.566 318.155 103.245 319.341 102.538Z" fill="#00160A"/>
<path fill-rule="evenodd" clip-rule="evenodd" d="M71.7467 291.75C72.6304 290.689 74.2068 288.546 75.2677 289.429C79.6198 293.054 84.2641 297.254 89.232 298.065C94.4017 298.909 100.535 298.909 107.623 298.051C108.994 297.885 110.239 298.861 110.405 300.232C110.571 301.603 109.594 302.848 108.224 303.014C100.696 303.926 94.1001 303.926 88.4268 303C82.5518 302.041 77.0883 299.453 72.0677 295.271C71.0068 294.387 70.8631 292.811 71.7467 291.75Z" fill="#00160A"/>
<path d="M124.827 204.283C121.6 201.701 114.692 194.083 109.463 187.37C106.752 183.819 103.718 176.589 101.91 169.294C101.071 166.002 100.232 163.032 100.038 162.645C99.7801 162.322 98.7472 157.739 97.7143 152.445C96.165 144.957 96.4927 142.544 95.1321 133.587C94.556 129.795 94.0347 126.777 94.0347 126.777L95.7131 124.622C96.6814 123.331 97.9063 121.194 98.3599 119.974C100.426 114.416 115.596 96.9924 116.048 97.4443C116.177 97.5734 115.661 100.608 114.757 104.158C113.918 107.709 112.885 113.067 112.433 116.101C111.787 121.136 111.529 121.717 109.528 123.395C107.01 125.526 102.233 132.369 102.233 133.789C102.233 135.726 105.138 134.434 108.172 131.271L111.271 128.043V131.594C111.271 133.918 110.819 136.048 109.98 137.727C108.366 140.89 108.366 144.247 109.915 146.829C110.69 148.12 111.4 151.219 111.852 154.898C113.853 171.554 118.114 186.014 125.408 200.539C127.216 204.154 128.636 207.123 128.572 207.123C128.443 207.123 126.764 205.832 124.827 204.283Z" fill="white"/>
<path fill-rule="evenodd" clip-rule="evenodd" d="M393.441 244.114L398.089 246.179C399.053 246.624 409.685 251.733 422.457 257.87C443.048 267.763 469.199 280.329 469.358 280.329C469.616 280.329 470.828 277.528 471.101 274.261C471.747 267.224 474.135 257.67 476.911 251.021C478.202 248.051 479.235 244.34 479.235 244.017C479.235 243.87 478.186 243.447 476.467 242.754C474.422 241.929 471.429 240.722 468.132 239.143C451.864 231.332 420.038 215.387 416.1 212.998C412.227 210.739 411.452 210.545 411.452 212.03C411.452 213.966 407.514 222.939 404.48 227.781C402.866 230.428 399.703 235.205 397.444 238.368L393.441 244.114ZM468.261 268.709C470.112 269.782 466.905 271.356 466.13 271.614C461.569 272.001 456.199 271.144 451.799 268.58C449.499 266.949 431.384 256.885 419.368 250.209C413.875 247.157 409.656 244.814 408.805 244.307C406.094 242.693 403.512 240.95 403.06 240.434C401.704 238.691 402.996 237.916 406.804 238.239C409.094 238.433 464.262 266.392 468.261 268.709Z" fill="white"/>
<path d="M347.091 249.924C345.412 249.343 343.605 248.051 342.443 246.567L340.506 244.178L347.349 237.4C357.871 227.071 365.618 215.783 372.59 203.195C374.914 198.999 381.821 182.076 382.661 180.204C383.952 177.493 384.92 176.46 387.696 174.91C390.988 172.974 394.732 172.328 396.346 173.426C399.445 175.491 399.445 182.012 396.346 193.244C392.925 205.574 388.341 214.418 378.852 227.136C377.367 229.072 374.591 232.881 372.59 235.528C367.232 242.629 363.746 246.05 359.033 248.697C354.385 251.279 351.674 251.602 347.091 249.924Z" fill="white"/>
<path d="M371.428 248.439L370.072 247.083C370.072 247.083 392.573 218.496 396.605 207.963C399.681 199.924 401.492 197.645 403.935 197.645C405.301 197.645 406.417 197.957 406.933 198.731C407.837 200.087 408.708 201.765 407.546 207.511C405.609 216.807 402.64 222.939 393.731 236.173C391.665 239.207 389.019 242.564 387.857 243.726C385.145 246.244 379.046 248.826 375.495 249.407C373.236 249.73 372.59 249.601 371.428 248.439Z" fill="white"/>
<path fill-rule="evenodd" clip-rule="evenodd" d="M409.223 218.546C410.524 215.568 411.452 212.97 411.452 212.03C411.452 210.545 412.227 210.739 416.1 212.998C420.038 215.387 451.864 231.332 468.132 239.143C474.2 242.048 479.235 243.695 479.235 244.017C479.235 244.34 407.842 221.704 409.223 218.546Z" fill="#E7EAEE"/>
<path fill-rule="evenodd" clip-rule="evenodd" d="M188.35 222.229C180.151 216.871 167.757 204.283 161.753 195.31C153.167 182.399 147.486 168.584 144.71 153.736C142.709 142.956 142.774 126.365 144.775 116.746C146.841 106.934 149.488 99.4455 154.2 89.9559C159.687 78.9815 165.497 70.9122 174.212 62.1972C182.758 53.651 144.775 88.993 154.2 152.227C161.753 205.218 194.213 226.092 188.35 222.229Z" fill="#E7EAEE"/>
</svg>
