<svg width="462" height="464" viewBox="0 0 462 464" fill="none" xmlns="http://www.w3.org/2000/svg">
<path d="M401.175 140.293C385.429 139.4 370.256 134.07 357.411 124.918C344.566 115.767 334.573 103.167 328.587 88.5757C322.601 73.9842 320.865 57.9966 323.582 42.4606C326.298 26.9246 333.356 12.4744 343.938 0.780029L61.0194 0.780029C45.0969 0.780725 29.8269 7.10616 18.568 18.365C7.3092 29.6238 0.983728 44.8939 0.983032 60.8163L0.983032 343.733C16.8805 329.341 37.7025 321.611 59.1404 322.143C80.5782 322.676 100.991 331.429 116.154 346.593C131.318 361.756 140.071 382.169 140.604 403.607C141.136 425.045 133.407 445.867 119.015 461.764L401.947 461.764C417.865 461.764 433.132 455.441 444.389 444.185C455.645 432.929 461.969 417.662 461.97 401.744L461.97 118.812C453.771 126.251 444.173 131.982 433.735 135.671C423.296 139.359 412.228 140.93 401.175 140.293ZM231.479 359.907C206.039 359.906 181.171 352.361 160.019 338.227C138.867 324.092 122.382 304.003 112.647 280.5C102.912 256.997 100.365 231.134 105.328 206.183C110.292 181.232 122.542 158.314 140.531 140.325C158.519 122.336 181.438 110.086 206.389 105.123C231.34 100.159 257.202 102.706 280.706 112.441C304.209 122.176 324.298 138.662 338.432 159.814C352.567 180.966 360.111 205.834 360.112 231.273C360.074 265.377 346.509 298.073 322.394 322.189C298.279 346.304 265.583 359.868 231.479 359.907Z" fill="#C1E56F"/>
<path d="M231.48 144.016C214.221 144.017 197.35 149.135 182.999 158.724C168.649 168.313 157.465 181.943 150.861 197.888C144.257 213.834 142.529 231.38 145.897 248.307C149.265 265.234 157.577 280.783 169.781 292.986C181.986 305.19 197.535 313.5 214.463 316.866C231.39 320.233 248.936 318.504 264.881 311.898C280.826 305.292 294.454 294.107 304.042 279.756C313.63 265.405 318.747 248.533 318.746 231.274C318.746 219.814 316.49 208.467 312.104 197.879C307.719 187.292 301.291 177.672 293.187 169.569C285.084 161.466 275.463 155.039 264.875 150.655C254.288 146.27 242.94 144.014 231.48 144.016Z" fill="#C1E56F"/>
<path d="M59.2318 463.165C47.7844 463.164 36.5943 459.769 27.0766 453.409C17.5588 447.048 10.141 438.008 5.76109 427.432C1.38122 416.856 0.236032 405.218 2.47038 393.991C4.70473 382.764 10.2183 372.451 18.3137 364.358C26.4091 356.264 36.7228 350.753 47.9505 348.521C59.1782 346.289 70.8156 347.437 81.3909 351.819C91.9662 356.202 101.005 363.622 107.363 373.141C113.721 382.66 117.114 393.851 117.112 405.298C117.091 420.641 110.986 435.35 100.136 446.198C89.2853 457.047 74.5751 463.148 59.2318 463.165Z" fill="#C1E56F"/>
<path d="M404.106 116.537C392.659 116.537 381.469 113.143 371.951 106.783C362.433 100.423 355.015 91.3842 350.634 80.8086C346.254 70.2329 345.108 58.5957 347.341 47.3686C349.574 36.1415 355.086 25.8288 363.181 17.7346C371.275 9.64029 381.588 4.12805 392.815 1.89484C404.042 -0.338361 415.679 0.80777 426.255 5.18836C436.83 9.56894 445.869 16.9872 452.229 26.5051C458.589 36.0229 461.983 47.2129 461.983 58.6599C461.966 74.0046 455.862 88.7158 445.012 99.5661C434.162 110.416 419.451 116.52 404.106 116.537Z" fill="#C1E56F"/>
</svg>
