<svg width="48" height="112" viewBox="0 0 48 112" fill="none" xmlns="http://www.w3.org/2000/svg">
<path d="M41.6686 46.5263C40.0291 46.4333 38.4493 45.8784 37.1119 44.9255C35.7744 43.9726 34.7339 42.6607 34.1106 41.1414C33.4873 39.6221 33.3066 37.9575 33.5895 36.3398C33.8723 34.7222 34.6071 33.2176 35.709 32H6.25107C4.59321 32.0001 3.00326 32.6587 1.83098 33.831C0.65869 35.0033 7.24417e-05 36.5932 0 38.2511V67.7087C1.65527 66.2102 3.82329 65.4054 6.05543 65.4608C8.28756 65.5163 10.413 66.4277 11.9918 68.0065C13.5707 69.5854 14.4821 71.7108 14.5375 73.9429C14.593 76.1751 13.7881 78.3431 12.2896 79.9983H41.7489C43.4064 79.9983 44.996 79.3399 46.168 78.1679C47.3401 76.996 47.9986 75.4064 47.9986 73.7489V44.2896C47.145 45.0642 46.1456 45.661 45.0587 46.045C43.9719 46.429 42.8194 46.5927 41.6686 46.5263ZM23.9996 69.3928C21.3508 69.3927 18.7615 68.6071 16.5591 67.1354C14.3567 65.6638 12.6402 63.5721 11.6266 61.1249C10.613 58.6776 10.3478 55.9848 10.8646 53.3869C11.3814 50.789 12.6569 48.4026 14.5299 46.5296C16.4029 44.6566 18.7892 43.3811 21.3872 42.8643C23.9851 42.3475 26.6779 42.6127 29.1251 43.6263C31.5723 44.6399 33.664 46.3564 35.1357 48.5588C36.6074 50.7612 37.393 53.3505 37.3931 55.9993C37.3891 59.5503 35.9767 62.9546 33.4658 65.4655C30.9549 67.9764 27.5505 69.3888 23.9996 69.3928Z" fill="#FAFAFA"/>
<path d="M23.9995 46.9139C22.2025 46.9139 20.4458 47.4469 18.9516 48.4453C17.4575 49.4438 16.293 50.8628 15.6053 52.5231C14.9177 54.1834 14.7378 56.0103 15.0885 57.7728C15.4391 59.5353 16.3046 61.1542 17.5753 62.4249C18.8461 63.6955 20.4651 64.5608 22.2276 64.9113C23.9902 65.2618 25.8171 65.0818 27.4773 64.394C29.1375 63.7062 30.5565 62.5416 31.5548 61.0473C32.5531 59.5531 33.0858 57.7964 33.0857 55.9993C33.0858 54.8061 32.8508 53.6246 32.3942 52.5222C31.9376 51.4198 31.2683 50.4182 30.4246 49.5745C29.5808 48.7308 28.5791 48.0616 27.4767 47.6051C26.3743 47.1486 25.1927 46.9137 23.9995 46.9139Z" fill="#FAFAFA"/>
<path d="M6.02672 79.9986C4.8348 79.9986 3.66967 79.6451 2.67867 78.9828C1.68767 78.3205 0.915314 77.3793 0.459275 76.2781C0.00323559 75.1769 -0.116003 73.9651 0.116641 72.7961C0.349285 71.6271 0.923363 70.5534 1.76627 69.7107C2.60918 68.868 3.68306 68.2941 4.8521 68.0617C6.02114 67.8294 7.23284 67.9489 8.33396 68.4052C9.43508 68.8615 10.3762 69.634 11.0382 70.6252C11.7002 71.6163 12.0535 72.7815 12.0532 73.9735C12.0512 75.571 11.4155 77.1025 10.2857 78.2321C9.15594 79.3616 7.62429 79.9969 6.02672 79.9986Z" fill="#FAFAFA"/>
<path d="M41.9738 44.0528C40.7819 44.0528 39.6168 43.6993 38.6258 43.0372C37.6347 42.375 36.8623 41.4338 36.4062 40.3327C35.9501 39.2315 35.8308 38.0198 36.0633 36.8508C36.2958 35.6819 36.8698 34.6081 37.7126 33.7653C38.5554 32.9225 39.6291 32.3486 40.7981 32.116C41.9671 31.8835 43.1788 32.0029 44.2799 32.459C45.3811 32.9151 46.3222 33.6875 46.9844 34.6785C47.6466 35.6695 48 36.8346 48 38.0265C47.9982 39.6242 47.3627 41.156 46.233 42.2857C45.1032 43.4155 43.5715 44.051 41.9738 44.0528Z" fill="#FAFAFA"/>
</svg>
