<svg width="84" height="85" viewBox="0 0 84 85" fill="none" xmlns="http://www.w3.org/2000/svg">
<path d="M72.92 25.5035C70.0508 25.3409 67.2862 24.3696 64.9457 22.7021C62.6052 21.0345 60.7843 18.7387 59.6935 16.08C58.6027 13.4212 58.2865 10.5081 58.7815 7.67723C59.2765 4.84638 60.5625 2.21338 62.4907 0.0825195H10.9394C8.03811 0.0826463 5.25571 1.23522 3.20421 3.28672C1.15271 5.33822 0.000126773 8.12062 0 11.0219V62.5727C2.89672 59.9503 6.69075 58.5419 10.597 58.6389C14.5032 58.7359 18.2227 60.3309 20.9856 63.0939C23.7486 65.8569 25.3436 69.5763 25.4407 73.4826C25.5377 77.3888 24.1292 81.1828 21.5068 84.0796H73.0606C75.9611 84.0796 78.7429 82.9273 80.794 80.8764C82.8451 78.8254 83.9974 76.0436 83.9975 73.1431V21.5893C82.5037 22.9449 80.7547 23.9892 78.8527 24.6613C76.9507 25.3333 74.9339 25.6196 72.92 25.5035ZM41.9992 65.5198C37.3638 65.5197 32.8325 64.1449 28.9784 61.5695C25.1242 58.9941 22.1203 55.3336 20.3465 51.051C18.5727 46.7684 18.1086 42.0559 19.013 37.5096C19.9174 32.9632 22.1496 28.7871 25.4273 25.5094C28.7051 22.2316 32.8812 19.9994 37.4275 19.095C41.9739 18.1907 46.6863 18.6547 50.9689 20.4285C55.2516 22.2024 58.912 25.2063 61.4875 29.0604C64.0629 32.9146 65.4376 37.4458 65.4378 42.0813C65.4308 48.2954 62.9592 54.2531 58.5651 58.6472C54.1711 63.0412 48.2134 65.5129 41.9992 65.5198Z" fill="#36480D"/>
<path d="M41.9994 26.1819C38.8546 26.182 35.7804 27.1146 33.1657 28.8619C30.5509 30.6091 28.513 33.0925 27.3096 35.998C26.1063 38.9035 25.7915 42.1006 26.4051 45.185C27.0188 48.2693 28.5333 51.1025 30.7571 53.3261C32.981 55.5497 35.8142 57.064 38.8986 57.6773C41.9831 58.2907 45.1801 57.9757 48.0855 56.7721C50.9909 55.5684 53.4741 53.5303 55.2211 50.9154C56.9681 48.3004 57.9005 45.2262 57.9003 42.0813C57.9005 39.9932 57.4892 37.9256 56.6902 35.9964C55.8911 34.0672 54.7198 32.3144 53.2433 30.8379C51.7667 29.3615 50.0137 28.1904 48.0845 27.3915C46.1552 26.5926 44.0875 26.1816 41.9994 26.1819Z" fill="#36480D"/>
<path d="M10.5468 84.0802C8.46096 84.0801 6.42198 83.4614 4.68773 82.3025C2.95349 81.1435 1.60186 79.4964 0.803791 77.5692C0.00572331 75.6421 -0.202944 73.5216 0.204182 71.4758C0.611309 69.4301 1.61595 67.551 3.09103 66.0763C4.56612 64.6015 6.4454 63.5973 8.49123 63.1907C10.5371 62.784 12.6575 62.9931 14.5845 63.7916C16.5114 64.5901 18.1583 65.9421 19.3169 67.6767C20.4754 69.4112 21.0936 71.4503 21.0932 73.5361C21.0896 76.3319 19.9772 79.012 18.0001 80.9887C16.0229 82.9654 13.3426 84.0771 10.5468 84.0802Z" fill="#36480D"/>
<path d="M73.454 21.1749C71.3682 21.1749 69.3293 20.5564 67.595 19.3976C65.8607 18.2388 64.509 16.5917 63.7108 14.6647C62.9127 12.7377 62.7038 10.6173 63.1107 8.57154C63.5176 6.52583 64.522 4.64672 65.9969 3.17184C67.4718 1.69697 69.3509 0.692569 71.3966 0.285651C73.4423 -0.121266 75.5628 0.0875732 77.4898 0.885771C79.4168 1.68397 81.0638 3.03567 82.2226 4.76994C83.3815 6.50421 84 8.54316 84 10.629C83.9968 13.4249 82.8847 16.1055 80.9076 18.0826C78.9306 20.0596 76.25 21.1717 73.454 21.1749Z" fill="#36480D"/>
</svg>
