<svg width="300" height="300" viewBox="0 0 300 300" fill="none" xmlns="http://www.w3.org/2000/svg">
<path d="M228.036 108.158C220.795 107.747 213.818 105.296 207.911 101.088C202.004 96.8789 197.408 91.0847 194.655 84.3745C191.902 77.6644 191.104 70.3122 192.353 63.1676C193.603 56.0231 196.848 49.3779 201.715 44H71.6089C64.2867 44.0003 57.2644 46.9092 52.0868 52.0868C46.9092 57.2644 44.0003 64.2866 44 71.6089V201.713C51.3108 195.095 60.8862 191.54 70.7448 191.785C80.6034 192.03 89.9906 196.056 96.9638 203.029C103.937 210.002 107.963 219.389 108.207 229.248C108.452 239.106 104.898 248.682 98.2791 255.993H228.391C235.711 255.993 242.732 253.085 247.909 247.908C253.085 242.732 255.993 235.711 255.994 228.391V98.2791C252.224 101.7 247.809 104.336 243.009 106.032C238.209 107.728 233.119 108.451 228.036 108.158ZM149.998 209.151C138.299 209.151 126.863 205.681 117.136 199.181C107.409 192.682 99.8275 183.443 95.3507 172.635C90.8739 161.826 89.7027 149.933 91.9852 138.459C94.2677 126.985 99.9013 116.445 108.174 108.173C116.446 99.9001 126.986 94.2664 138.46 91.984C149.934 89.7015 161.827 90.8727 172.636 95.3495C183.444 99.8263 192.683 107.408 199.183 117.135C205.683 126.862 209.152 138.298 209.153 149.997C209.135 165.68 202.897 180.716 191.807 191.806C180.717 202.896 165.681 209.134 149.998 209.151Z" fill="#B2DF4B"/>
<path d="M149.998 109.87C142.061 109.87 134.303 112.224 127.704 116.634C121.104 121.043 115.961 127.311 112.924 134.644C109.887 141.977 109.093 150.046 110.641 157.83C112.19 165.614 116.012 172.765 121.625 178.377C127.237 183.989 134.388 187.81 142.173 189.358C149.957 190.906 158.026 190.111 165.358 187.074C172.691 184.036 178.958 178.892 183.367 172.292C187.777 165.693 190.13 157.934 190.129 149.997C190.13 144.727 189.092 139.509 187.075 134.64C185.058 129.771 182.102 125.347 178.376 121.621C174.649 117.895 170.225 114.939 165.356 112.923C160.487 110.906 155.268 109.869 149.998 109.87Z" fill="#B2DF4B"/>
<path d="M70.6185 255.994C65.3543 255.993 60.2083 254.432 55.8313 251.507C51.4544 248.582 48.0432 244.425 46.029 239.561C44.0148 234.697 43.4882 229.346 44.5157 224.183C45.5432 219.019 48.0787 214.277 51.8016 210.555C55.5244 206.833 60.2674 204.299 65.4306 203.272C70.5939 202.246 75.9456 202.774 80.8089 204.789C85.6721 206.804 89.8286 210.217 92.7525 214.594C95.6765 218.972 97.2367 224.118 97.2357 229.382C97.2264 236.438 94.419 243.203 89.4291 248.191C84.4393 253.18 77.6745 255.986 70.6185 255.994Z" fill="#AD2CFC"/>
<path d="M229.384 97.233C224.12 97.233 218.974 95.672 214.597 92.7474C210.22 89.8228 206.809 85.666 204.794 80.8026C202.78 75.9391 202.253 70.5875 203.279 65.4245C204.306 60.2616 206.841 55.519 210.564 51.7967C214.286 48.0744 219.029 45.5395 224.192 44.5125C229.355 43.4855 234.706 44.0126 239.569 46.0271C244.433 48.0416 248.59 51.4531 251.514 55.83C254.439 60.207 256 65.3529 256 70.6171C255.992 77.6736 253.185 84.4388 248.196 89.4286C243.206 94.4183 236.441 97.225 229.384 97.233Z" fill="#AD2CFC"/>
</svg>
