<svg width="461" height="463" viewBox="0 0 461 463" fill="none" xmlns="http://www.w3.org/2000/svg">
<path d="M400.192 139.513C384.446 138.62 369.273 133.29 356.428 124.138C343.583 114.987 333.59 102.387 327.604 87.7956C321.618 73.2042 319.882 57.2166 322.599 41.6805C325.315 26.1445 332.373 11.6944 342.955 0L60.0363 0C44.1139 0.000695742 28.8439 6.32613 17.585 17.585C6.32617 28.8438 0.000695742 44.1139 0 60.0363L0 342.953C15.8975 328.56 36.7195 320.831 58.1573 321.363C79.5951 321.896 100.008 330.649 115.171 345.813C130.335 360.976 139.088 381.389 139.621 402.827C140.153 424.265 132.424 445.087 118.032 460.984L400.964 460.984C416.882 460.984 432.149 454.661 443.405 443.405C454.662 432.149 460.986 416.882 460.987 400.964L460.987 118.032C452.788 125.471 443.19 131.202 432.751 134.891C422.313 138.579 411.245 140.15 400.192 139.513ZM230.496 359.127C205.056 359.125 180.188 351.581 159.036 337.447C137.884 323.312 121.398 303.223 111.664 279.72C101.929 256.217 99.3819 230.354 104.345 205.403C109.308 180.452 121.559 157.534 139.548 139.545C157.536 121.556 180.455 109.306 205.406 104.343C230.357 99.3792 256.219 101.926 279.723 111.661C303.226 121.396 323.315 137.882 337.449 159.034C351.584 180.185 359.128 205.054 359.129 230.493C359.091 264.597 345.526 297.293 321.411 321.409C297.296 345.524 264.6 359.088 230.496 359.127Z" fill="white"/>
<path d="M230.497 143.236C213.238 143.237 196.367 148.355 182.016 157.944C167.666 167.533 156.482 181.162 149.878 197.108C143.274 213.054 141.546 230.599 144.914 247.527C148.282 264.454 156.594 280.003 168.798 292.206C181.003 304.41 196.552 312.72 213.48 316.086C230.407 319.453 247.953 317.724 263.898 311.118C279.843 304.512 293.471 293.327 303.059 278.976C312.647 264.625 317.764 247.753 317.763 230.494C317.763 219.034 315.507 207.687 311.121 197.099C306.736 186.512 300.308 176.892 292.204 168.789C284.101 160.686 274.48 154.259 263.892 149.875C253.305 145.49 241.957 143.234 230.497 143.236Z" fill="white"/>
<path d="M58.2487 462.385C46.8014 462.384 35.6113 458.989 26.0935 452.629C16.5758 446.268 9.15794 437.228 4.77806 426.652C0.398186 416.076 -0.747001 404.438 1.48735 393.211C3.7217 381.984 9.23525 371.671 17.3307 363.578C25.4261 355.484 35.7398 349.973 46.9675 347.741C58.1952 345.509 69.8325 346.657 80.4079 351.039C90.9832 355.422 100.022 362.841 106.38 372.361C112.738 381.88 116.131 393.071 116.129 404.518C116.108 419.861 110.003 434.57 99.1529 445.418C88.3023 456.267 73.592 462.368 58.2487 462.385Z" fill="white"/>
<path d="M403.123 115.757C391.676 115.757 380.486 112.363 370.968 106.003C361.45 99.6434 354.032 90.6042 349.651 80.0285C345.271 69.4529 344.125 57.8157 346.358 46.5886C348.591 35.3615 354.103 25.0488 362.198 16.9545C370.292 8.86026 380.605 3.34802 391.832 1.11481C403.059 -1.11839 414.696 0.0277409 425.272 4.40833C435.847 8.78891 444.886 16.2072 451.246 25.725C457.606 35.2429 461 46.4329 461 57.8799C460.983 73.2245 454.879 87.9357 444.029 98.7861C433.179 109.636 418.468 115.74 403.123 115.757Z" fill="white"/>
</svg>
