<svg width="313" height="287" viewBox="0 0 313 287" fill="none" xmlns="http://www.w3.org/2000/svg">
<path fill-rule="evenodd" clip-rule="evenodd" d="M161.398 212.279C175.039 203.093 200.29 201.493 195.658 181.447C191.133 161.182 174.122 160.439 142.729 142.145C112.209 122.041 119.908 107.999 74.8805 106.11C31.9313 106.128 45.0055 168.015 13.3633 158.458C-18.2789 148.902 17.3032 227.943 22.9311 233.794C32.8293 244.084 58.8954 256.362 71.6096 254.621C81.2649 253.334 112.328 246.186 127.536 238.768C142.392 231.845 143.998 224.609 161.398 212.279Z" fill="#B2DF4B"/>
<path d="M305.2 14.1636L305.298 14.1662C306.115 14.2146 306.739 14.9164 306.69 15.7338L306.527 18.5619L306.423 20.4539C305.337 40.5417 302.759 57.6161 303.365 71.6727L303.458 73.7079C304.185 88.8549 308.048 110.269 311.955 142.626C312.298 142.867 312.538 143.249 312.581 143.698C312.66 144.513 312.063 145.238 311.248 145.317C292.151 147.168 274.382 148.399 257.94 149.012L255.694 149.092L253.126 149.176C236.504 149.692 213.105 149.942 182.925 149.927C182.106 149.927 181.443 149.263 181.443 148.444C181.443 148.053 170.901 18.4308 170.901 18.4308C170.901 18.4308 304.795 14.1659 305.2 14.1636Z" fill="white"/>
<path d="M279.36 258.404L280.292 258.5C293.543 259.886 302.242 261.886 306.255 264.4L306.505 264.562C309.586 266.61 309.198 268.743 304.769 272.147C299.926 275.869 288.023 279.376 270.214 281.517C247.918 284.197 217.943 284.629 180.299 282.298L176.352 282.053C154.62 280.735 137.945 280.379 107.086 280.212L98.5667 280.163C80.1942 280.035 72.3851 279.781 64.8466 278.973L64.1298 278.894C54.6789 277.813 49.4559 275.838 47.706 272.742L47.642 272.626C47.6087 272.563 47.6085 272.564 47.8624 272.307C48.3707 271.792 49.4132 271.191 50.964 270.566L51.3659 270.408C54.7271 269.115 60.0398 267.79 67.2719 266.45L68.6417 266.2C83.08 263.607 104.612 260.97 133.222 258.295L137.824 257.869L141.752 257.726C206.132 255.419 252.013 255.647 279.36 258.404Z" fill="white"/>
<path fill-rule="evenodd" clip-rule="evenodd" d="M249.514 14.4728C250.068 13.8701 251.006 13.8309 251.608 14.3852C252.211 14.9395 252.25 15.8775 251.696 16.4801C251.696 16.4801 184.254 93.1458 183.64 91.0123C183.302 89.8383 211.665 55.7614 216.126 51.1679L217.363 49.9168C219.456 47.7447 229.814 35.8907 249.514 14.4728Z" fill="#E7EAEE"/>
<path fill-rule="evenodd" clip-rule="evenodd" d="M215.572 31.2916C216.244 30.8229 217.168 30.9872 217.637 31.6586C218.106 32.33 217.941 33.2542 217.27 33.7229C215.034 35.2842 180.155 70.4698 179.414 70.1896C178.673 69.9095 182.248 65.7289 182.248 65.7289C184.533 63.338 204.947 41.6432 204.947 41.6432C206.662 39.8131 208.247 38.163 209.763 36.635C211.264 35.1223 213.2 32.9481 215.572 31.2916Z" fill="#E7EAEE"/>
<path fill-rule="evenodd" clip-rule="evenodd" d="M249.707 258.404L250.639 258.5C263.89 259.886 272.59 261.886 276.602 264.4L276.853 264.562C279.934 266.61 279.545 268.743 275.116 272.147C270.274 275.869 217.943 279.292 180.299 276.961L176.352 276.716C154.62 275.398 137.945 271.484 107.086 271.316L98.5667 271.267C80.1942 271.139 72.3851 279.781 64.8466 278.973L64.1298 278.894C54.6789 277.813 49.4559 275.838 47.706 272.742L47.642 272.626C47.6087 272.563 47.6085 272.564 47.8624 272.307C48.3707 271.792 49.4132 271.191 50.964 270.566L51.3659 270.408C54.7271 269.115 60.0398 267.79 67.2719 266.45L68.6417 266.2C83.08 263.607 104.612 260.97 133.222 258.295L137.824 257.869L141.752 257.726C206.132 255.419 222.361 255.647 249.707 258.404Z" fill="#E7EAEE"/>
<path d="M74.0331 147.555C74.4948 148.765 90.2487 150.663 98.883 155.766C102.194 157.723 104.701 166.193 104.538 166.353C100.624 170.214 98.497 172.181 96.3899 173.367C88.9828 177.535 83.274 176.451 77.7467 175.579C71.1025 174.531 67.1547 167.237 69.7451 161.181C70.151 160.232 71.1739 158.846 72.867 156.895L73.0924 156.639C73.0855 156.569 73.0864 156.498 73.0949 156.425C73.1723 155.772 73.182 155.101 73.1235 154.413L72.9925 153.179C72.8378 151.8 72.5386 149.461 72.0938 148.295C71.8895 147.759 72.158 147.159 72.6935 146.955C73.2291 146.751 73.8288 147.019 74.0331 147.555Z" fill="white"/>
<path d="M110.411 163.011C110.41 162.761 110.472 162.508 110.605 162.276C110.835 161.872 111.226 161.617 111.652 161.547C111.751 161.457 111.819 161.426 111.857 161.462L111.921 161.527C112.161 161.532 112.404 161.594 112.627 161.721L116.988 164.198C126.027 169.366 135.744 177.053 136.682 182.889C137.744 189.502 130.82 223.917 130.019 223.744C129.219 223.57 114.219 257.656 114.211 257.749C114.181 258.059 100.847 258.554 86.819 260.055C81.9166 260.58 94.6482 243.476 99.438 231.384C107.652 210.648 110.411 163.011 110.411 163.011Z" fill="white"/>
<path d="M217.974 179.922C212.681 178.768 206.532 179.348 199.506 181.692C193.755 183.61 190.606 186.295 189.821 189.727L189.776 189.932L190.002 190.024C194.698 191.918 199.079 192.398 203.179 191.49L203.479 191.421C206.317 190.743 208.624 189.151 211.361 186.322L211.739 185.926C212.384 185.24 213.903 183.575 214.09 183.375C215.062 182.334 215.806 181.615 216.558 181.028L216.721 180.903C217.102 180.617 217.564 180.34 218.111 180.07L218.275 179.99L217.974 179.922Z" fill="white"/>
<path d="M165.88 171.769C162.114 170.6 157.647 170.464 152.472 171.383L152.229 171.427L152.282 171.533C154.572 176.126 156.648 178.953 158.382 179.978L158.49 180.04C160.235 181.003 164.39 181.072 170.763 180.121L171.706 179.976L171.683 179.896C171.659 179.806 171.643 179.711 171.637 179.615L171.634 179.517C171.634 175.467 169.793 172.985 165.88 171.769Z" fill="white"/>
<path d="M122.904 150.281C122.799 151.125 123.156 154.226 121.964 155.658C121.491 156.225 120.362 156.632 119.625 156.274C119.299 156.116 120.315 154.701 120.932 153.102C121.17 152.484 120.751 151.737 120.932 151.146C121.089 150.63 121.853 150.258 121.964 149.87C122.139 149.253 122.974 149.724 122.904 150.281Z" fill="white"/>
<path d="M124.967 146.66C124.861 147.503 127.365 151.433 126.115 152.693C123.989 154.834 121.946 151.079 122.562 149.48C122.801 148.862 122.814 148.115 122.994 147.525C123.152 147.008 125.036 146.102 124.967 146.66Z" fill="white"/>
<path d="M148.076 208.716C147.614 210.448 147.223 220.61 149.428 226.347C150.235 228.446 151.42 229.985 153.023 230.582C154.37 231.063 155.771 231.362 157.201 231.56C160.285 231.985 183.844 233.989 194.42 232.607C204.996 231.224 204.398 231.096 209.232 230.239C211.571 229.824 214.246 229.383 216.637 228.445C218.398 227.756 220.006 226.8 221.265 225.439C222.393 224.223 223.09 222.156 223.297 219.843C223.561 216.905 223.111 213.02 222.67 211.064C222.67 210.955 222.646 210.914 222.67 210.88C222.779 210.72 221.355 209.926 216.637 209.731C208.548 209.397 195.934 210.029 183.713 209.903C167.036 209.73 151.097 208.202 148.455 208.48C148.212 208.505 148.085 208.683 148.076 208.716Z" fill="white"/>
<path d="M72.3202 154.473C73.139 154.468 73.8075 155.127 73.8138 155.945C73.8144 156.031 73.8076 156.115 73.7942 156.197L73.9214 156.115C74.6329 155.675 75.5135 155.453 75.3252 156.529C75.0627 158.029 71.3062 159.774 71.3062 162.661C71.3062 166.947 72.9589 171.049 78.9034 172.764C95.5523 177.566 103.775 169.054 106.853 165.383C106.851 165.134 106.914 164.881 107.046 164.648C107.276 164.244 107.668 163.99 108.093 163.919C108.193 163.829 108.26 163.798 108.299 163.835L108.363 163.899C108.603 163.904 108.845 163.967 109.068 164.094L113.429 166.57C122.469 171.739 132.186 179.425 133.123 185.261C134.186 191.875 127.261 226.289 126.461 226.116C125.661 225.942 110.661 260.029 110.652 260.121C110.612 260.54 86.3431 261.294 68.8379 264.405C57.3586 266.445 49.8883 270.272 49.6467 270.488C49.0367 271.034 48.3278 271.98 47.7817 271.37C44.115 267.274 43.1375 255.764 44.5538 238.823L43.8122 238.747C28.6399 237.214 21.1557 232.947 21.6652 223.339C22.9149 199.767 29.551 181.295 37.2708 169.857C44.1251 159.701 55.0743 154.596 72.3202 154.473Z" fill="white"/>
<path fill-rule="evenodd" clip-rule="evenodd" d="M106.853 165.383C106.851 165.134 106.914 164.881 107.046 164.648C107.276 164.244 107.668 163.99 108.093 163.919C108.193 163.829 108.26 163.798 108.299 163.834L108.363 163.899C108.603 163.904 108.845 163.967 109.068 164.094L113.429 166.57C122.469 171.739 132.186 179.425 133.123 185.261C134.186 191.875 127.261 226.289 126.461 226.116C125.661 225.942 110.661 260.029 110.652 260.121C110.623 260.431 97.2883 260.926 83.2607 262.427C78.3583 262.952 91.0899 245.848 95.8797 233.756C104.094 213.02 106.853 165.383 106.853 165.383Z" fill="#E7EAEE"/>
<path d="M107.632 164.899C107.661 165.717 106.968 166.403 106.149 166.382C102.059 166.278 101.408 159.245 101.801 159.216C102.344 159.177 103.272 162.518 105.098 163.735C106.491 164.663 107.552 162.645 107.632 164.899Z" fill="white"/>
<path d="M70.5598 146.11C71.1255 145.433 72.1824 146.034 72.552 146.764C72.9216 147.495 72.6289 148.387 71.8983 148.756C68.1697 150.643 63.2051 149.943 60.1465 147.325C54.8334 142.777 54.6159 130.975 54.6159 127.452C54.6159 126.982 60.6784 127.537 63.1931 130.826C67.6528 136.66 69.8307 146.984 70.5598 146.11Z" fill="white"/>
<path d="M70.163 114.058L70.2198 113.745C70.2673 113.468 70.2666 113.168 70.1244 111.678L69.6504 107.018C69.5607 106.129 69.4889 105.362 69.4266 104.615L69.3775 104.007C68.9502 98.5173 69.156 95.3975 70.6383 93.947C74.8224 89.8531 77.1342 89.9413 81.4919 91.3536L82.4053 91.6507C84.3418 92.2635 85.3119 91.7895 86.6362 91.4786L87.0194 91.3916C90.0899 90.719 93.29 90.5946 96.9695 90.9144C99.1213 91.1015 100.453 91.2782 103.868 91.8653L107.901 92.5717C110.425 93.0159 112.125 93.2924 113.925 93.5377L114.322 93.5888C117.206 93.938 119.554 93.7288 122.387 93.0895C122.446 93.0763 123.971 92.7165 124.569 92.588L124.931 92.5159C125.492 92.4114 125.967 92.3564 126.409 92.3564L126.479 92.3176C130.803 90.074 134.918 83.0657 134.579 77.445C134.158 70.4704 127.533 66.044 113.306 65.9561L112.614 65.9534C110.264 65.928 108.547 65.5391 103.615 64.0277L101.181 63.2759C96.9558 61.9817 94.4103 61.3931 91.6842 61.2101C91.2149 61.1787 90.7548 61.1627 90.303 61.1627C71.4032 61.1627 52.7852 77.2663 50.2229 92.3176C49.7576 95.0504 51.8651 107.107 52.6271 113.1C52.6271 113.1 59.9692 113.181 63.5434 113.696C63.8843 113.745 66.782 120.062 68.5379 120.062C70.1244 120.062 70.163 114.058 70.163 114.058Z" fill="white"/>
<path d="M81.0322 93.7302C83.6666 94.5964 85.1134 94.8426 87.1058 94.4122L87.8373 94.2466C92.5613 93.2143 96.1782 93.5259 106.284 95.2978L108.708 95.7221C110.58 96.044 112.015 96.27 113.524 96.4758C116.85 96.9292 119.537 96.7391 122.649 96.0683L125.825 95.3577C126.372 95.2439 126.305 95.2867 126.502 95.3184L126.594 95.3297C127.01 95.3683 128.421 95.5805 128.753 96.5387C130.795 102.438 131.388 116.52 129.219 128.112C126.275 143.852 117.827 154.642 105.753 157.919C87.3546 162.914 73.5225 153.424 63.9469 128.916L63.6522 128.161L62.8586 128.002L62.2923 127.884C53.1778 125.931 50.0995 122.428 53.1806 116.725C54.7238 113.869 56.8377 112.984 58.5994 113.582C60.7431 114.309 63.4439 117.111 66.5299 122.005L66.5644 122.057C67.9179 124.016 69.7964 123.265 70.7508 121.186C71.3462 119.889 71.912 117.72 72.4823 114.616L72.5969 113.982C72.6936 113.388 72.6483 112.914 72.1516 108.118L71.9756 106.401C71.9127 105.767 71.8593 105.195 71.8118 104.643L71.7885 104.368C71.5936 102.032 71.522 100.171 71.5953 98.7086C71.6698 97.2222 71.9085 96.2725 72.1191 96.0665L72.4714 95.7272C75.5322 92.8294 77.2674 92.5396 80.3989 93.5243L81.0322 93.7302Z" fill="white"/>
<path fill-rule="evenodd" clip-rule="evenodd" d="M129.219 128.112C126.275 143.852 117.827 154.642 105.753 157.92C102.24 158.873 112.416 155.102 117.776 148.322C125.127 139.025 129.262 125.258 129.943 121.088C132.004 108.474 131.388 116.52 129.219 128.112Z" fill="#E7EAEE"/>
<path fill-rule="evenodd" clip-rule="evenodd" d="M70.7508 121.186C71.3462 119.889 71.912 117.72 72.4823 114.616L72.5969 113.982C72.6936 113.388 72.6484 112.914 72.1516 108.118L71.9756 106.401C71.9127 105.767 71.8593 105.195 71.8118 104.643L71.7885 104.368C71.5936 102.032 71.522 100.171 71.5953 98.7086C71.6698 97.2222 71.9085 96.2725 72.1191 96.0665L72.4714 95.7272C75.5322 92.8294 77.2674 92.5396 80.3989 93.5243L81.0322 93.7302C83.6666 94.5964 85.1134 94.8426 87.1059 94.4122L87.8373 94.2466C92.5613 93.2143 96.1782 93.5259 106.284 95.2978L108.708 95.7221C110.58 96.044 112.015 96.27 113.524 96.4758C116.85 96.9292 119.537 96.7391 122.649 96.0683L125.825 95.3577C126.372 95.2439 126.305 95.2867 126.502 95.3184L126.594 95.3297C127.01 95.3683 128.421 95.5805 128.753 96.5387C128.753 96.5387 127.467 97.5807 126.502 97.6517C118.101 98.2697 111.993 99.7359 105.5 100.358C95.2614 101.338 86.1048 101.674 81.0322 104.368C78.5812 105.67 75.9789 119.093 72.712 123.643C70.8614 126.22 70.7508 121.186 70.7508 121.186Z" fill="#E7EAEE"/>
<path fill-rule="evenodd" clip-rule="evenodd" d="M148.242 226.347C149.049 228.446 150.234 229.985 151.837 230.582C153.184 231.063 154.585 231.362 156.015 231.56C159.098 231.985 182.658 233.989 193.234 232.607C203.81 231.224 203.212 231.096 208.046 230.239C210.385 229.824 213.06 229.383 215.451 228.445C217.212 227.756 218.82 226.8 220.079 225.439C221.207 224.223 221.903 222.156 222.111 219.843C222.375 216.905 221.925 213.02 221.484 211.064C221.386 210.539 219.625 210.92 219.722 211.445C219.986 213.263 220.068 216.87 219.724 219.54C219.512 221.195 219.188 222.732 218.376 223.605C217.359 224.699 216.048 225.446 214.626 226.004C212.376 226.891 209.855 227.306 207.654 227.705C202.885 228.575 198.43 229.705 178.675 230.239C175.471 230.326 159.425 229.497 156.319 229.051C155.04 228.869 153.786 228.606 152.582 228.172C151.176 227.696 150.437 225.953 149.781 223.997C148.988 221.634 147.147 213.192 148.242 211.377C148.65 210.701 151.597 210.848 153.44 211.044C159.347 211.669 170.184 211.921 180.699 212.038C192.276 212.166 219.88 212.172 219.88 211.641C219.88 211.163 220.977 211.044 221.484 211.064C221.647 211.071 220.565 209.731 215.451 209.731C207.301 209.731 194.748 210.029 182.527 209.903C165.85 209.73 149.911 208.202 147.268 208.48C147.212 208.486 147.159 208.49 147.109 208.493C145.176 208.607 146.037 220.61 148.242 226.347Z" fill="#00160A"/>
<path fill-rule="evenodd" clip-rule="evenodd" d="M152.156 214.787C152.238 214.184 152.935 212.871 153.221 213.561C153.73 214.787 153.212 222.972 158.008 223.823C158.813 223.966 160.93 224.271 160.93 224.947C160.93 225.622 160.602 226.641 158.846 226.165C155.747 225.324 153.974 223.588 152.888 220.834C152.115 218.875 151.91 216.58 152.156 214.787Z" fill="#00160A"/>
<path fill-rule="evenodd" clip-rule="evenodd" d="M45.2355 194.633L45.2369 194.647C45.2376 194.76 45.3768 194.914 45.4014 195.246C45.5064 196.658 44.9072 199.982 44.8012 201.032C44.5234 203.492 44.0381 206.566 43.9509 209.504C43.8948 211.402 43.995 213.242 44.5347 214.802C45.6569 218.16 48.2466 220.226 51.3757 221.546C54.1747 222.73 57.4142 223.25 60.5217 223.622C62.7882 223.893 64.9754 224.118 66.9149 224.228C67.2464 224.228 67.5155 224.498 67.5155 224.83C67.5155 225.161 67.2464 225.428 66.9149 225.428C64.933 225.541 62.6822 225.678 60.3535 225.548C57.0223 225.363 53.5686 224.696 50.5764 223.458C46.8809 221.926 43.8976 219.412 42.5798 215.452C42.0059 213.663 41.8708 211.563 42.023 209.405C42.234 206.416 42.9608 203.321 43.391 200.831C43.5843 199.788 43.9331 196.405 44.4721 195.092C44.7358 194.445 45.1911 194.367 45.2061 194.404C45.2687 194.466 45.2786 194.562 45.2355 194.633Z" fill="#00160A"/>
<path fill-rule="evenodd" clip-rule="evenodd" d="M75.1229 218.832L73.3253 219.119C72.7596 219.237 72.1156 219.467 71.5766 219.818C71.1778 220.079 70.8501 220.417 70.6282 220.812C70.5245 221.001 70.465 221.192 70.4233 221.381C70.345 221.74 70.3669 222.102 70.3039 222.486C70.2533 222.79 70.2355 223.089 70.2458 223.389C70.2598 223.8 70.3289 224.207 70.3717 224.62C70.4657 225.272 70.4955 225.897 70.7503 226.474C70.8652 226.733 71.0198 226.964 71.2171 227.201C71.3108 227.37 71.5235 227.431 71.6922 227.337C71.8608 227.243 71.9216 227.03 71.8279 226.862C71.8279 226.862 70.6597 221.444 72.0826 220.546C73.5056 219.648 74.2949 219.765 74.7111 219.662C74.8814 219.62 75.2522 219.164 75.2734 219.059C75.2946 218.955 75.2272 218.853 75.1229 218.832Z" fill="#00160A"/>
<path fill-rule="evenodd" clip-rule="evenodd" d="M75.0627 219.038L75.2597 219.444C75.323 219.709 75.3329 220.016 75.3397 220.311C75.3459 220.571 75.3743 220.825 75.2111 221.039C75.1229 221.127 75.1229 221.27 75.2111 221.358C75.2994 221.446 75.4423 221.446 75.5306 221.358C75.8196 221.158 75.9964 220.875 76.0494 220.545C76.1181 220.115 75.9331 219.649 75.7724 219.274C75.719 219.154 75.5155 218.859 75.3059 218.737C75.139 218.64 74.9772 218.615 74.8503 218.716C74.7617 218.774 74.7371 218.894 74.7956 218.983C74.8544 219.072 74.9741 219.096 75.0627 219.038Z" fill="#00160A"/>
<path fill-rule="evenodd" clip-rule="evenodd" d="M74.8231 221.103C74.6683 221.192 74.5246 221.282 74.4683 221.308C73.9228 221.556 73.6105 222.099 73.5267 222.748C73.4251 223.537 73.7141 224.452 73.8821 225.014C73.9303 225.208 74.1273 225.326 74.3212 225.277C74.5151 225.229 74.6331 225.032 74.5845 224.838C74.4563 224.261 74.3174 223.284 74.4573 222.535C74.5103 222.252 74.5548 221.985 74.773 221.815C74.773 221.815 74.9279 221.043 74.8231 221.103Z" fill="#00160A"/>
<path fill-rule="evenodd" clip-rule="evenodd" d="M71.0339 222.07C71.3606 222.436 71.3279 222.999 70.961 223.325C70.4031 223.822 69.914 224.201 69.4858 224.464L69.277 224.587C68.912 224.794 68.4262 225.033 67.8142 225.306C67.7381 225.341 67.0309 225.564 66.7732 225.364C66.6366 225.258 66.4861 225.133 66.4075 224.954C66.3709 224.871 66.4956 224.706 66.7253 224.496C67.1081 224.146 68.1263 223.958 68.8301 223.518C69.9816 222.797 70.8687 221.884 71.0339 222.07Z" fill="#00160A"/>
<path fill-rule="evenodd" clip-rule="evenodd" d="M74.1926 230.46C74.5405 230.113 75.1037 230.114 75.4506 230.462C76.9714 231.987 77.4243 233.448 76.438 234.652C75.8079 235.421 74.9112 236.093 73.6399 236.602C73.0467 236.84 73.1185 236.952 71.5712 237.291C71.0913 237.396 70.6169 237.093 70.5116 236.613C70.4062 236.133 70.7099 235.659 71.1897 235.553L71.8127 235.413C72.9286 235.157 74.6181 234.066 75.0619 233.524C75.3146 233.216 75.148 232.678 74.1908 231.718C73.8439 231.37 73.8447 230.807 74.1926 230.46Z" fill="#00160A"/>
<path fill-rule="evenodd" clip-rule="evenodd" d="M97.061 216.118C97.2685 220.204 97.3528 222.658 97.314 223.479C97.2066 225.709 96.7989 228.568 95.8125 231.058C95.0981 232.86 94.0597 234.447 92.7307 235.541C91.8278 236.246 89.918 237.619 84.2566 237.227C72.8882 236.441 74.6937 217.165 74.7638 216.885C74.8343 216.604 75.1295 215.517 75.4106 215.585C75.9209 215.667 73.9434 235.689 83.9526 235.825C84.7296 235.836 85.4944 235.729 86.2779 235.627C87.3635 235.545 88.5055 235.299 89.5626 234.888C90.2247 234.632 90.8544 234.307 91.3927 233.866C92.4971 233.01 93.3158 231.707 93.967 230.274C94.9934 228.014 95.7402 225.423 95.9841 223.368C96.1134 222.294 96.3994 215.773 96.3994 215.773C96.5494 215.256 97.0553 216.004 97.061 216.118Z" fill="#00160A"/>
<path fill-rule="evenodd" clip-rule="evenodd" d="M85.9865 213.776L86.4958 213.779C92.3187 213.837 96.9579 214.875 96.9579 216.149C96.9579 217.459 94.7667 219.944 88.7073 219.944L88.1981 219.942C80.0571 220.282 75.0151 217.422 75.0151 216.149C75.0151 214.839 79.9272 213.776 85.9865 213.776Z" fill="#00160A"/>
<path fill-rule="evenodd" clip-rule="evenodd" d="M85.9865 214.37L85.4933 214.372C80.094 214.43 75.6082 215.421 75.6082 216.149C75.6082 216.898 80.37 218.521 85.9865 218.521L86.4798 218.518C91.879 218.461 96.3649 216.876 96.3649 216.149C96.3649 215.399 91.603 214.37 85.9865 214.37Z" fill="white"/>
<path fill-rule="evenodd" clip-rule="evenodd" d="M94.5145 137.225C94.7861 137.604 95.1218 137.953 95.518 138.259C95.9361 138.585 96.422 138.788 96.9065 138.931C97.8521 139.184 98.7854 139.437 99.7502 139.595C102.721 140.079 110.166 140.893 110.898 141.029C111.391 141.174 111.909 140.889 112.052 140.394C112.195 139.9 111.909 139.382 111.416 139.238C110.672 138.94 109.935 138.658 109.167 138.461C108.029 138.167 106.86 138.03 105.695 137.895C103.71 137.659 101.718 137.463 99.7225 137.34C98.8747 137.29 98.0387 137.303 97.1911 137.245C96.9288 137.235 96.6651 137.197 96.4041 137.112C95.9575 136.971 95.5263 136.804 95.1636 136.557L94.1961 135.833C94.0908 135.831 94.0043 135.919 94.0046 136.026C94.005 136.133 94.4407 137.11 94.5145 137.225Z" fill="#00160A"/>
<path fill-rule="evenodd" clip-rule="evenodd" d="M103.817 144.32C104.321 144.864 105.15 145.319 106.064 145.456C106.99 145.589 107.943 145.363 108.587 145.004C108.786 144.905 108.866 144.662 108.767 144.464C108.668 144.265 108.426 144.187 108.228 144.286C107.787 144.477 107.198 144.508 106.592 144.481C106.338 144.467 106.081 144.433 105.826 144.412C105.16 144.351 104.526 144.3 104.063 144.023C103.98 143.958 103.859 143.968 103.791 144.05C103.723 144.132 103.735 144.252 103.817 144.32Z" fill="#00160A"/>
<path fill-rule="evenodd" clip-rule="evenodd" d="M305.298 14.1662C306.115 14.2146 306.739 14.9164 306.69 15.7338L306.527 18.5619C305.353 39.4716 305.079 57.1768 305.703 71.6727L305.732 72.3197C306.42 87.5553 308.103 109.035 311.956 142.627C312.298 142.867 312.538 143.249 312.581 143.698C312.66 144.513 312.063 145.238 311.248 145.317C292.151 147.168 274.382 148.399 257.94 149.012L255.694 149.092C238.948 149.665 214.694 149.943 182.925 149.927C182.106 149.927 181.442 149.263 181.443 148.444C181.443 147.625 182.107 146.962 182.926 146.962L189.612 146.961C218.711 146.936 241.044 146.647 256.604 146.094L259.003 146.004C274.481 145.402 291.138 144.253 308.973 142.557C308.343 136.221 303.43 86.5874 302.791 72.9171L302.769 72.4536C302.074 57.0793 302.395 38.1162 303.73 15.5586C303.777 14.7739 304.425 14.168 305.2 14.1636L305.298 14.1662ZM169.234 17.158C170.046 17.0494 170.792 17.6192 170.901 18.4308L171.438 22.4709C174.673 46.977 176.815 66.4566 177.865 80.9162L177.964 82.3147C179.027 97.6741 179.689 119.962 179.952 149.189C179.959 150.008 179.301 150.677 178.483 150.685C177.664 150.692 176.994 150.034 176.987 149.215L176.944 144.892C176.667 118.692 176.052 98.3632 175.1 83.9142L175.006 82.5194C173.948 67.2324 171.599 45.9979 167.962 18.8243C167.853 18.0127 168.423 17.2667 169.234 17.158Z" fill="#00160A"/>
<path fill-rule="evenodd" clip-rule="evenodd" d="M70.3589 154.488C71.1777 154.483 71.8462 155.142 71.852 155.96C71.8579 156.779 71.1988 157.448 70.38 157.454C54.0306 157.57 42.8211 162.286 36.5812 171.531C29.1856 182.488 22.2122 200.369 22.665 223.511C23.0019 240.729 59.2123 237.996 67.8942 237.536C69.0534 237.474 69.8431 238.091 69.8343 238.184C69.7683 238.877 69.2179 239.449 68.4983 239.518C57.9184 240.521 49.0251 239.487 41.8509 238.762C26.6786 237.229 19.1945 232.962 19.7039 223.354C20.9536 199.782 27.5897 181.31 35.3095 169.872C42.1639 159.716 53.113 154.611 70.3589 154.488Z" fill="#00160A"/>
<path fill-rule="evenodd" clip-rule="evenodd" d="M70.6383 93.947C69.156 95.3975 68.9502 98.5174 69.3775 104.007L69.4266 104.615C69.4889 105.362 69.5607 106.129 69.6504 107.018L70.1244 111.678C70.2666 113.168 70.2673 113.468 70.2198 113.745L70.163 114.058C69.7574 116.268 68.7668 118.542 68.3929 119.666L68.3137 119.895L68.269 119.826C65.1501 115.119 62.2895 111.702 59.5518 110.774C56.2086 109.64 53.3252 111.317 51.1648 115.316L51.0394 115.552C47.1067 123.08 51.4452 127.738 61.8695 130.102L62.0725 130.147L62.3887 130.93C72.4645 155.602 86.8801 166.115 106.53 160.781C119.907 157.15 127.816 145.399 130.948 128.657C133.206 116.587 132.591 101.99 130.369 95.5688C129.685 93.594 128.561 92.5343 126.868 92.3772C126.291 92.3237 125.69 92.3745 124.931 92.5159L124.569 92.588C123.971 92.7165 122.446 93.0763 122.387 93.0895C119.554 93.7288 117.206 93.938 114.322 93.5888L113.925 93.5377C112.125 93.2924 110.425 93.0159 107.901 92.5717L103.868 91.8653C100.453 91.2783 99.1213 91.1015 96.9695 90.9144C93.29 90.5946 90.0899 90.719 87.0194 91.3916L86.6362 91.4786C85.3119 91.7895 84.3418 92.2635 82.4053 91.6508L81.4919 91.3537C77.1342 89.9413 74.8224 89.8531 70.6383 93.947ZM81.0322 93.7303C83.6665 94.5965 85.1134 94.8426 87.1058 94.4123L87.8373 94.2466C92.5613 93.2143 96.1782 93.5259 106.284 95.2978L108.708 95.7222C110.58 96.044 112.015 96.27 113.524 96.4758C116.85 96.9292 119.537 96.7392 122.649 96.0684L125.825 95.3578C126.372 95.2439 126.305 95.2867 126.502 95.3184L126.594 95.3298C127.01 95.3684 128.421 95.5805 128.753 96.5387C130.795 102.438 131.388 116.52 129.219 128.112C126.275 143.852 117.827 154.642 105.753 157.92C87.3546 162.914 73.5225 153.424 63.9469 128.916L63.6522 128.161L62.8586 128.002L62.2922 127.884C53.1778 125.931 50.0995 122.428 53.1806 116.726C54.7238 113.869 56.8376 112.985 58.5994 113.582C60.7431 114.309 63.4439 117.111 66.5299 122.005L66.5644 122.058C67.9179 124.016 69.7964 123.265 70.7507 121.186C71.3462 119.889 71.912 117.72 72.4823 114.616L72.5969 113.982C72.6936 113.388 72.6483 112.914 72.1516 108.118L71.9756 106.401C71.9127 105.767 71.8592 105.195 71.8117 104.643L71.7885 104.368C71.5936 102.032 71.522 100.172 71.5953 98.7086C71.6698 97.2222 71.9085 96.2725 72.1191 96.0665L72.4714 95.7272C75.5322 92.8294 77.2674 92.5396 80.3989 93.5243L81.0322 93.7303Z" fill="#00160A"/>
<path fill-rule="evenodd" clip-rule="evenodd" d="M90.303 58.1975C90.8222 58.1975 91.3484 58.2157 91.8827 58.2516C94.8926 58.4536 97.6068 59.0803 102.029 60.4344L104.678 61.2518C109.287 62.6595 110.819 62.9896 112.873 62.9896C128.795 62.9896 137.003 68.3907 137.539 77.2664C137.95 84.0745 133.194 92.1743 127.844 94.9497C127.118 95.3268 126.223 95.0433 125.846 94.3165C125.469 93.5896 125.752 92.6947 126.479 92.3176C130.803 90.074 134.918 83.0657 134.579 77.445C134.158 70.4705 127.533 66.044 113.306 65.9562L112.614 65.9535C110.264 65.928 108.547 65.5392 103.615 64.0277L101.181 63.2759C96.9559 61.9817 94.4103 61.3931 91.6842 61.2102C91.2149 61.1787 90.7548 61.1628 90.303 61.1628C71.4032 61.1628 52.7852 77.2664 50.2229 92.3176C49.5998 95.9774 53.5908 116.358 52.7852 116.505C51.9797 116.652 51.2076 116.118 51.0606 115.313L50.8872 114.346C49.1686 104.604 47.3151 95.8067 48.3746 91.1957C52.6641 72.5276 69.9983 58.1975 90.303 58.1975Z" fill="#00160A"/>
<path fill-rule="evenodd" clip-rule="evenodd" d="M111.313 101.305C112.204 101.305 112.628 103.295 112.473 103.805C111.799 106.021 113.487 118.649 114.737 121.911L114.796 122.062C116.611 126.578 113.97 129.5 107.988 130.314C107.177 130.424 106.43 129.856 106.319 129.045C106.285 128.792 106.507 128.121 107.065 128.17C111.174 128.528 114.155 125.004 113.276 122.689L113.163 122.402C111.728 118.673 110.114 110.533 110.114 102.809C110.114 101.989 110.533 101.305 111.313 101.305Z" fill="#00160A"/>
<path fill-rule="evenodd" clip-rule="evenodd" d="M54.6159 127.452C55.0431 128.489 54.6957 138.865 60.1465 144.49C64.4779 148.96 69.4038 147.495 70.5598 146.11C71.1255 145.433 72.1824 146.034 72.552 146.764C72.9216 147.495 72.6289 148.387 71.8983 148.756C68.1697 150.643 63.2051 149.943 60.1465 147.325C54.8334 142.777 53.6742 132.848 53.6742 129.325C53.6742 128.021 54.2354 126.528 54.6159 127.452Z" fill="#00160A"/>
<path fill-rule="evenodd" clip-rule="evenodd" d="M116.301 114.493C116.819 113.715 117.576 113.624 118.343 113.942C119.09 114.252 119.825 115.053 120.065 115.591C120.419 116.391 120.424 117.699 120.138 118.943C119.846 120.218 119.259 121.404 118.622 121.939C118.017 122.443 117.51 122.647 116.968 121.847C114.899 118.793 116.102 114.793 116.301 114.493Z" fill="#00160A"/>
<path fill-rule="evenodd" clip-rule="evenodd" d="M93.1532 117.448C92.9286 116.624 92.9435 112.36 94.555 112.36C96.9514 112.36 97.2571 116.798 96.9497 117.694C95.2168 122.744 93.3778 118.273 93.1532 117.448Z" fill="#00160A"/>
<path fill-rule="evenodd" clip-rule="evenodd" d="M113.682 71.549C113.212 70.9005 115.067 70.7007 115.743 71.1633C121.398 75.0352 124.303 78.7377 124.253 82.4304C124.203 86.0571 121.26 90.1078 115.555 94.7806C114.922 95.2994 113.988 95.2065 113.469 94.5731C112.95 93.9396 120.882 88.8446 121.288 82.39C121.693 75.9354 114.563 72.7659 113.682 71.549Z" fill="#00160A"/>
<path fill-rule="evenodd" clip-rule="evenodd" d="M122.467 69.9807C122.225 68.9289 123.758 68.9946 124.477 69.3853C129.041 71.8636 131.39 75.7054 131.39 80.7253C131.39 85.6425 128.065 89.9258 123.049 94.8866C122.467 95.4624 121.528 95.4572 120.952 94.875C120.377 94.2928 129.049 88.2176 129.049 79.4589C129.049 70.7003 122.795 71.4086 122.467 69.9807Z" fill="#00160A"/>
<ellipse cx="120.976" cy="128.081" rx="5.63396" ry="2.07567" fill="#AD2CFC"/>
<path fill-rule="evenodd" clip-rule="evenodd" d="M114.927 103.076C116.268 102.597 118.118 102.892 120.535 103.884C120.946 104.053 121.346 104.273 121.782 104.561L122.085 104.772C122.647 105.172 123.603 105.884 123.789 106.014C124.396 106.44 124.948 106.775 125.545 107.063C126.114 107.339 127.042 107.592 128.309 107.808C128.793 107.891 129.119 108.351 129.036 108.835C128.954 109.319 123.447 108.541 122.767 108.064L121.367 107.04C121.122 106.862 120.912 106.712 120.802 106.639C120.455 106.41 120.153 106.243 119.86 106.123C117.887 105.313 116.456 105.067 115.617 105.315L115.526 105.345C113.775 104.913 114.465 103.242 114.927 103.076Z" fill="#00160A"/>
<path fill-rule="evenodd" clip-rule="evenodd" d="M70.9144 146.955C71.4499 146.751 72.0497 147.019 72.254 147.555C72.8927 149.229 73.2681 152.91 73.3778 153.885C73.4844 154.833 73.4844 155.762 73.3771 156.669C73.3097 157.238 72.7937 157.645 72.2245 157.578C71.6552 157.511 71.2484 156.995 71.3158 156.425C71.4042 155.678 71.4042 154.909 71.3151 154.117C71.229 153.352 70.8963 149.819 70.3147 148.295C70.1104 147.759 70.3789 147.159 70.9144 146.955Z" fill="#00160A"/>
<path fill-rule="evenodd" clip-rule="evenodd" d="M71.2719 156.684C71.8109 156.068 73.6264 155.044 73.3639 156.544C73.1015 158.045 69.3449 159.789 69.3449 162.676C69.3449 166.962 70.9976 171.064 76.9421 172.779C98.2358 178.921 105.746 163.284 106.337 163.85C106.929 164.415 106.95 165.354 106.384 165.946C103.039 169.443 100.343 171.774 98.2358 172.959C90.8287 177.127 82.7884 177.953 75.9675 175.579C69.7289 173.408 65.3756 167.237 67.966 161.181C68.3863 160.198 69.4686 158.746 71.2719 156.684Z" fill="#00160A"/>
<path fill-rule="evenodd" clip-rule="evenodd" d="M220.317 2.82525C220.988 2.35652 221.913 2.5208 222.381 3.19219C222.85 3.86358 222.092 4.82947 221.42 5.29821C219.184 6.85949 213.796 11.9597 212.693 13.1278L211.633 14.257C209.551 16.4988 184.754 42.2852 184.158 41.7233C183.612 41.2079 207.808 14.6016 209.623 12.6572L209.692 12.5838C211.407 10.7537 212.991 9.1036 214.508 7.57561C216.009 6.06291 217.944 4.48169 220.317 2.82525Z" fill="#E7EAEE"/>
<path fill-rule="evenodd" clip-rule="evenodd" d="M220.317 24.7681C220.988 24.2993 221.913 24.4636 222.381 25.135C222.85 25.8064 222.686 26.7307 222.014 27.1994C219.778 28.7607 184.899 63.9463 184.158 63.6661C183.417 63.3859 186.992 59.2053 186.992 59.2053C189.277 56.8144 209.692 35.1197 209.692 35.1197C211.407 33.2895 212.991 31.6395 214.508 30.1115C216.009 28.5988 217.944 26.4245 220.317 24.7681Z" fill="#00160A"/>
<path fill-rule="evenodd" clip-rule="evenodd" d="M253.072 7.94923C253.626 7.34656 254.564 7.30735 255.167 7.86166C255.769 8.41597 255.809 9.3539 255.254 9.95658C255.254 9.95658 187.812 86.6222 187.198 84.4887C186.861 83.3147 215.223 49.2379 219.684 44.6443L220.922 43.3933C223.015 41.2212 233.373 29.3671 253.072 7.94923Z" fill="#00160A"/>
<path fill-rule="evenodd" clip-rule="evenodd" d="M97.4194 101.352C98.6422 101.2 100.756 101.409 103.076 102.138C103.857 102.383 104.291 103.215 104.046 103.997C103.8 104.778 102.968 105.212 102.187 104.966C100.219 104.348 98.7016 104.031 97.6727 104.005L97.4194 104.004C97.0587 104.013 96.7953 104.076 95.7734 104.466L94.2367 105.067C92.7645 105.647 91.6806 105.989 90.4802 106.186C89.1266 106.408 87.0843 106.318 84.2798 105.936C83.4684 105.826 82.0813 104.863 83.0104 104.268C83.9396 103.672 87.8686 104.321 89.7108 103.997C91.5529 103.672 95.0495 101.648 97.4194 101.352Z" fill="#00160A"/>
<path fill-rule="evenodd" clip-rule="evenodd" d="M34.057 202.925C40.7337 202.809 43.5788 204.665 42.9646 205.266C42.9646 205.266 35.8722 204.725 34.057 204.665C32.1383 204.601 23.3552 204.469 23.1134 203.687C23.0215 203.389 23.0278 203.085 23.1139 202.809C23.2039 202.52 24.9301 202.697 27.915 202.831C29.5888 202.906 31.6583 202.967 34.057 202.925Z" fill="#00160A"/>
<path fill-rule="evenodd" clip-rule="evenodd" d="M44.6123 238.794C44.6123 238.794 44.0117 267.1 48.0297 269.407C48.5847 269.726 48.524 270.955 47.914 271.501C47.3039 272.047 46.3666 271.995 45.8204 271.385C42.1283 267.261 41.1629 255.619 42.6223 238.485C42.689 237.702 44.6818 237.978 44.6123 238.794Z" fill="#00160A"/>
<path fill-rule="evenodd" clip-rule="evenodd" d="M137.677 254.907L137.597 254.912L132.866 255.35C103.295 258.116 84.8134 260.843 70.29 263.534L68.9255 263.791C61.9179 265.132 56.1643 266.468 52.8208 267.816C48.6389 269.502 44.8759 271.512 46.2107 274.019C48.5367 278.388 53.4315 280.1 64.1545 281.287L65.2981 281.408C73.5874 282.254 82.4964 282.459 105.081 282.574L112.799 282.619C140.329 282.802 156.25 283.792 176.867 285.055L178.969 285.186C216.935 287.583 247.239 287.199 269.884 284.542L270.568 284.461C288.863 282.262 301.206 278.625 306.576 274.498C309.736 272.068 310.219 269.634 310.307 267.382C310.385 265.358 305.739 262.299 303.085 261.294C295.691 258.495 293.279 257.48 279.064 256.047C250.989 253.216 204.269 252.443 137.677 254.907ZM279.36 258.404L280.292 258.5C293.543 259.886 302.242 261.886 306.255 264.4L306.505 264.562C309.586 266.61 309.198 268.743 304.769 272.147C299.926 275.869 288.023 279.376 270.214 281.517C247.918 284.197 217.943 284.629 180.299 282.298L176.352 282.053C154.62 280.735 137.945 280.379 107.086 280.212L98.5667 280.163C80.1942 280.035 72.3851 279.781 64.8465 278.973L64.1298 278.893C54.6789 277.813 49.4559 275.838 47.706 272.742L47.642 272.626C47.6087 272.563 47.6085 272.564 47.8624 272.307C48.3707 271.792 49.4132 271.191 50.964 270.566L51.3659 270.408C54.7271 269.115 60.0398 267.79 67.2719 266.45L68.6417 266.2C83.08 263.607 104.612 260.97 133.222 258.294L137.824 257.869L141.752 257.726C206.132 255.419 252.013 255.647 279.36 258.404Z" fill="#00160A"/>
<path d="M211.906 229.51C211.364 249.265 209.817 262.424 207.185 267.028C204.959 270.924 197.484 272.246 188.009 271.605L184.598 271.358C179.965 271.011 177.381 270.757 174.89 270.373L174.551 270.319C170.542 269.679 167.898 268.794 166.415 267.357C160.945 262.053 158.045 250.302 157.491 231.996C157.466 231.178 159.636 231.932 160.454 231.907C160.624 231.902 170.413 233.082 183.886 232.454C191.875 232.082 211.906 229.51 211.906 229.51Z" fill="white"/>
<path fill-rule="evenodd" clip-rule="evenodd" d="M159.164 231.772C159.706 251.527 164.363 263.008 166.995 267.612C169.221 271.508 176.696 272.831 186.171 272.19L189.582 271.942C194.215 271.595 177.218 266.533 171.349 260.121C164.766 252.93 159.164 231.772 159.164 231.772Z" fill="#E7EAEE"/>
<path fill-rule="evenodd" clip-rule="evenodd" d="M163.171 237.891C163.282 237.079 164.282 235.691 164.841 236.623C165.4 237.554 165.65 239.813 166.812 242.697L169.278 247.478C169.496 248.019 169.694 248.52 169.88 249.004L169.991 249.292C171.103 252.212 171.785 253.922 172.028 255.865C172.13 256.678 171.553 257.419 170.741 257.52C169.928 257.622 169.187 257.045 169.086 256.233C168.879 254.58 168.848 252.47 167.813 249.755L167.596 249.192C167.447 248.81 167.29 248.414 167.119 247.991L165.407 243.83C165.111 243.101 164.882 242.523 164.681 241.986L164.519 241.55C163.903 239.855 163.052 238.759 163.171 237.891Z" fill="#00160A"/>
<path fill-rule="evenodd" clip-rule="evenodd" d="M124.136 144.839C123.223 145.533 124.338 146.511 124.695 147.578C124.777 147.821 124.881 148.071 125.017 148.364L125.184 148.712L125.563 149.465L125.719 149.785C125.888 150.135 126.007 150.41 126.102 150.672C126.396 151.481 126.369 151.845 126.092 152.092C124.535 153.482 122.881 154.412 119.71 155.816L117.96 156.582C112.682 158.914 109.161 160.461 107.176 163.618C104.557 167.783 105.256 173.753 107.082 182.446L107.168 182.85C107.518 184.47 106.846 187.429 106.362 191.912L106.327 192.235C106.129 194.027 105.874 196.034 105.524 198.58L104.131 208.463C103.605 212.242 103.214 215.249 102.875 218.193L102.746 219.33C101.727 228.535 101.433 235.775 102.023 241.654C102.535 246.755 105.523 254.051 109.048 257.537C114.227 262.66 119.374 260.234 124.031 249.642C126.113 244.908 127.399 240.464 128.014 235.947C128.837 229.907 128.499 223.75 127.066 215.444L126.917 214.599C125.937 209.216 121.653 189.377 121.142 186.86L120.977 186.059L119.889 180.988C119.819 180.657 119.754 180.344 119.691 180.036L119.489 179.032C118.588 174.454 118.275 171.416 118.614 169.449C118.646 169.264 118.803 168.991 119.124 168.645C119.623 168.106 120.415 167.498 121.582 166.746L122.101 166.419C123.194 165.746 125.793 164.199 125.812 164.188L126.37 163.845C131.86 160.448 134.442 157.785 134.442 154.015C134.442 150.27 132.862 147.408 130.296 145.699C128.164 144.279 125.478 143.82 124.136 144.839ZM127.127 148.338L126.617 147.312L126.56 147.301C127.223 147.415 127.97 147.713 128.653 148.168C130.404 149.334 131.477 151.276 131.477 154.015C131.477 156.358 129.408 158.477 124.788 161.337L123.98 161.827C123.19 162.298 121.027 163.59 120.279 164.061L120.216 164.1C118.728 165.045 117.693 165.826 116.948 166.631C116.27 167.363 115.835 168.119 115.692 168.945C115.253 171.492 115.637 174.962 116.713 180.275L116.987 181.597L117.984 186.236L118.544 188.92C119.688 194.336 123.217 210.768 124.026 215.276L124.053 215.425C125.515 223.726 125.868 229.729 125.076 235.547C124.5 239.783 123.29 243.961 121.317 248.448C119.186 253.293 117.045 256.007 115.076 256.839C113.603 257.462 112.126 256.999 110.54 255.429C107.553 252.476 104.829 245.82 104.381 241.358C103.815 235.727 104.102 228.666 105.102 219.647L105.227 218.532C105.578 215.488 105.986 212.369 106.545 208.375L107.761 199.768L108.022 197.86C108.282 195.928 108.485 194.31 108.651 192.835L108.755 191.876C109.227 187.387 109.305 184.355 108.911 182.37L108.88 182.223C107.102 173.998 106.913 168.663 109.093 165.196C110.637 162.741 113.157 161.438 117.722 159.405L119.756 158.513C123.18 156.996 125.035 155.951 126.881 154.304C128.244 153.087 128.366 151.484 127.703 149.659C127.553 149.245 127.376 148.845 127.127 148.338Z" fill="#00160A"/>
<path d="M127.127 148.338L126.617 147.312L126.56 147.301C127.223 147.415 127.97 147.713 128.653 148.168C130.404 149.334 131.477 151.276 131.477 154.015C131.477 156.358 129.408 158.477 124.788 161.337L123.98 161.827C123.19 162.298 121.027 163.59 120.279 164.061L120.216 164.1C118.728 165.045 117.693 165.826 116.948 166.631C116.27 167.363 115.835 168.119 115.692 168.945C115.253 171.492 115.637 174.962 116.713 180.275L116.987 181.597L117.984 186.236L118.544 188.92C119.688 194.336 123.217 210.768 124.026 215.276L124.053 215.425C125.515 223.726 125.868 229.729 125.076 235.547C124.5 239.783 123.29 243.961 121.317 248.448C119.186 253.293 117.045 256.007 115.076 256.839C113.603 257.462 112.126 256.999 110.54 255.429C107.553 252.476 104.829 245.82 104.381 241.358C103.815 235.727 104.102 228.666 105.102 219.647L105.227 218.533C105.578 215.488 105.986 212.369 106.545 208.375L107.761 199.768L108.022 197.86C108.282 195.928 108.485 194.31 108.651 192.835L108.755 191.876C109.227 187.387 109.305 184.355 108.911 182.37L108.88 182.223C107.102 173.998 106.913 168.663 109.093 165.196C110.637 162.741 113.157 161.438 117.722 159.405L119.756 158.513C123.18 156.996 125.035 155.951 126.881 154.304C128.244 153.087 128.366 151.484 127.703 149.659C127.553 149.245 127.376 148.845 127.127 148.338Z" fill="white"/>
<path fill-rule="evenodd" clip-rule="evenodd" d="M117.539 168.222C117.944 167.51 118.85 167.262 119.561 167.667C128.12 172.542 133.024 178.41 134.127 185.276C135.19 191.89 128.265 226.304 127.465 226.131C126.665 225.957 126.157 225.168 126.33 224.368L126.704 222.625C130.664 204.034 132.153 191.682 131.2 185.746C130.257 179.88 125.937 174.711 118.094 170.244C117.382 169.838 117.134 168.933 117.539 168.222Z" fill="#00160A"/>
<path fill-rule="evenodd" clip-rule="evenodd" d="M121.061 148.387C121.75 147.945 122.668 148.145 123.11 148.833C123.873 150.02 124.329 150.987 124.472 151.812C124.613 152.624 124.518 153.715 124.22 155.166C124.056 155.968 123.272 156.485 122.47 156.32C122.094 156.243 121.781 156.031 121.572 155.744C121.333 155.418 122.736 154.57 122.736 152.317C122.736 150.064 120.373 148.83 121.061 148.387Z" fill="#00160A"/>
<path fill-rule="evenodd" clip-rule="evenodd" d="M120.52 150.673C120.879 150.373 121.195 151.503 121.125 152.061C121.02 152.904 121.02 155.935 119.827 157.367C119.355 157.934 118.583 158.411 117.846 158.053C117.52 157.895 118.536 156.48 119.153 154.881C119.599 153.722 119.948 152.481 120.184 151.649C120.36 151.032 120.148 150.983 120.52 150.673Z" fill="#00160A"/>
<path fill-rule="evenodd" clip-rule="evenodd" d="M210.46 227.922C211.279 227.943 211.926 228.623 211.905 229.442L211.873 230.661C211.331 250.416 209.817 262.424 207.185 267.028C204.959 270.924 197.484 272.246 188.009 271.605L184.598 271.358C179.965 271.01 177.381 270.757 174.89 270.373L174.55 270.319C170.542 269.679 167.898 268.794 166.415 267.357C160.945 262.053 158.045 250.302 157.491 231.996C157.466 231.178 158.109 230.494 158.928 230.47C159.746 230.445 160.43 231.088 160.454 231.907L160.489 232.954C161.097 249.93 163.831 260.721 168.479 265.228L168.591 265.331C170.303 266.848 174.549 267.599 184.396 268.366L187.895 268.625L188.503 268.666C196.681 269.177 203.212 268.003 204.611 265.556C206.948 261.468 208.442 249.283 208.941 229.367C208.961 228.549 209.641 227.902 210.46 227.922Z" fill="#00160A"/>
<path fill-rule="evenodd" clip-rule="evenodd" d="M156.652 172.909C156.936 172.141 161.669 173.316 162.926 174.052C163.387 174.322 173.94 179.271 176.979 181.175C180.835 183.591 183.547 194 182.632 205.684C182.497 207.405 181.46 209.3 179.581 211.461C179.043 212.079 178.107 212.144 177.489 211.607C176.871 211.07 176.806 210.133 177.343 209.515C178.844 207.79 179.601 206.406 179.676 205.453L179.722 204.817C180.432 194.442 178.601 184.731 176.105 183.167L175.62 182.868C173.26 181.439 171.819 180.969 168.933 180.433C168.933 180.433 164.431 176.805 162.655 175.79C158.717 173.541 156.522 173.262 156.652 172.909Z" fill="#00160A"/>
<path fill-rule="evenodd" clip-rule="evenodd" d="M196.517 160.657C197.098 161.234 184.813 171.773 184.158 172.364C182.148 174.177 180.903 178.291 181.413 183.624L181.442 183.917C181.547 184.914 181.898 188.939 181.913 189.504L181.952 190.333C181.97 190.624 181.996 190.93 182.051 191.457L182.339 194.115C182.824 198.517 182.952 201.599 182.632 205.684C182.497 207.405 181.46 209.3 179.581 211.461C179.043 212.079 178.107 212.144 177.489 211.607C176.871 211.069 180.715 205.852 180.789 204.899C181.08 201.185 179.08 191.551 179.08 191.551C178.995 190.707 178.984 190.434 178.954 189.731C178.915 188.83 179.001 188.124 179.262 186.841L179.466 185.853C179.677 184.804 179.735 184.273 179.688 183.719L179.679 183.632C179.327 180.261 179.525 177.53 180.2 175.332C180.808 173.354 181.801 171.807 183.126 170.611C183.708 170.087 184.3 169.673 185.006 169.259L185.842 168.783C185.945 168.722 186.012 168.679 186.054 168.648L186.176 168.555C187.335 167.656 195.936 160.08 196.517 160.657Z" fill="#00160A"/>
<path fill-rule="evenodd" clip-rule="evenodd" d="M210.267 182.967C210.468 183.76 190.693 190.38 188.064 192.634C184.463 195.72 182.54 200.202 183.09 204.205L183.124 204.426C183.482 206.651 182.559 208.982 179.416 211.623C178.789 212.15 177.854 212.069 177.327 211.442C176.8 210.815 176.881 209.88 177.508 209.353C179.92 207.326 180.93 205.774 180.789 204.899C179.961 199.765 182.312 194.167 186.727 190.383C189.927 187.64 210.066 182.173 210.267 182.967Z" fill="#00160A"/>
<path fill-rule="evenodd" clip-rule="evenodd" d="M149.746 168.907C156.285 167.447 161.959 167.447 166.76 168.938C171.909 170.537 174.599 174.164 174.599 179.517C174.599 179.804 174.518 180.072 174.377 180.298L174.311 180.395L174.36 180.47C174.441 180.601 174.503 180.747 174.54 180.904L174.56 181C174.698 181.807 174.155 182.573 173.348 182.71L172.586 182.838C164.798 184.113 159.701 184.096 157.057 182.636C154.37 181.152 151.657 177.284 148.725 170.979C148.326 170.12 148.822 169.113 149.746 168.907ZM165.88 171.77C162.114 170.6 157.647 170.464 152.472 171.383L152.229 171.427L152.282 171.534C154.572 176.126 156.648 178.953 158.382 179.978L158.49 180.04C160.235 181.003 164.39 181.072 170.763 180.121L171.706 179.976L171.683 179.896C171.659 179.806 171.643 179.712 171.637 179.615L171.634 179.517C171.634 175.467 169.793 172.985 165.88 171.77Z" fill="#00160A"/>
<path fill-rule="evenodd" clip-rule="evenodd" d="M200.929 153.455C201.683 153.468 202.307 154.046 202.379 154.797C202.901 160.252 202.218 164.396 200.233 167.216C198.092 170.259 193.953 171.219 188.009 170.334C187.231 170.218 186.685 169.518 186.75 168.746L186.755 168.695L186.681 168.675C186.349 168.57 186.054 168.349 185.862 168.034L185.812 167.945C183.761 164.001 184.718 160.335 188.483 157.407C191.893 154.755 195.946 153.436 200.588 153.452L200.929 153.455ZM199.544 156.669L199.532 156.44L199.526 156.44C195.982 156.61 192.922 157.712 190.304 159.748C187.631 161.826 187.076 163.95 188.443 166.577C188.569 166.819 188.621 167.08 188.608 167.335L188.601 167.423L188.719 167.44C193.422 168.1 196.369 167.421 197.732 165.615L197.808 165.51C199.145 163.611 199.746 160.667 199.544 156.669Z" fill="#00160A"/>
<path d="M75.8833 222.114C77.6446 222.173 78.3062 224.145 77.2803 226.127C76.5701 227.499 74.8343 228.942 73.0412 229.79C72.0174 230.275 70.8308 230.338 69.5104 230.005C69.034 229.885 68.7451 229.402 68.8651 228.925C68.9851 228.449 69.4686 228.16 69.945 228.28C70.8885 228.518 70.1546 227.209 70.1006 226.721C70.0466 226.233 70.3987 225.793 70.887 225.739C71.7818 225.64 72.2494 225.177 72.7036 224.867C72.8309 224.779 72.997 224.606 73.2303 224.314L73.4946 223.972L73.5859 223.851C74.5891 222.518 74.9821 222.113 75.7916 222.112L75.8833 222.114Z" fill="white"/>
<path fill-rule="evenodd" clip-rule="evenodd" d="M75.8833 222.114C77.6446 222.173 78.3062 224.145 77.2803 226.127C76.5701 227.499 74.8343 228.942 73.0412 229.79C72.0174 230.275 70.8308 230.338 69.5104 230.005C69.034 229.885 68.7451 229.402 68.8651 228.925C68.9851 228.449 69.4686 228.16 69.945 228.28C70.8885 228.518 71.6573 228.477 72.2803 228.182C73.7513 227.486 75.1944 226.287 75.7002 225.31C75.9917 224.746 76.0543 224.306 75.9659 224.042C75.9468 223.985 75.9263 223.948 75.903 223.925L75.8798 223.907L75.8488 223.931C75.8231 223.951 75.7941 223.976 75.7622 224.006L75.7123 224.054C75.5637 224.203 75.4282 224.367 75.1646 224.713L74.8091 225.182C74.3736 225.752 74.0699 226.087 73.7084 226.335C72.9863 226.829 72.2459 227.379 71.0826 227.508C70.5943 227.562 70.1546 227.209 70.1006 226.721C70.0466 226.233 70.3987 225.793 70.887 225.739C71.7818 225.64 72.2494 225.177 72.7036 224.867C72.8309 224.779 72.997 224.606 73.2303 224.314L73.4946 223.972L73.5859 223.851C74.5891 222.518 74.9821 222.113 75.7916 222.112L75.8833 222.114Z" fill="#00160A"/>
<path fill-rule="evenodd" clip-rule="evenodd" d="M76.5201 226.079C77.6013 226.116 77.998 227.064 77.911 228.174C77.8461 229.002 77.5116 229.889 77.0046 230.454C76.3627 231.169 75.4665 231.784 74.2526 232.418L74.0056 232.545C73.5674 232.767 73.2645 232.911 72.4631 233.282C71.4798 233.737 70.1699 233.9 68.5224 233.799C68.032 233.769 67.6588 233.347 67.6888 232.857C67.7187 232.366 68.1405 231.993 68.6309 232.023C70.0097 232.107 71.0416 231.979 71.7157 231.667L72.5516 231.277C72.7954 231.161 72.981 231.07 73.2009 230.958C74.3607 230.37 75.1768 229.827 75.6803 229.266C75.8871 229.035 76.0683 228.581 76.125 228.151L76.1373 228.035L76.1384 228.011L76.0693 228.052C75.8977 228.221 73.7389 229.52 73.5056 229.566C70.4682 230.171 71.0219 229.929 69.8585 230.058C69.3702 230.112 68.9306 229.76 68.8765 229.272C68.8225 228.783 69.1746 228.344 69.6629 228.29C69.9845 228.254 70.5892 228.828 71.2591 228.775C71.8316 228.729 73.2495 228.001 73.2495 228.001L73.8607 227.491C74.012 227.365 74.1428 227.258 74.269 227.158L74.5691 226.926C75.3429 226.344 75.9151 226.059 76.5201 226.079Z" fill="#00160A"/>
<path fill-rule="evenodd" clip-rule="evenodd" d="M73.4099 234.742C74.616 234.302 75.6061 235.382 76.07 236.413C76.5734 237.533 75.9557 238.52 74.7868 239.242C73.9947 239.732 72.9188 240.105 72.1158 240.196C70.9838 240.324 69.6382 239.945 68.0497 239.1C67.616 238.869 67.4516 238.33 67.6824 237.897C67.9133 237.463 68.452 237.298 68.8857 237.529C70.1859 238.221 71.2059 238.508 71.9162 238.428C72.4576 238.367 73.2823 238.081 73.8514 237.729C74.1346 237.554 75.3438 236.413 74.0189 236.413C73.5189 236.413 72.9483 236.136 72.8786 235.882C72.8089 235.628 72.9483 234.91 73.4099 234.742Z" fill="#00160A"/>
<path fill-rule="evenodd" clip-rule="evenodd" d="M90.3486 215.948C90.5416 215.85 90.8322 216.02 90.8566 216.225L90.8574 216.269L90.7884 216.969L92.8415 215.947C92.9479 215.89 93.1186 215.927 93.247 216.028L93.2931 216.069C93.4103 216.186 93.4305 216.325 93.3473 216.399L93.311 216.424L90.5862 217.723C90.3654 217.819 90.0591 217.649 90.0517 217.445L90.0546 217.401L89.954 216.969L87.8665 217.722C87.6516 217.811 87.3866 217.676 87.3718 217.485L87.3729 217.44L87.3283 216.907L84.7708 217.724C84.5304 217.814 84.2853 217.661 84.3229 217.464L84.3352 217.421L84.3704 216.907L82.3192 217.634C82.0822 217.726 81.8559 217.598 81.8898 217.409L81.9023 217.365L82.0192 216.835L80.1287 217.374C79.9055 217.451 79.7142 217.347 79.7392 217.178L79.75 217.134L79.9531 216.545L78.4378 216.907C78.2738 216.945 78.1436 216.887 78.1249 216.776L78.1234 216.731C78.1344 216.607 78.2601 216.476 78.4145 216.418L78.4734 216.4L80.3739 215.932C80.5644 215.884 80.7088 215.987 80.6892 216.142L80.6797 216.186L80.5164 216.714L82.5579 215.946C82.7708 215.862 82.9684 215.991 82.9425 216.176L82.9324 216.22L82.7 216.927L84.9689 215.951C85.1846 215.852 85.4202 216.004 85.396 216.205L85.3866 216.249L85.1439 217.003L87.6598 215.946C87.8512 215.86 88.0931 215.996 88.1173 216.186L88.1188 216.23L88.0645 217.015L90.3486 215.948Z" fill="#AD2CFC"/>
<ellipse cx="94.3186" cy="126.303" rx="6.13261" ry="1.72305" transform="rotate(8.98977 94.3186 126.303)" fill="#AD2CFC"/>
<path fill-rule="evenodd" clip-rule="evenodd" d="M45.7138 165.748L46.784 167.998L49.1852 168.661L47.3765 170.374L47.4877 172.863L45.2996 171.672L42.9671 172.546L43.4235 170.097L41.8708 168.149L44.341 167.827L45.7138 165.748Z" fill="#00160A"/>
<path fill-rule="evenodd" clip-rule="evenodd" d="M63.0438 161.595L63.8172 163.313L65.5638 163.815L64.2424 165.13L64.3168 167.034L62.7268 166.129L61.0262 166.804L61.3649 164.929L60.2394 163.442L62.0388 163.189L63.0438 161.595Z" fill="#00160A"/>
<path fill-rule="evenodd" clip-rule="evenodd" d="M74.9048 197.178L75.6781 198.896L77.4248 199.398L76.1033 200.713L76.1778 202.617L74.5877 201.712L72.8871 202.387L73.2258 200.512L72.1003 199.025L73.8998 198.772L74.9048 197.178Z" fill="#00160A"/>
<path fill-rule="evenodd" clip-rule="evenodd" d="M126.5 185.317L127.273 187.035L129.02 187.537L127.699 188.852L127.773 190.756L126.183 189.851L124.482 190.526L124.821 188.651L123.696 187.164L125.495 186.911L126.5 185.317Z" fill="#00160A"/>
<path fill-rule="evenodd" clip-rule="evenodd" d="M49.9967 242.249L50.7701 243.968L52.5168 244.469L51.1953 245.785L51.2698 247.689L49.6797 246.783L47.9791 247.459L48.3178 245.583L47.1923 244.097L48.9917 243.844L49.9967 242.249Z" fill="#00160A"/>
<path fill-rule="evenodd" clip-rule="evenodd" d="M49.4451 257.67L50.3903 259.77L52.5251 260.383L50.91 261.991L51.001 264.318L49.0576 263.211L46.979 264.037L47.393 261.745L46.0174 259.928L48.2167 259.618L49.4451 257.67Z" fill="#00160A"/>
<path fill-rule="evenodd" clip-rule="evenodd" d="M67.2365 248.774L68.1818 250.875L70.3165 251.488L68.7014 253.095L68.7924 255.423L66.849 254.316L64.7705 255.141L65.1845 252.849L63.8089 251.032L66.0082 250.723L67.2365 248.774Z" fill="#00160A"/>
<path fill-rule="evenodd" clip-rule="evenodd" d="M90.9584 241.658L91.9037 243.758L94.0384 244.371L92.4233 245.979L92.5143 248.306L90.5709 247.199L88.4924 248.025L88.9064 245.733L87.5308 243.916L89.7301 243.606L90.9584 241.658Z" fill="#00160A"/>
<path fill-rule="evenodd" clip-rule="evenodd" d="M55.7956 191.842L56.8658 194.092L59.267 194.755L57.4583 196.468L57.5695 198.957L55.3814 197.766L53.0489 198.641L53.5053 196.192L51.9526 194.244L54.4228 193.921L55.7956 191.842Z" fill="#00160A"/>
<path fill-rule="evenodd" clip-rule="evenodd" d="M58.7609 175.237L59.8311 177.486L62.2323 178.15L60.4235 179.863L60.5347 182.351L58.3466 181.16L56.0141 182.035L56.4706 179.586L54.9178 177.638L57.388 177.316L58.7609 175.237Z" fill="#00160A"/>
<path fill-rule="evenodd" clip-rule="evenodd" d="M85.448 185.319L86.5182 187.568L88.9194 188.232L87.1107 189.944L87.2219 192.433L85.0338 191.242L82.7013 192.117L83.1577 189.668L81.605 187.72L84.0752 187.397L85.448 185.319Z" fill="#00160A"/>
<path fill-rule="evenodd" clip-rule="evenodd" d="M100.867 177.609L101.937 179.859L104.339 180.522L102.53 182.235L102.641 184.723L100.453 183.533L98.1206 184.407L98.577 181.958L97.0243 180.01L99.4944 179.688L100.867 177.609Z" fill="#00160A"/>
<path fill-rule="evenodd" clip-rule="evenodd" d="M96.1229 201.331L97.1931 203.58L99.5943 204.244L97.7856 205.957L97.8967 208.445L95.7087 207.255L93.3762 208.129L93.8326 205.68L92.2799 203.732L94.75 203.41L96.1229 201.331Z" fill="#00160A"/>
<path fill-rule="evenodd" clip-rule="evenodd" d="M56.9817 209.041L58.0519 211.29L60.4531 211.953L58.6444 213.666L58.7556 216.155L56.5675 214.964L54.235 215.839L54.6914 213.39L53.1387 211.442L55.6089 211.119L56.9817 209.041Z" fill="#00160A"/>
<path fill-rule="evenodd" clip-rule="evenodd" d="M41.7148 182.945L42.6729 184.862L44.8106 185.432L43.2064 186.885L43.3121 189.002L41.3625 187.983L39.2901 188.721L39.6894 186.639L38.3029 184.977L40.4993 184.71L41.7148 182.945Z" fill="#00160A"/>
<path fill-rule="evenodd" clip-rule="evenodd" d="M31.0399 195.399L31.998 197.316L34.1357 197.886L32.5315 199.339L32.6372 201.456L30.6876 200.437L28.6152 201.175L29.0146 199.093L27.6281 197.431L29.8244 197.164L31.0399 195.399Z" fill="#00160A"/>
<path fill-rule="evenodd" clip-rule="evenodd" d="M108.818 164.306C108.847 165.124 108.154 165.81 107.335 165.789C103.245 165.685 102.594 158.652 102.987 158.623C103.53 158.584 104.458 161.925 106.284 163.142C107.677 164.07 108.738 162.051 108.818 164.306Z" fill="#00160A"/>
<path fill-rule="evenodd" clip-rule="evenodd" d="M198.567 178.879C208.211 175.662 216.509 175.542 223.415 178.585C224.687 179.145 224.557 180.991 223.22 181.369L222.711 181.516C220.725 182.103 219.339 182.682 218.593 183.208L218.443 183.319L218.383 183.366C217.82 183.805 217.219 184.379 216.429 185.216L214.042 187.805C213.931 187.924 213.835 188.027 213.759 188.106C210.552 191.476 207.765 193.446 204.167 194.305C199.241 195.482 194.012 194.91 188.518 192.62C188.077 192.437 187.771 192.065 187.656 191.637L187.653 191.625L187.575 191.591C187.044 191.334 186.702 190.774 186.742 190.162L186.751 190.065C187.414 184.973 191.45 181.253 198.567 178.879ZM217.974 179.922C212.681 178.768 206.532 179.348 199.506 181.692C193.755 183.61 190.606 186.295 189.821 189.727L189.776 189.932L190.002 190.024C194.698 191.918 199.079 192.398 203.179 191.49L203.479 191.421C206.317 190.743 208.624 189.151 211.361 186.322L211.739 185.926C212.384 185.24 213.903 183.575 214.09 183.375C215.062 182.334 215.806 181.615 216.558 181.028L216.721 180.903C217.102 180.617 217.564 180.34 218.111 180.07L218.275 179.99L217.974 179.922Z" fill="#00160A"/>
<path fill-rule="evenodd" clip-rule="evenodd" d="M220.317 1.04614C220.988 0.577404 221.913 0.741688 222.381 1.41308C222.85 2.08447 222.092 3.05036 221.42 3.51909C219.184 5.08038 213.796 10.1806 212.693 11.3487L211.633 12.4778C209.551 14.7196 184.754 40.5061 184.158 39.9442C183.612 39.4288 207.808 12.8225 209.623 10.878L209.692 10.8047C211.407 8.97454 212.991 7.32449 214.508 5.7965C216.009 4.28379 217.944 2.70258 220.317 1.04614Z" fill="#00160A"/>
<path fill-rule="evenodd" clip-rule="evenodd" d="M156.288 106.265C155.32 107.688 154.568 109.924 153.983 113.025L153.906 113.443L153.7 113.314L153.01 112.897C150.653 111.5 148.881 110.779 147.566 110.725C144.743 110.609 144.028 112.911 144.996 116.12C146.585 121.301 152.001 127.836 160.626 134.938C161.496 135.655 162.817 135.191 163.048 134.087L163.28 132.959C166.423 117.519 166.414 108.91 162.786 105.727L162.654 105.615C160.445 103.711 158.078 103.816 156.422 106.077L156.288 106.265ZM160.818 107.992C163.111 110.068 163.221 117.329 160.774 130.161L160.61 131.001L160.293 130.726C153.396 124.719 149.112 119.307 147.866 115.247L147.806 115.04C147.655 114.502 147.582 114.082 147.57 113.8L147.568 113.733L147.668 113.746C148.8 113.925 151.035 115.076 154.187 117.206C155.107 117.827 156.36 117.269 156.513 116.169L156.638 115.309C157.216 111.535 157.978 109.028 158.842 107.85C159.376 107.12 159.712 107.072 160.587 107.796L160.818 107.992Z" fill="#AD2CFC"/>
<path fill-rule="evenodd" clip-rule="evenodd" d="M232.506 98.4865C227.86 102.695 228.808 116.748 234.857 141.481C235.141 142.641 236.6 143.021 237.413 142.146L238.423 141.053C248.716 129.834 254.624 121.055 256.151 114.576C257.089 110.594 256.137 107.96 252.966 107.96L252.765 107.964C250.865 108.041 248.254 109.195 244.794 111.416L244.326 111.72L244.318 111.681C243.135 106.022 241.786 102.045 240.216 99.6963C238.094 96.5219 235.217 96.0307 232.506 98.4865ZM237.722 101.363C239.209 103.589 240.601 107.998 241.819 114.508C242.02 115.58 243.26 116.086 244.153 115.461C248.453 112.454 251.481 110.96 252.966 110.96C253.594 110.96 253.792 111.507 253.231 113.888L253.16 114.173C251.741 119.722 246.561 127.527 237.621 137.474L237.114 138.035L236.807 136.722C231.963 115.828 231.338 103.592 234.52 100.71C235.823 99.5299 236.583 99.6597 237.722 101.363Z" fill="#AD2CFC"/>
</svg>
