<svg width="260" height="191" viewBox="0 0 260 191" fill="none" xmlns="http://www.w3.org/2000/svg">
<path fill-rule="evenodd" clip-rule="evenodd" d="M27.9126 169.953C47.6005 191.327 123.735 179.049 173.865 179.049C195.492 179.049 268.068 189.859 238.098 115.618C139.832 -127.807 -34.4686 102.229 27.9126 169.953Z" fill="#B2DF4B"/>
<path fill-rule="evenodd" clip-rule="evenodd" d="M115.13 171.934C115.225 171.861 115.325 171.782 115.366 171.669C115.5 171.307 114.977 171.067 114.592 171.076C114.032 171.088 113.315 171.465 113.486 171.998C113.586 172.306 113.965 172.449 114.284 172.392C114.603 172.335 114.873 172.132 115.13 171.934ZM116.792 165.592C117.215 165.725 117.632 165.888 117.999 166.135C118.69 166.597 119.16 167.315 119.611 168.013C119.934 168.514 120.262 169.024 120.423 169.598C120.598 170.219 120.567 170.882 120.45 171.517C120.085 173.494 118.865 175.297 117.166 176.372C115.467 177.446 113.314 177.775 111.372 177.257C110.994 177.156 110.613 177.018 110.322 176.756C110.078 176.536 109.913 176.243 109.762 175.951C108.971 174.417 108.438 172.713 108.499 170.988C108.56 169.263 109.269 167.518 110.612 166.434C112.297 165.073 114.726 164.944 116.792 165.592" fill="white"/>
<path fill-rule="evenodd" clip-rule="evenodd" d="M205.992 71.7583C205.066 71.7467 204.198 72.5232 204.106 73.4448C204.069 73.8214 204.228 74.2896 204.603 74.3415C204.884 74.3804 205.131 74.1633 205.32 73.9517C205.719 73.504 206.062 73.0061 206.338 72.4735C206.431 72.2947 206.512 72.0654 206.391 71.9051C206.302 71.7883 206.139 71.7602 205.992 71.7583ZM205.592 67.6259C206.907 68.0847 208.098 68.8917 209.013 69.9424C209.799 70.8454 210.397 72.0176 210.232 73.2032C210.171 73.6385 210.011 74.0535 209.828 74.453C209.134 75.9659 207.941 77.4158 206.303 77.7088C205.443 77.8625 204.557 77.6783 203.731 77.3972C202.775 77.0719 201.863 76.6158 201.03 76.0454C200.588 75.7429 200.149 75.3839 199.955 74.8845C199.822 74.5403 199.817 74.1613 199.822 73.7922C199.835 72.8793 199.895 71.951 200.214 71.0953C200.616 70.0126 201.404 69.1189 202.24 68.3213C202.576 68.0005 202.932 67.6845 203.364 67.5125C204.07 67.2312 204.874 67.3755 205.592 67.6259Z" fill="white"/>
<path fill-rule="evenodd" clip-rule="evenodd" d="M205.944 1.21275C211.278 6.87497 215.488 13.6457 218.244 20.9935C218.434 21.4981 218.617 22.0587 218.437 22.5667C217.046 26.4782 214.363 29.7392 211.732 32.91C210.051 34.9361 208.369 36.9622 206.688 38.9883C205.083 40.9225 203.478 42.857 201.819 44.7426C193.371 54.3431 183.389 62.7379 171.828 67.9032C171.391 68.0981 170.923 68.2925 170.453 68.2146C169.984 68.1367 169.543 67.669 169.666 67.1975C171.096 61.719 172.534 55.9912 171.387 50.4432C171.111 49.105 170.802 47.4201 171.881 46.6148C180.612 40.0953 186.898 30.7766 192.923 21.5844C194.438 19.273 195.949 16.9553 197.289 14.5334C199.67 10.2333 201.503 5.6153 202.728 0.833145C202.896 0.176912 203.704 -0.118591 204.344 0.0533849C204.984 0.225361 205.484 0.724758 205.944 1.21275" fill="white"/>
<path fill-rule="evenodd" clip-rule="evenodd" d="M36.4618 23.8396C37.3502 31.7446 39.8227 39.474 43.6958 46.4539C46.0939 50.7756 49.0108 54.7939 51.9199 58.8001C53.9442 61.5878 56.109 64.493 59.2676 65.9338C60.1074 66.3169 59.9903 67.5087 59.7649 68.3923C58.7906 72.2119 58.336 76.1596 58.417 80.0969C58.4247 80.4689 58.4346 80.8545 58.2861 81.1966C57.7821 82.3581 56.0551 82.1646 54.8661 81.6895C47.5097 78.7502 41.8618 72.8391 36.5858 66.9995C29.7358 59.4177 22.9876 51.5028 18.941 42.1712C18.6659 41.5368 18.3989 40.8692 18.4449 40.1809C18.4918 39.4796 18.8579 38.8421 19.2292 38.2418C22.8976 32.3112 28.001 27.2471 33.9964 23.5884C34.4186 23.3307 34.8695 23.0725 35.3661 23.0556C35.8626 23.0387 36.4072 23.3535 36.4618 23.8396Z" fill="white"/>
<path fill-rule="evenodd" clip-rule="evenodd" d="M204.962 163.844C205.593 162.777 206.375 161.603 207.6 161.401C208.083 161.321 208.337 160.798 208.501 160.338C210.526 154.675 210.721 148.376 209.051 142.599C208.574 140.95 209.161 139.202 209.742 137.586C211.24 133.417 212.739 129.248 214.237 125.078C213.379 123.597 211.115 123.641 209.955 122.38C208.463 120.758 209.589 118.179 210.758 116.312C217.588 105.402 224.418 94.4922 231.248 83.5825C232.085 82.2459 233.921 81.8269 235.46 82.1831C236.999 82.5392 238.313 83.5053 239.579 84.4483C244.561 88.1592 249.542 91.8702 254.523 95.5811C257.197 97.5728 260.148 100.117 259.994 103.442C259.909 105.282 258.854 106.917 257.832 108.451C253.885 114.385 249.937 120.318 245.989 126.251C243.765 129.594 244.379 133.984 243.707 137.94C242.645 144.189 238.348 149.322 234.369 154.265C230.39 159.208 226.409 164.727 226.185 171.062C225.919 178.612 222.323 185.986 216.532 190.856C218.211 186.792 207.6 188.413 195.461 183.596C197.459 176.548 201.23 170.151 204.962 163.844Z" fill="white"/>
<path fill-rule="evenodd" clip-rule="evenodd" d="M71.7812 181.163C71.0255 180.547 70.7845 179.509 70.6511 178.543C69.1077 167.373 75.7362 156.348 74.5554 145.134C73.947 139.356 71.2792 133.963 67.9222 129.221C65.6039 125.946 65.4739 121.558 66.3388 117.64C67.2037 113.721 68.9484 110.057 70.1252 106.221C75.3584 89.1609 68.9906 70.9356 62.695 54.2385C75.2401 48.2003 89.8792 49.3698 103.777 50.1879C117.675 51.0059 132.621 51.0639 144.205 43.3386C145.792 60.0506 142.291 76.7811 138.811 93.2033C156.473 91.4906 174.135 89.778 191.798 88.0653C192.304 88.0161 192.858 87.9782 193.279 88.2645C193.84 88.6464 193.926 89.4253 193.959 90.1037C194.784 107.484 195.285 124.879 195.46 142.278C195.464 142.714 195.449 143.2 195.142 143.51C194.878 143.775 194.477 143.83 194.105 143.872C169.36 146.616 144.614 149.361 119.869 152.106C117.729 152.343 114.681 151.788 114.806 149.638C115.365 140.052 115.039 130.414 113.833 120.887C107.257 120.639 100.636 121.637 94.4245 123.813C93.0153 124.306 91.3209 125.633 92.0809 126.919C97.1089 135.423 90.8684 148.207 97.6972 155.346C100.045 157.8 99.883 161.662 99.4176 165.027C98.4201 172.241 96.7256 179.358 94.3652 186.246C95.5063 178.317 72.4785 185.415 71.7812 181.163Z" fill="white"/>
<path fill-rule="evenodd" clip-rule="evenodd" d="M0.917246 0.0293764C0.950565 0.384374 0.805499 0.757139 0.567832 0.927235C0.378554 0.676487 0.189277 0.425738 0 0.174989C0.28375 0.010657 0.605555 -0.0362152 0.909497 0.0425178L0.917246 0.0293764Z" fill="#00160A"/>
<path fill-rule="evenodd" clip-rule="evenodd" d="M116.359 165.592C116.781 165.725 117.198 165.888 117.566 166.135C118.257 166.597 118.727 167.315 119.177 168.013C119.501 168.514 119.828 169.024 119.99 169.598C120.165 170.219 120.133 170.882 120.016 171.517C119.652 173.494 118.432 175.297 116.733 176.372C115.033 177.446 112.881 177.775 110.938 177.257C110.56 177.156 110.179 177.018 109.889 176.756C109.644 176.536 109.48 176.243 109.329 175.951C108.538 174.417 108.004 172.713 108.065 170.988C108.126 169.263 108.835 167.518 110.178 166.434C111.864 165.073 114.292 164.944 116.359 165.592M113.99 175.862C115.047 175.701 115.977 175.011 116.584 174.132C117.191 173.252 117.503 172.198 117.652 171.14C117.738 170.536 117.745 169.843 117.319 169.407C117.064 169.146 116.699 169.029 116.349 168.924C115.035 168.531 113.536 168.197 112.359 168.901C111.503 169.414 111.025 170.364 110.592 171.263C110.085 172.317 110.21 173.646 110.905 174.587C111.6 175.527 112.834 176.037 113.99 175.862V175.862Z" fill="#00160A"/>
<path fill-rule="evenodd" clip-rule="evenodd" d="M164.618 118.139C164.636 117.915 164.663 117.675 164.812 117.506C164.957 117.34 165.185 117.281 165.399 117.231C170.918 115.946 176.619 115.443 182.278 115.743C182.999 115.781 183.926 116.025 183.974 116.745C184.247 120.874 184.52 125.002 184.794 129.131C184.807 129.34 184.814 129.572 184.681 129.733C184.572 129.864 184.396 129.915 184.231 129.958C178.345 131.493 172.141 131.795 166.134 130.841C165.979 130.816 165.816 130.787 165.696 130.686C165.551 130.565 165.5 130.367 165.459 130.182C164.573 126.241 164.288 122.165 164.618 118.139ZM165.919 124.989C166.028 126.548 166.355 128.092 166.888 129.561C167.42 129.637 167.946 129.748 168.476 129.837C173.041 130.61 177.71 129.833 182.274 129.056C182.598 129.001 182.953 128.928 183.153 128.667C183.358 128.401 183.33 128.03 183.293 127.696C183.136 126.273 182.979 124.851 182.822 123.428C182.809 123.313 182.793 123.19 182.715 123.105C182.621 123.001 182.467 122.985 182.327 122.975C179.083 122.762 175.829 123.004 172.587 123.246C170.795 123.379 169.004 123.513 167.212 123.647C166.791 123.678 166.312 123.741 166.07 124.087C165.892 124.342 165.898 124.678 165.919 124.989ZM165.97 119.038C165.686 119.947 165.635 120.928 165.823 121.862C165.857 122.03 165.905 122.207 166.032 122.321C166.221 122.49 166.509 122.462 166.76 122.426C169.812 121.979 172.898 121.756 175.983 121.762C176.419 121.762 176.552 121.176 176.547 120.741C176.54 120.103 176.533 119.466 176.526 118.828C176.522 118.459 176.504 118.053 176.251 117.784C175.948 117.46 175.44 117.47 174.998 117.504C173.976 117.582 172.954 117.66 171.932 117.738C171.443 117.776 170.146 118.108 169.55 118.147C168.512 118.313 167.475 118.478 166.437 118.644C166.326 118.662 166.209 118.682 166.124 118.755C166.041 118.825 166.002 118.934 165.97 119.038ZM179.656 121.812C180.467 121.823 181.28 121.741 182.073 121.571C182.261 121.53 182.46 121.478 182.595 121.34C182.792 121.137 182.79 120.818 182.776 120.535C182.734 119.713 182.692 118.891 182.65 118.068C182.635 117.775 182.602 117.445 182.373 117.261C182.171 117.1 181.887 117.109 181.629 117.127C180.727 117.188 179.825 117.25 178.923 117.311C178.78 117.321 178.63 117.333 178.511 117.412C178.292 117.556 178.259 117.858 178.253 118.12C178.233 118.992 178.269 119.865 178.36 120.732C178.386 120.983 178.423 121.247 178.578 121.446C178.82 121.756 179.263 121.807 179.656 121.812Z" fill="#AD2CFC"/>
<path fill-rule="evenodd" clip-rule="evenodd" d="M178.744 100.096C179.949 99.5744 181.429 99.7492 182.48 100.538C183.53 101.326 184.112 102.698 183.948 104.001C184.687 103.602 185.624 103.208 186.314 103.688C187.092 104.23 186.914 105.396 186.797 106.337C186.593 107.981 186.858 109.681 187.553 111.185C187.84 111.807 188.087 112.749 187.45 113C187.342 113.042 187.225 113.052 187.11 113.061C179.642 113.663 172.174 114.265 164.706 114.867C164.501 114.883 164.272 114.892 164.117 114.757C163.959 114.62 163.939 114.385 163.931 114.176C163.859 112.419 163.788 110.663 163.716 108.906C163.697 108.435 163.688 107.927 163.954 107.538C164.394 106.893 165.317 106.895 166.087 106.772C166.858 106.648 167.755 105.998 167.458 105.276C167.127 104.472 168.254 103.883 169.114 103.753C169.975 103.622 171.116 103.109 170.855 102.279C170.57 101.372 171.818 100.809 172.76 100.684C173.425 100.596 174.12 100.51 174.751 100.738C175.382 100.967 175.915 101.616 175.773 102.271C175.61 103.022 176.524 103.721 177.245 103.456C177.965 103.191 178.257 102.206 177.892 101.53C177.594 100.978 178.168 100.345 178.744 100.096ZM182.6 111.672C182.321 111.154 182.319 110.537 182.316 109.949C182.304 107.186 182.134 104.424 181.808 101.681C181.791 101.542 181.765 101.387 181.652 101.306C181.554 101.236 181.423 101.245 181.303 101.256C180.72 101.31 180.028 101.439 179.798 101.978C179.699 102.208 179.711 102.468 179.724 102.717C179.872 105.486 180.02 108.255 180.168 111.024C180.182 111.282 180.216 111.578 180.431 111.722C180.547 111.801 180.694 111.815 180.835 111.823C181.426 111.855 182.022 111.804 182.6 111.672ZM172.555 107.414C172.483 107.876 172.381 108.334 172.354 108.8C172.309 109.579 172.473 110.353 172.636 111.116C172.741 111.606 173.373 111.847 173.837 111.658C174.3 111.469 174.58 110.975 174.657 110.48C174.734 109.986 174.644 109.483 174.565 108.989C174.256 107.047 174.122 105.078 174.165 103.113C174.176 102.616 173.691 102.166 173.196 102.216C172.701 102.265 172.314 102.8 172.423 103.286C172.725 104.637 172.77 106.046 172.555 107.414ZM177.467 104.762C177.176 104.381 176.508 104.584 176.281 105.007C176.054 105.429 176.124 105.942 176.18 106.418C176.327 107.663 176.341 108.923 176.222 110.17C176.186 110.538 176.147 110.939 176.35 111.248C176.663 111.723 177.348 111.718 177.913 111.661C178.09 111.643 178.294 111.608 178.383 111.454C178.445 111.347 178.431 111.214 178.414 111.091C178.153 109.155 177.893 107.22 177.632 105.285C177.607 105.102 177.579 104.909 177.467 104.762ZM183.936 105.594C183.716 105.893 183.67 106.283 183.651 106.653C183.586 107.923 183.754 109.193 183.922 110.453C183.988 110.95 184.215 111.589 184.715 111.555C185.222 111.52 185.354 110.843 185.342 110.335C185.311 108.99 185.28 107.645 185.249 106.3C185.241 105.947 185.203 105.537 184.91 105.34C184.602 105.133 184.155 105.295 183.936 105.594ZM168.628 105.276C168.628 105.276 168.851 107.031 168.928 107.926C169.026 109.048 169.15 110.169 169.301 111.285C169.323 111.448 169.352 111.623 169.471 111.735C169.679 111.928 170.479 111.8 170.626 111.557C170.774 111.315 170.766 111.012 170.753 110.729C170.712 109.833 170.672 108.936 170.631 108.04C170.587 107.079 170.359 105.007 170.359 105.007M165.726 111.631C165.79 111.832 165.865 112.043 166.028 112.177C166.345 112.44 166.859 112.277 167.11 111.95C167.36 111.623 167.416 111.192 167.464 110.783C167.522 110.281 167.579 109.76 167.417 109.282C167.254 108.803 166.804 108.382 166.301 108.427C165.838 108.468 165.48 108.89 165.372 109.342C165.264 109.794 165.355 110.268 165.467 110.719C165.544 111.026 165.63 111.33 165.726 111.631Z" fill="#E7EAEE"/>
<path fill-rule="evenodd" clip-rule="evenodd" d="M195.999 39.7633C195.396 40.6684 194.742 41.5852 193.809 42.144C192.877 42.7028 191.588 42.8117 190.75 42.1189C189.825 41.3546 189.768 39.9767 189.841 38.7791C189.87 38.318 189.907 37.8533 190.039 37.4106C190.268 36.6429 190.768 35.9878 191.29 35.3803C191.924 34.6433 192.626 33.9324 193.505 33.5176C194.384 33.1029 195.476 33.0301 196.3 33.5461C197.286 34.1638 197.651 35.4777 197.464 36.626C197.277 37.7743 196.644 38.7951 195.999 39.7633M194.084 40.7209C194.845 39.9111 195.497 38.9998 196.018 38.0189C196.361 37.3733 196.653 36.6717 196.639 35.9408C196.625 35.21 196.24 34.4461 195.561 34.1749C194.677 33.8216 193.706 34.3867 192.967 34.9871C192.441 35.4145 191.932 35.8834 191.595 36.4712C191.381 36.8429 191.243 37.2519 191.105 37.6579C190.845 38.4259 190.582 39.2262 190.681 40.0309C190.78 40.8356 191.356 41.6435 192.162 41.7269C192.909 41.804 193.571 41.268 194.084 40.7209Z" fill="#AD2CFC"/>
<path fill-rule="evenodd" clip-rule="evenodd" d="M40.6821 49.9926C41.6266 50.9494 42.4063 52.0684 42.9767 53.2859C43.5499 54.5095 42.972 56.082 41.8471 56.8306C40.7221 57.5791 39.2012 57.5693 37.9677 57.0176C36.7343 56.466 35.7649 55.4364 35.051 54.2892C34.5128 53.4243 34.0955 52.455 34.0508 51.4373C34.006 50.4196 34.3807 49.3486 35.1858 48.7245C36.0001 48.0932 37.1451 48.003 38.1299 48.306C39.1147 48.6089 39.9583 49.2594 40.6821 49.9926M36.9967 49.4108C36.1794 49.3266 35.4534 50.0767 35.3132 50.8863C35.173 51.6959 35.4816 52.5172 35.881 53.2353C36.7469 54.7923 38.2919 56.1753 40.0715 56.0892C40.9862 56.0449 41.9889 55.4112 41.9727 54.4955C41.9656 54.0996 41.7703 53.7342 41.5752 53.3896C41.0569 52.474 40.4971 51.5678 39.7494 50.8275C39.0018 50.0873 38.0433 49.5185 36.9967 49.4108Z" fill="#AD2CFC"/>
<path fill-rule="evenodd" clip-rule="evenodd" d="M112.101 170.44C112.757 169.941 113.573 169.619 114.395 169.672C115.217 169.725 116.031 170.196 116.375 170.945C116.744 171.749 116.514 172.747 115.938 173.418C115.362 174.089 114.494 174.46 113.619 174.582C113.021 174.666 112.308 174.591 111.981 174.084C111.823 173.839 111.787 173.538 111.756 173.248C111.699 172.729 111.642 172.209 111.585 171.689C111.56 171.469 111.537 171.241 111.608 171.031C111.691 170.784 111.893 170.597 112.101 170.44M114.696 171.934C114.791 171.861 114.891 171.782 114.933 171.669C115.066 171.307 114.544 171.067 114.158 171.076C113.599 171.088 112.882 171.465 113.053 171.998C113.152 172.306 113.532 172.449 113.85 172.392C114.169 172.335 114.439 172.132 114.696 171.934H114.696Z" fill="#00160A"/>
<path fill-rule="evenodd" clip-rule="evenodd" d="M205.036 4.29492C210.148 9.58685 214.183 15.9148 216.824 22.7821C217.005 23.2537 217.181 23.7777 217.008 24.2525C215.676 27.9081 213.104 30.9559 210.583 33.9193L205.749 39.6001L205.749 39.6006L205.748 39.601C204.211 41.4084 202.672 43.2161 201.083 44.9781C192.987 53.9508 183.421 61.7966 172.342 66.6241C171.924 66.8063 171.475 66.988 171.025 66.9151C170.575 66.8423 170.153 66.4052 170.271 65.9646C171.64 60.8443 173.019 55.4911 171.92 50.306C171.655 49.0552 171.359 47.4805 172.393 46.7279C180.76 40.6348 186.784 31.9254 192.558 23.3344C194.01 21.1742 195.458 19.008 196.742 16.7444C199.023 12.7256 200.78 8.40956 201.954 3.94014C202.115 3.32682 202.889 3.05064 203.503 3.21137C204.116 3.3721 204.595 3.83884 205.036 4.29492ZM201.458 10.8667C200.939 10.6518 200.46 11.2329 200.195 11.7289C199.922 12.2405 199.649 12.7529 199.376 13.2657L199.358 13.3005L199.345 13.325L199.336 13.3417C194.039 23.2903 188.662 33.3916 180.59 41.2276C179.828 41.968 178.975 42.8624 179.116 43.916C179.566 47.2931 177.763 50.8594 174.777 52.4989C173.421 53.2433 173.437 55.164 173.636 56.698C173.715 57.3122 173.947 58.0819 174.564 58.1339C176.374 58.2865 178.111 59.1774 179.291 60.5585C179.663 60.9942 180.369 60.7219 180.854 60.4169C193.064 52.7407 202.446 41.4023 211.606 30.262C211.922 29.8776 212.259 29.3934 212.094 28.9239C210.708 24.9752 210.93 20.4877 212.699 16.6952C211.655 14.6178 210.411 12.641 208.989 10.8012C206.624 11.8282 203.841 11.8524 201.458 10.8667ZM172.496 64.5962C172.978 64.8485 173.561 64.6087 174.043 64.3571C175.309 63.696 176.529 62.9457 177.69 62.1135C177.997 61.8936 178.088 61.4544 177.98 61.0928C177.872 60.7312 177.6 60.4397 177.299 60.2114C176.36 59.4989 175.048 59.3114 173.947 59.7328C173.744 59.8106 173.542 59.9122 173.402 60.0788C173.237 60.274 173.178 60.5337 173.125 60.7832C172.859 62.0441 172.649 63.3167 172.496 64.5962ZM206.786 8.2372C205.956 6.61497 204.677 5.22573 203.128 4.26572C202.59 4.7406 202.485 5.4622 202.378 6.19785C202.305 6.70265 202.231 7.21407 202.015 7.65692C201.944 7.80105 201.858 7.93892 201.772 8.07649L201.772 8.07662L201.772 8.07678C201.609 8.33885 201.446 8.5998 201.394 8.90076C201.313 9.35981 201.702 9.9357 202.143 9.78381C202.501 9.66032 202.876 9.73965 203.255 9.81965C203.455 9.86188 203.655 9.90429 203.855 9.91717C205.018 9.99223 205.983 9.0812 206.786 8.2372ZM213.362 17.9603C212.473 19.7282 212.614 21.8162 212.775 23.7883L213.007 26.6166C213.033 26.9276 213.202 27.3473 213.502 27.2612C213.688 26.7402 214.042 26.3104 214.398 25.8795C214.709 25.5026 215.02 25.1248 215.221 24.6843C215.899 23.1927 215.146 21.4736 214.404 20.0125L213.362 17.9603ZM173.577 49.3509C173.614 49.9041 174.188 50.3182 174.742 50.3027C175.297 50.2871 175.796 49.9284 176.12 49.4784C176.443 49.0283 176.621 48.4923 176.794 47.9656L177.366 46.226C177.525 45.7411 177.535 44.9996 177.027 44.9426C176.844 44.922 176.67 45.0189 176.519 45.1257C175.951 45.5298 175.537 46.1104 175.134 46.6797L174.036 48.2306C173.798 48.5669 173.549 48.9397 173.577 49.3509ZM42.6389 44.7078C38.782 37.6461 36.3199 29.8261 35.4352 21.8286C35.3808 21.3368 34.8385 21.0182 34.344 21.0354C33.8496 21.0525 33.4005 21.3137 32.98 21.5744C27.0098 25.276 21.9277 30.3995 18.2747 36.3995C17.9049 37.0068 17.5404 37.6518 17.4937 38.3613C17.4479 39.0576 17.7137 39.7331 17.9877 40.3749C22.0174 49.8159 28.7373 57.8234 35.5587 65.494C40.8126 71.402 46.4368 77.3824 53.7624 80.3562C54.9464 80.8368 56.6662 81.0326 57.1682 79.8575C57.3142 79.5156 57.3064 79.131 57.2988 78.759L57.2985 78.7449C57.2178 74.7615 57.6705 70.7675 58.6407 66.9032C58.8652 66.0092 58.9818 64.8034 58.1455 64.4159C55.0001 62.9583 52.8444 60.019 50.8286 57.1986C47.9316 53.1455 45.027 49.0801 42.6389 44.7078ZM49.4477 75.5757C49.0144 75.6913 48.5817 75.418 48.22 75.153C41.5526 70.268 36.3858 63.6564 31.3093 57.1337L22.3506 45.6229C23.8628 44.6598 24.0548 42.5673 24.0877 40.7748C24.1306 38.4448 24.1619 36.0458 23.3202 33.8727C23.1331 33.3897 23.3766 32.8544 23.6375 32.4069C24.7561 30.4876 26.3073 28.8221 28.1425 27.5702C28.3201 27.449 28.5082 27.3286 28.7211 27.2985C29.2831 27.2191 29.7142 27.7657 30.0146 28.2473C31.2007 30.1493 32.8308 32.3003 35.0668 32.1437C35.9183 32.0841 36.3904 33.0869 36.6388 33.9035C39.7276 44.0579 45.5268 53.2168 52.3277 61.3655C53.2115 62.4244 53.4332 63.8536 53.6529 65.2697C53.8979 66.849 54.1405 68.412 55.2957 69.4274C56.2821 70.2943 56.099 71.8513 55.8329 73.1373C55.7784 73.4004 55.7135 73.6823 55.5137 73.8619C55.3652 73.9953 55.1646 74.0508 54.9717 74.1023L49.4477 75.5757ZM33.6416 29.7916C32.4185 28.937 31.362 27.845 30.5484 26.5943C30.3724 26.3237 30.2014 26.0205 30.2323 25.6993C30.2659 25.3499 30.5287 25.0704 30.7902 24.8364C31.436 24.2585 32.1658 23.7746 32.9496 23.4049C33.2366 23.2695 33.6072 23.1595 33.8456 23.3689C33.986 23.4922 34.0303 23.6892 34.067 23.8725L35.1966 29.5223C35.2634 29.8563 34.9131 30.1571 34.5726 30.1668C34.2321 30.1765 33.9208 29.9867 33.6416 29.7916ZM22.4623 40.7193C22.4384 41.782 22.3572 42.9746 21.5608 43.6787C21.3941 43.6985 21.2834 43.5155 21.2181 43.3609C20.6443 42.0026 20.0625 40.6115 19.9722 39.1397C19.8818 37.6679 20.3751 36.0741 21.5778 35.221C21.7405 35.1055 21.9792 35.0102 22.1229 35.1487C22.1806 35.2043 22.2053 35.2851 22.2264 35.3625C22.5531 36.5638 22.5275 37.829 22.4994 39.0736L22.4623 40.7193ZM54.918 76.0681C55.1112 76.2261 55.1317 76.5089 55.137 76.7584L55.1944 79.4899C54.0739 78.8687 53.0004 78.1627 51.9861 77.38C51.7938 77.2316 51.5824 76.9913 51.7002 76.7788C51.7586 76.6734 51.88 76.6227 51.9931 76.581C52.7181 76.3137 53.4678 76.1131 54.2295 75.9827C54.465 75.9424 54.7332 75.9168 54.918 76.0681ZM54.9825 65.3083C54.9722 65.1849 54.9722 65.0505 55.0456 64.9508C55.2391 64.6878 55.659 64.9259 55.8365 65.2C56.2641 65.8602 56.3585 66.7248 56.0834 67.4617C55.4556 66.9235 55.0511 66.1323 54.9825 65.3083ZM221.888 44.5672C223.005 43.1606 225.04 42.9583 226.836 43.0021C227.255 43.0124 227.687 43.0326 228.069 43.2067C229.131 43.6908 229.357 45.0788 229.393 46.2456C229.425 47.3072 229.419 48.3827 229.161 49.4131C228.903 50.4434 228.369 51.4361 227.516 52.0684C227.132 52.3526 226.687 52.5597 226.217 52.6386C225.489 52.7604 224.744 52.5735 224.053 52.3162C223.131 51.9733 222.258 51.5023 221.464 50.9212C221.077 50.6373 220.677 50.2656 220.664 49.7854C220.635 48.6781 220.759 47.5669 221.032 46.4932C221.206 45.8069 221.448 45.1216 221.888 44.5672ZM224.784 51.5721C226.218 51.9838 227.743 50.8744 228.286 49.485C228.83 48.0956 228.629 46.535 228.33 45.0734C228.215 44.5122 227.616 44.1988 227.063 44.0487C226.207 43.8165 225.297 43.7857 224.428 43.9595C223.996 44.0459 223.554 44.1939 223.251 44.5136C223.086 44.6878 222.972 44.9029 222.859 45.1152L222.019 46.7029C221.872 46.9821 221.723 47.2639 221.636 47.5676C221.376 48.476 221.72 49.4848 222.354 50.1851C222.988 50.8854 223.876 51.3114 224.784 51.5721ZM205.592 67.6257C206.907 68.0845 208.098 68.8915 209.013 69.9422C209.799 70.8452 210.397 72.0174 210.232 73.203C210.171 73.6382 210.011 74.0533 209.828 74.4528C209.134 75.9657 207.941 77.4156 206.303 77.7086C205.443 77.8623 204.557 77.6781 203.731 77.3969C202.775 77.0717 201.863 76.6155 201.03 76.0452C200.588 75.7426 200.149 75.3836 199.955 74.8842C199.822 74.5401 199.817 74.1611 199.822 73.792C199.835 72.8791 199.895 71.9508 200.214 71.0951C200.616 70.0124 201.404 69.1187 202.24 68.321C202.576 68.0003 202.932 67.6842 203.364 67.5123C204.07 67.231 204.874 67.3753 205.592 67.6257ZM206.936 75.5828C207.886 74.6425 208.439 73.2793 208.289 71.9509C208.138 70.6225 207.239 69.376 205.982 68.9224C205.459 68.734 204.879 68.6814 204.344 68.8295C204.055 68.9095 203.784 69.0455 203.531 69.2064C202.449 69.8948 201.689 71.0692 201.505 72.3386C201.32 73.6081 201.714 74.9502 202.556 75.9183C203.095 76.5383 203.974 76.8041 204.789 76.7011C205.604 76.5982 206.352 76.1606 206.936 75.5828ZM86.9233 59.7949C86.8792 59.1685 86.0417 59.0044 85.4141 59.0228C82.1189 59.1197 78.8282 59.3666 75.5555 59.7625C75.0179 59.8275 74.9744 60.6942 75.4058 61.0216C75.8372 61.349 76.4382 61.2882 76.9743 61.2118L86.9233 59.7949ZM76.3896 64.0302C76.4179 63.7076 76.8233 63.5909 77.1451 63.5545L96.5534 61.3566C96.9044 61.3168 97.2783 61.2808 97.5942 61.4389C97.9101 61.597 98.1137 62.0295 97.9074 62.3162C97.7553 62.5276 97.4637 62.5705 97.2045 62.5957L77.3534 64.522C76.9407 64.5621 76.3533 64.4433 76.3896 64.0302ZM119.9 67.2995C118.814 67.5381 117.7 67.1463 116.658 66.7571C113.291 65.4986 109.937 64.2054 106.596 62.8778C105.248 62.3418 103.768 63.1444 102.555 63.9411C99.0455 66.2468 95.6662 68.7512 92.4392 71.4385C91.6103 72.1287 90.3347 71.6445 89.4988 70.9627C89.3233 70.8196 89.1505 70.6668 88.9771 70.5136L88.9761 70.5128L88.9748 70.5117L88.9746 70.5114L88.9743 70.5112L88.974 70.5109L88.9737 70.5107L88.9735 70.5105C88.3223 69.9351 87.6628 69.3522 86.8207 69.2328C85.526 69.0491 84.3871 70.0304 83.4491 70.9415L77.3996 76.8166C76.586 77.6067 75.7296 78.8721 76.4537 79.7449C76.9315 80.3209 77.8086 80.2915 78.5519 80.2054C82.4329 79.7555 86.2947 79.1247 90.1552 78.4941C96.5357 77.4519 102.913 76.4103 109.366 76.187C110.796 76.1375 112.227 76.1284 113.658 76.1193C114.554 76.1136 115.45 76.1079 116.346 76.0923C120.387 76.0219 124.424 75.7496 128.438 75.2768C128.632 75.2539 128.853 75.214 128.954 75.0464C129.03 74.9199 129.011 74.7603 128.989 74.6143L127.289 63.0466C127.203 62.4588 127.052 61.7795 126.515 61.5256C125.972 61.269 125.333 61.5997 124.887 62.0021C124.19 62.6318 123.653 63.4679 123.124 64.2928C122.255 65.6459 121.405 66.9687 119.9 67.2995ZM92.291 73.629C95.922 70.6436 99.708 67.8467 103.629 65.2535C104.434 64.721 105.412 64.1758 106.312 64.5254L115.819 68.2197C117.406 68.8363 119.141 69.4609 120.77 68.9665C122.664 68.3919 123.796 66.5078 124.749 64.7738C124.935 64.4366 125.474 64.4754 125.741 64.7524C126.009 65.0295 126.076 65.4373 126.131 65.8182L126.827 70.6423C126.934 71.383 127.039 72.1516 126.825 72.8688C126.611 73.5859 125.982 74.2372 125.234 74.2228C112.996 73.9865 100.734 74.9956 88.7001 77.2295C88.3273 77.2987 87.9544 77.3691 87.5814 77.4395C84.7064 77.9823 81.821 78.5271 78.8993 78.5368C80.31 76.5385 82.0978 74.8413 83.873 73.1584C84.8477 72.2343 86.0664 71.2376 87.375 71.5399C88.0816 71.7031 88.6236 72.2109 89.1629 72.7161C89.3358 72.878 89.5084 73.0398 89.6861 73.1898C90.418 73.8076 91.5512 74.2373 92.291 73.629ZM249.291 107.28C248.967 107.401 248.604 107.318 248.274 107.214C246.036 106.511 244.219 104.938 242.433 103.391C242.191 103.182 241.949 102.973 241.708 102.767C238.748 100.243 235.536 98.0139 232.136 96.1253C231.79 95.9331 231.427 95.7309 231.215 95.3966C231.003 95.0624 231.009 94.5535 231.336 94.3304C232.861 93.2892 233.85 91.5026 233.923 89.6576C233.942 89.1659 234.498 88.8381 234.988 88.8775C235.479 88.9168 235.906 89.2116 236.307 89.4964L251.847 100.527C252.149 100.742 252.475 100.991 252.549 101.354C252.609 101.651 252.485 101.951 252.36 102.227C251.69 103.705 250.919 105.138 250.055 106.513C249.859 106.824 249.636 107.152 249.291 107.28ZM233.745 94.1945C233.562 94.5167 233.404 94.9827 233.7 95.2055L246.381 104.753C247.075 105.276 248.154 105.766 248.701 105.09C249.329 104.314 249.915 103.505 250.457 102.666C250.605 102.437 250.756 102.175 250.703 101.907C250.654 101.663 250.449 101.485 250.255 101.328C245.601 97.5547 240.674 94.1188 235.525 91.0563L233.745 94.1945ZM227.435 100.033C227.639 99.682 227.888 99.2977 228.285 99.2114C228.589 99.1454 228.898 99.2756 229.178 99.4116C230.705 100.153 232.103 101.158 233.293 102.369C233.579 102.66 233.615 103.129 233.487 103.517C233.36 103.905 233.097 104.232 232.84 104.549C232.426 105.058 231.985 105.589 231.375 105.83C230.716 106.091 229.95 105.966 229.326 105.63C228.702 105.294 228.202 104.768 227.76 104.214C227.185 103.491 226.669 102.624 226.759 101.704C226.817 101.101 227.129 100.556 227.435 100.033ZM230.105 104.082C231.065 104.455 231.68 104.159 231.705 103.529C231.721 103.132 231.374 102.826 231.059 102.583L230.105 101.85C229.79 101.607 229.442 101.353 229.044 101.356C228.647 101.358 228.242 101.768 228.405 102.131C228.38 102.307 229.145 103.708 230.105 104.082ZM226.315 111.834C226.549 111.962 226.797 112.088 227.064 112.093C227.331 112.099 227.62 111.948 227.686 111.689C227.84 111.081 228.242 110.578 228.635 110.085C228.678 110.031 228.721 109.977 228.764 109.923C229.194 109.378 229.61 108.76 229.622 108.065C229.633 107.37 229.058 106.629 228.369 106.724C227.827 106.799 227.322 106.443 226.928 106.063L226.891 106.027L226.834 105.972C226.803 105.94 226.772 105.909 226.74 105.878C226.41 105.549 226.075 105.215 225.637 105.072C225.117 104.902 224.407 105.172 224.366 105.718C224.283 106.818 223.369 107.646 222.521 108.352C222.267 108.563 222.496 108.968 222.734 109.197C223.803 110.231 225.011 111.12 226.315 111.834ZM226.484 109.738L224.814 108.608C224.389 108.321 224.424 107.617 224.802 107.272C225.181 106.926 225.769 106.9 226.252 107.073C226.734 107.246 227.136 107.585 227.526 107.918C227.784 108.138 227.82 108.539 227.702 108.857C227.583 109.176 227.343 109.431 227.109 109.676C227.028 109.76 226.939 109.849 226.824 109.864C226.701 109.88 226.586 109.807 226.484 109.738ZM239.724 109.813L240.541 108.077C240.791 107.546 241.033 106.889 240.696 106.408C240.579 106.242 240.406 106.124 240.237 106.01L237.266 104.008C236.945 103.792 236.598 103.567 236.211 103.573C235.754 103.581 235.37 103.908 235.045 104.23C234.558 104.713 234.103 105.227 233.683 105.77C233.363 106.182 233.101 106.862 233.538 107.148L238.084 110.131C238.443 110.366 238.898 110.608 239.275 110.403C239.496 110.283 239.617 110.04 239.724 109.813ZM238.717 108.584C238.526 108.628 238.327 108.58 238.139 108.523C236.991 108.177 235.941 107.515 235.134 106.628C234.865 106.333 235.017 105.813 235.358 105.606C235.699 105.399 236.142 105.447 236.51 105.601C236.748 105.701 236.965 105.84 237.182 105.979C237.302 106.055 237.421 106.131 237.544 106.201C237.676 106.276 237.813 106.345 237.951 106.414C238.342 106.61 238.733 106.806 238.999 107.145C239.36 107.603 239.285 108.454 238.717 108.584ZM240.252 110.522C240.776 110.398 240.936 109.864 241.103 109.308C241.24 108.849 241.382 108.376 241.737 108.108C242.349 107.646 243.214 108.032 243.873 108.424L245.967 109.67C246.301 109.868 246.643 110.074 246.882 110.379C247.121 110.685 247.239 111.118 247.072 111.469C246.96 111.703 246.748 111.858 246.536 112.014C246.361 112.142 246.186 112.271 246.063 112.444C245.906 112.668 245.847 112.947 245.789 113.223C245.716 113.57 245.645 113.912 245.38 114.13C244.898 114.527 244.181 114.209 243.648 113.883L240.698 112.08C240.4 111.898 240.086 111.698 239.94 111.382C239.794 111.065 239.913 110.603 240.252 110.522ZM244.121 112.313C244.543 112.168 244.883 111.855 245.209 111.55C245.445 111.329 245.129 110.965 244.847 110.806L243.039 109.788C242.851 109.682 242.588 109.585 242.442 109.745C241.971 110.259 241.903 111.097 242.284 111.681C242.666 112.264 243.461 112.538 244.121 112.313ZM223.38 112.25C222.975 112.136 222.563 112.019 222.232 111.794C221.719 111.444 221.004 111.529 220.466 111.838C219.927 112.148 219.525 112.644 219.137 113.128C218.921 113.397 218.699 113.677 218.617 114.012C218.534 114.347 218.633 114.753 218.934 114.921L222.086 116.678C222.325 116.811 222.592 116.948 222.858 116.889C223.124 116.83 223.307 116.594 223.467 116.374L224.278 115.258C224.73 114.637 225.202 113.845 224.871 113.152C224.607 112.596 224.002 112.425 223.38 112.25ZM222.382 115.141C222.217 115.184 222.047 115.105 221.895 115.027L219.748 113.934C220.161 113.35 220.946 113.126 221.658 113.197C222.37 113.267 223.031 113.584 223.675 113.896L222.688 114.921C222.6 115.012 222.505 115.108 222.382 115.141ZM207.503 71.4363C207.836 71.9434 207.732 72.6208 207.511 73.1856C207.22 73.9299 206.729 74.6196 206.035 75.0156C205.341 75.4115 204.429 75.4694 203.753 75.0439C203.077 74.6183 202.737 73.6719 203.099 72.9597C203.183 72.795 203.298 72.6491 203.412 72.5031C203.521 72.3634 203.631 72.2237 203.714 72.0675C203.768 71.9646 203.811 71.8555 203.853 71.7466C203.914 71.5894 203.975 71.4326 204.072 71.2954C204.416 70.808 205.094 70.7121 205.691 70.7206C206.368 70.7301 207.132 70.8701 207.503 71.4363ZM205.992 71.7582C205.066 71.7465 204.198 72.5231 204.106 73.4446C204.069 73.8213 204.228 74.2894 204.603 74.3413C204.884 74.3802 205.131 74.1632 205.32 73.9516C205.719 73.5039 206.062 73.006 206.338 72.4733C206.431 72.2946 206.513 72.0653 206.391 71.905C206.302 71.7882 206.139 71.76 205.992 71.7582ZM228.141 47.6057C228.069 46.7578 227.502 45.9238 226.678 45.7113C225.631 45.4415 224.617 46.1785 223.786 46.8698C223.54 47.0744 223.283 47.2943 223.179 47.5966C223.003 48.1096 223.321 48.6502 223.634 49.0933C223.992 49.6009 224.375 50.1111 224.898 50.4465C225.421 50.782 226.118 50.9122 226.667 50.6207C226.947 50.4721 227.164 50.2294 227.353 49.9753C227.861 49.2927 228.212 48.4537 228.141 47.6057ZM225.819 49.7797C225.465 49.8329 225.097 49.6897 224.836 49.4438C224.444 49.0753 224.289 48.4832 224.426 47.9634C224.57 47.4163 225.029 46.9643 225.579 46.8293C226.128 46.6944 226.745 46.882 227.126 47.3003C227.111 47.4142 227.099 47.5289 227.087 47.6437C227.047 48.0336 227.007 48.4243 226.871 48.7906C226.697 49.2647 226.319 49.7048 225.819 49.7797ZM197.645 182.048C199.575 175.22 203.219 169.024 206.825 162.914C207.434 161.881 208.19 160.744 209.373 160.548C209.839 160.47 210.085 159.964 210.244 159.518C212.2 154.032 212.389 147.931 210.775 142.335C210.315 140.737 210.882 139.044 211.443 137.479L215.786 125.363C215.334 124.582 214.48 124.238 213.615 123.891C212.891 123.6 212.159 123.306 211.649 122.749C210.207 121.178 211.295 118.68 212.424 116.871L232.221 85.1666C233.029 83.8718 234.803 83.466 236.29 83.811C237.777 84.156 239.047 85.0918 240.27 86.0053L254.709 96.7894C257.292 98.7187 260.143 101.183 259.994 104.404C259.912 106.186 258.892 107.77 257.906 109.257L246.463 126.499C244.984 128.729 244.804 131.439 244.624 134.162V134.162C244.542 135.394 244.46 136.628 244.258 137.821C243.272 143.643 239.395 148.464 235.68 153.083L235.68 153.083C235.532 153.267 235.384 153.451 235.236 153.635C231.392 158.423 227.546 163.769 227.33 169.906C227.072 177.22 223.598 184.363 218.003 189.081L222.871 177.269C224.029 174.461 225.101 170.966 223.164 168.626C222.287 167.567 220.962 167.007 219.69 166.485L212.129 163.383C211.607 163.169 211.07 162.952 210.506 162.948C208.749 162.938 207.705 164.843 206.992 166.448C204.528 172.003 201.381 177.255 197.645 182.048ZM222.508 166.007C223.805 166.487 225.63 166.779 226.244 165.541C229.218 159.547 232.273 153.437 237.006 148.708C239.734 145.982 241.406 142.345 242.352 138.606C243.298 134.867 243.566 130.995 243.83 127.148C242.682 127.566 242.582 129.116 242.587 130.338C242.598 133.033 242.126 135.729 241.203 138.26C241.009 138.789 240.75 139.362 240.232 139.585C239.714 139.809 238.951 139.36 239.125 138.824C240.461 134.706 240.959 130.319 240.579 126.007C240.462 124.67 240.213 123.24 239.262 122.293C239.365 124.404 239.469 126.524 239.255 128.627C238.884 132.264 237.58 135.733 236.287 139.153C236.12 139.597 235.917 140.081 235.49 140.29C235.064 140.499 234.402 140.168 234.513 139.706L236.449 131.703C237.514 127.303 238.561 122.57 236.913 118.353C236.083 118.297 235.887 119.484 235.962 120.313C236.469 125.987 234.9 131.62 233.347 137.101C233.166 137.741 232.524 138.541 232.025 138.101C231.81 137.911 231.8 137.584 231.818 137.298C231.916 135.686 232.358 134.126 232.799 132.567C232.936 132.083 233.073 131.599 233.2 131.114C234.367 126.644 234.664 121.948 234.071 117.366C233.049 118.677 232.615 120.339 232.205 121.951L229.775 131.516C228.677 135.839 227.273 140.593 223.464 142.916C223.161 143.101 222.809 143.273 222.463 143.191C222.034 143.089 221.79 142.645 221.611 142.241C219.18 136.766 218.876 130.378 220.777 124.696C220.892 124.352 220.542 123.991 220.179 123.963C219.817 123.934 219.477 124.132 219.18 124.341C216.062 126.542 214.867 130.528 213.875 134.214L212.556 139.114C212.363 139.83 212.17 140.553 212.129 141.293C212.068 142.418 212.362 143.518 212.654 144.613L212.654 144.613C212.722 144.867 212.79 145.12 212.853 145.374C214.121 150.465 213.548 155.995 211.262 160.718C210.925 161.415 211.815 162.048 212.541 162.317L222.508 166.007ZM227.435 119.236C226.915 118.878 226.358 118.469 226.197 117.858C225.951 116.922 226.842 115.981 227.802 115.855C228.763 115.729 229.702 116.193 230.497 116.745C231.618 117.522 233.037 116.337 233.876 115.261C232.744 114.584 231.664 113.533 231.619 112.215C231.575 110.896 233.178 109.641 234.244 110.416C234.658 110.718 235.159 110.902 235.654 111.084C236.396 111.357 237.126 111.625 237.533 112.275C237.995 113.014 237.831 114.013 237.36 114.747C236.889 115.481 236.163 116.007 235.455 116.516C236.472 116.617 237.461 116.979 238.302 117.559L239.219 114.888C239.29 114.681 239.367 114.464 239.53 114.318C239.844 114.036 240.333 114.123 240.735 114.251C241.791 114.586 242.826 115.109 243.522 115.97C244.219 116.83 244.509 118.081 244.023 119.075C243.536 120.07 242.162 120.6 241.231 120C241.038 119.876 240.844 119.71 240.65 119.544L240.65 119.543C240.131 119.099 239.612 118.654 239.111 119.01C240.641 120.201 241.691 121.99 241.986 123.906C246.8 116.572 251.563 109.205 256.274 101.804C256.724 101.098 257.086 99.984 256.354 99.5778C253.226 97.8423 250.461 95.518 247.702 93.1992C244.22 90.2723 240.749 87.3543 236.57 85.6407C236.305 85.5319 236.015 85.4267 235.738 85.4998C235.448 85.5764 235.243 85.8291 235.06 86.0675C227.28 96.2226 220.297 106.989 214.198 118.234C213.347 119.803 214.486 121.673 215.575 123.086C216.119 123.793 217.17 124.539 217.764 123.873C218.512 123.035 219.739 122.555 220.799 122.93C221.858 123.304 222.518 124.683 221.941 125.647C221.525 126.345 222.341 127.121 223.053 127.512C224.478 128.292 225.939 129.005 227.43 129.648C227.638 129.737 227.879 129.825 228.081 129.724C228.273 129.628 228.351 129.399 228.411 129.192L230.064 123.507C230.335 122.572 230.517 121.359 229.715 120.807L227.435 119.236ZM256.992 103.299C256.772 103.224 256.572 103.444 256.443 103.636L244.072 122.155C243.739 122.653 243.398 123.171 243.301 123.763C243.204 124.354 243.421 125.041 243.959 125.304C244.85 125.74 245.782 124.824 246.354 124.014L257.848 107.723C258.702 106.513 257.979 104.86 257.249 103.572C257.186 103.461 257.113 103.341 256.992 103.299ZM222.16 128.028C221.943 127.87 221.617 127.964 221.435 128.163C221.252 128.361 221.178 128.633 221.109 128.893C220.94 129.534 220.77 130.182 220.745 130.845C220.72 131.507 220.84 132.166 220.96 132.818L222.145 139.258C222.195 139.528 222.253 139.815 222.444 140.011C222.636 140.208 223.009 140.251 223.164 140.024C224.917 137.46 226.695 134.845 227.613 131.877C227.727 131.508 227.76 130.989 227.398 130.853C225.536 130.153 223.769 129.2 222.16 128.028ZM235.841 112.139C235.248 111.574 234.463 111.213 233.647 111.129C232.903 111.053 232.474 112.098 232.814 112.764C233.153 113.43 233.903 113.76 234.597 114.039C235.087 114.235 235.681 114.42 236.108 114.11C236.722 113.664 236.391 112.663 235.841 112.139ZM230.957 119.602C231.199 119.429 231.231 119.077 231.163 118.788C230.908 117.698 229.713 117.141 228.64 116.822C228.224 116.698 227.708 116.612 227.416 116.932C227.171 117.198 227.223 117.64 227.434 117.934C227.645 118.227 227.974 118.409 228.293 118.58L229.95 119.473C230.265 119.642 230.666 119.809 230.957 119.602ZM240.388 115.673C240.037 116.143 240.073 116.826 240.366 117.334C240.659 117.842 241.166 118.195 241.701 118.436C241.884 118.518 242.085 118.59 242.282 118.551C242.452 118.517 242.597 118.403 242.701 118.265C243.084 117.753 242.898 116.982 242.459 116.518C242.02 116.053 241.396 115.82 240.796 115.602C240.692 115.565 240.571 115.528 240.477 115.585C240.441 115.607 240.413 115.64 240.388 115.673ZM74.1632 158.265C74.3927 156.569 74.7143 154.702 76.0467 153.628C77.1093 152.772 78.5678 152.635 79.9323 152.609C84.402 152.523 88.8861 153.249 93.1004 154.741C94.4336 155.212 95.829 155.834 96.5579 157.046C97.347 158.358 97.1547 160.013 96.9365 161.528L93.5516 185.043C95.8856 178.233 97.5612 171.197 98.5476 164.067C99.0078 160.74 99.1682 156.922 96.8464 154.496C93.2219 150.708 93.3207 145.313 93.4213 139.826C93.508 135.092 93.596 130.289 91.2928 126.395C90.5413 125.124 92.2168 123.812 93.6102 123.324C99.7521 121.174 106.299 120.187 112.802 120.432C113.994 129.85 114.317 139.377 113.764 148.854C113.64 150.979 116.654 151.528 118.771 151.293L192.178 143.153C192.545 143.113 192.943 143.058 193.203 142.796C193.507 142.49 193.522 142.009 193.518 141.578C193.345 124.378 192.85 107.182 192.033 90.0016C192.001 89.331 191.916 88.5611 191.361 88.1836C190.945 87.9005 190.397 87.938 189.896 87.9866L137.501 93.0658C140.943 76.8317 144.404 60.293 142.834 43.7725C131.381 51.4092 116.601 51.3519 102.858 50.5433C102.287 50.5096 101.715 50.4754 101.141 50.4412C87.916 49.6508 74.1244 48.8266 62.235 54.5474C68.4603 71.0532 74.757 89.0697 69.5822 105.934C69.1244 107.426 68.5797 108.892 68.0352 110.357C67.1957 112.616 66.3568 114.873 65.8381 117.222C64.9828 121.096 65.1114 125.433 67.4038 128.671C70.7234 133.359 73.3613 138.689 73.963 144.402C74.534 149.823 73.2582 155.199 71.9838 160.57C70.6523 166.181 69.3224 171.786 70.1023 177.428C70.2342 178.382 70.4725 179.409 71.2198 180.017L74.1632 158.265ZM79.3569 90.1417C80.745 90.1908 81.2968 91.9336 81.4743 93.3112L82.8798 104.22C80.1356 102.798 76.275 105.213 76.3538 108.303C74.0414 103.839 73.6901 98.7241 73.3423 93.6606C73.2666 92.5591 73.1911 91.46 73.0956 90.3706C72.0747 78.721 68.5638 67.4531 65.0746 56.2916C64.577 54.7001 66.7261 53.668 68.376 53.4261C79.2029 51.8387 90.1606 52.0579 101.123 52.2772C106.093 52.3766 111.063 52.476 116.022 52.4072C124.835 52.2849 134.159 51.4509 141.308 46.2958C142.914 57.0067 140.731 67.8134 138.574 78.4838C138.283 79.9272 137.992 81.3681 137.71 82.806C135.35 94.8732 133.744 107.736 138.26 119.173C138.45 119.655 137.801 120.018 137.294 120.124C133.58 120.898 129.74 121.065 125.973 120.616C124.357 120.423 122.758 120.118 121.158 119.813C119.954 119.584 118.75 119.354 117.537 119.172C108.413 117.803 98.8881 119.224 90.5604 123.197C90.2266 123.356 89.8296 123.282 89.4801 123.161C87.7936 122.577 86.5904 121.019 85.9901 119.338C85.3898 117.657 85.3038 115.843 85.2237 114.06L84.8878 106.582C84.8758 106.314 84.9461 105.949 85.215 105.94C99.8031 105.485 114.375 104.501 128.892 102.992C128.278 99.5577 128.217 96.0248 128.712 92.5709C129.025 90.3906 126.974 88.4025 124.791 88.1108C122.608 87.819 120.449 88.808 118.636 90.0592C117.958 90.5273 117.307 91.0357 116.656 91.5438C115.567 92.3939 114.479 93.2432 113.268 93.9014C112.475 94.3322 111.522 94.6797 110.689 94.3318C109.67 93.906 109.328 92.6939 109.024 91.6119C109.004 91.5439 108.985 91.4764 108.966 91.4096C108.569 90.0161 107.913 88.6294 106.759 87.753C105.605 86.8767 103.864 86.6584 102.725 87.5541C101.751 88.3199 101.443 89.646 101.28 90.8741C101.265 90.9833 101.251 91.0931 101.237 91.2033C101.093 92.3324 100.943 93.4995 100.269 94.4049C99.5296 95.3987 97.8791 95.8247 97.0679 94.8884C95.4636 93.0367 92.6484 92.6483 90.2861 93.2982C87.9238 93.948 85.9025 95.449 83.9425 96.9191C82.7602 95.0689 82.6624 92.5774 83.696 90.6401L83.7133 90.6078C83.9076 90.2442 84.1309 89.8265 83.9591 89.456C83.8527 89.2266 83.618 89.0859 83.3855 88.9862C81.9956 88.3902 80.2196 88.8995 79.3569 90.1417ZM121.127 121.413C121.904 121.568 122.86 121.914 122.908 122.705C123.366 130.249 129.362 137.029 136.733 138.699C144.104 140.369 152.274 136.992 156.572 130.775C160.87 124.558 161.207 115.921 157.682 109.235C153.903 102.064 144.717 98.2564 136.973 100.649C136.613 99.0649 136.654 97.3913 137.089 95.826C137.17 95.5353 137.276 95.2315 137.51 95.0417C137.739 94.8563 138.049 94.8141 138.342 94.7789L160.158 92.1513C162.076 91.9203 163.998 91.689 165.93 91.673C174.237 91.6046 182.538 90.7762 190.695 89.2018C191.962 106.221 192.558 123.29 192.482 140.356C192.478 141.165 192.232 142.241 191.423 142.265C177.693 142.665 164.071 144.471 150.444 146.278C141.289 147.492 132.131 148.706 122.937 149.494C120.887 149.67 118.824 149.824 116.776 149.629C116.405 149.594 115.986 149.518 115.785 149.204C115.663 149.015 115.649 148.779 115.639 148.554L114.415 121.257C114.399 120.904 114.42 120.479 114.726 120.302C114.928 120.185 115.182 120.227 115.411 120.273L121.127 121.413ZM83.564 115.093C83.3471 116.511 83.103 118.106 84.0318 119.178C87.4962 123.179 91.0953 127.454 92.0162 132.666C92.4462 135.1 92.2615 137.604 92.0775 140.099C91.8457 143.241 91.6152 146.368 92.6159 149.315C92.642 149.392 92.669 149.469 92.696 149.547C92.8799 150.072 93.0673 150.608 93.0077 151.156C92.9393 151.786 92.393 152.419 91.7692 152.311L84.5266 151.062C82.1281 150.649 79.5942 150.246 77.316 151.102C76.8755 151.268 76.3685 150.977 76.1324 150.57C75.8964 150.163 75.8653 149.673 75.8449 149.203C75.8202 148.635 75.8016 148.064 75.783 147.491C75.666 143.885 75.5468 140.212 73.878 137.053L68.5533 126.973C67.7673 125.485 66.9628 123.931 66.9086 122.249C66.8724 121.126 67.1756 120.023 67.4762 118.94L70.1325 109.371C70.6918 107.357 71.2834 105.278 72.6078 103.661C75.8252 109.119 76.1426 116.181 73.4281 121.906C73.1769 122.436 73.944 122.981 74.4909 122.77C75.0378 122.559 75.3154 121.96 75.5082 121.406C76.2803 119.189 76.5511 116.852 76.8223 114.511C77.0416 112.617 77.2613 110.721 77.747 108.884C78.0445 107.759 78.4737 106.611 79.3424 105.837C80.2111 105.062 81.628 104.797 82.5383 105.522C83.2349 106.077 83.4614 107.025 83.5939 107.906C83.9435 110.229 83.9419 112.605 83.5892 114.928C83.5809 114.983 83.5725 115.038 83.564 115.093ZM96.0609 96.203C97.1284 97.02 98.174 97.8203 99.4549 97.6721C101.083 97.4837 102.098 95.8077 102.571 94.2383C102.674 93.8949 102.766 93.5434 102.858 93.1911C103.188 91.9338 103.52 90.6666 104.382 89.7206C104.633 89.4456 104.994 89.1898 105.35 89.2975C105.639 89.3848 105.807 89.677 105.941 89.947C106.13 90.3296 106.31 90.7186 106.49 91.1078C106.997 92.2053 107.504 93.3034 108.239 94.257C109.236 95.5489 110.787 96.565 112.409 96.3872C113.859 96.2283 114.993 95.2013 116.097 94.2002C116.324 93.995 116.549 93.7908 116.775 93.5955C119.436 91.3013 122.901 89.9591 126.412 89.8624C125.939 91.0461 126.255 92.3373 126.565 93.6045C126.639 93.9095 126.713 94.2132 126.776 94.5136C127.272 96.8836 127.021 99.4041 126.069 101.63L102.614 103.436C97.1383 103.857 91.649 104.279 86.1607 104.086C85.814 104.074 85.4585 104.057 85.1396 103.921C84.5372 103.663 84.1793 103.02 84.0497 102.378C83.759 100.938 84.423 99.438 85.4286 98.367C86.4342 97.2959 87.7476 96.5746 89.0375 95.8712C90.3798 95.1393 91.8701 94.3829 93.3667 94.6954C94.3626 94.9033 95.2186 95.5583 96.0609 96.203ZM140.475 130.369C136.922 130.296 133.843 127.397 132.788 124.003C132.573 123.31 133.021 122.55 133.639 122.17C134.257 121.789 135.004 121.699 135.725 121.618L140.932 121.034C139.349 117.956 138.221 114.645 137.597 111.241C137.54 110.932 137.489 110.607 137.586 110.309C137.758 109.785 138.322 109.509 138.845 109.334C143.075 107.912 148.154 109.638 150.641 113.343C153.129 117.048 152.803 122.404 149.883 125.779C148.619 127.24 146.963 128.318 145.218 129.148C143.73 129.856 142.123 130.403 140.475 130.369ZM157.337 112.078C157.969 114.166 158.152 116.362 158.238 118.541C156.819 118.326 155.385 118.204 153.949 118.176C153.668 114.51 151.228 111.198 148.02 109.401C144.812 107.604 140.94 107.215 137.315 107.831C137.284 107.314 137.19 106.775 137.096 106.235C136.847 104.812 136.598 103.389 137.519 102.379C138.074 101.769 138.921 101.525 139.733 101.374C143.428 100.685 147.369 101.407 150.581 103.36C153.794 105.313 156.247 108.48 157.337 112.078ZM131.277 123.633C131.271 123.701 131.265 123.768 131.262 123.831C131.238 124.338 131.474 124.803 131.708 125.263C131.77 125.386 131.833 125.509 131.89 125.632C132.161 126.216 132.292 126.984 131.84 127.441C130.744 128.547 129.776 129.778 128.961 131.104C128.759 131.432 128.263 131.458 127.932 131.263C127.6 131.068 127.394 130.719 127.203 130.385C125.991 128.272 124.749 126.062 124.598 123.631C124.579 123.328 124.612 122.963 124.88 122.822C124.998 122.76 125.138 122.758 125.271 122.757L130.691 122.741C130.821 122.74 130.957 122.742 131.069 122.806C131.335 122.957 131.305 123.308 131.277 123.633Z" fill="#00160A"/>
</svg>
