<svg width="260" height="241" viewBox="0 0 260 241" fill="none" xmlns="http://www.w3.org/2000/svg">
<path fill-rule="evenodd" clip-rule="evenodd" d="M188.532 160.612C165.937 211.752 84.1709 210.105 27.2769 175.2C16.4113 168.534 -20.9387 137.114 15.8225 118.766C52.5838 100.419 40.8091 72.2378 70.4767 38.6251C104.786 -0.246443 168.678 -20.1833 213.613 32.1166C327.823 165.044 196.14 143.391 188.532 160.612Z" fill="#AD2CFC"/>
<path fill-rule="evenodd" clip-rule="evenodd" d="M184.78 20.86L183.467 20.8157L183.43 21.9818C183.368 24.0801 183.397 26.3248 183.428 28.7722C183.45 30.4777 183.473 32.2817 183.467 34.2033L183.249 37.9977C183.255 41.5327 183.28 46.453 183.324 52.7587L183.467 70.709C182.502 71.0289 181.777 71.8619 181.632 72.8751C180.836 72.9963 180.225 73.6721 180.225 74.4853C180.225 75.0608 180.531 75.5672 180.992 75.8573L180.431 77.2145C180.181 77.8174 179.77 78.3329 179.241 78.7052C176.921 80.337 175.555 82.9799 175.588 85.7749C175.588 85.8492 175.59 85.9232 175.593 85.9971C175.603 86.2652 175.833 86.4716 176.107 86.4644C176.38 86.4544 176.594 86.2291 176.584 85.9612C176.581 85.8956 176.58 85.8299 176.579 85.764C176.55 83.2852 178.199 80.9413 180.257 79.494C180.938 79.0145 181.468 78.3523 181.787 77.5792L181.955 76.1149H182.66C182.66 76.1149 182.905 77.4328 182.905 78.463C182.905 79.4932 182.66 81.5338 182.66 81.5338H181.848C180.917 81.5338 180.16 82.2753 180.16 83.1867C180.16 84.098 180.917 84.8395 181.848 84.8395H181.964C182.895 84.8395 183.214 84.3634 183.214 83.1867C183.214 82.5707 183.282 82.13 184.287 82.13C185.292 82.13 185.033 83.1867 185.033 83.1867C185.033 84.098 185.79 84.8395 186.721 84.8395H186.837C187.768 84.8395 188.525 84.098 188.525 83.1867C188.525 82.2753 186.955 81.5044 186.025 81.5044C186.025 81.5044 185.777 79.6501 185.777 78.7052C185.777 77.9089 186.025 76.2806 186.025 76.2806H185.033C185.033 76.2806 185.24 77.8004 185.24 78.7279C185.24 79.6554 185.033 81.5044 185.033 81.5044C185.033 81.5044 184.487 81.6031 184.226 81.6086C183.966 81.6142 183.652 81.5338 183.652 81.5338C183.652 81.5338 183.434 79.6379 183.434 78.7279C183.434 77.818 183.652 76.1149 183.652 76.1149H185.033H186.025H186.73L187.335 77.5788C187.639 78.3142 188.55 78.9598 189.244 79.4517L189.332 79.5141C191.344 80.9424 192.107 83.2458 192.107 85.6757C192.107 87.7281 191.285 89.6519 189.792 91.0927C188.3 92.5332 186.324 93.7479 184.226 93.7178C182.563 93.6941 180.863 92.7776 179.533 91.7843C178.246 90.8225 176.579 88.1917 176.301 87.5844C176.024 86.9772 175.893 87.9355 175.974 88.1917C176.508 89.8851 177.601 91.4142 179.051 92.4976C180.55 93.6179 182.335 94.2242 184.212 94.251C186.577 94.2844 188.805 93.4088 190.488 91.7843C192.171 90.1596 193.098 87.9902 193.098 85.6757C193.098 82.9356 191.744 80.3383 189.476 78.7279C188.924 78.3356 188.501 77.8122 188.254 77.2142L187.693 75.8573C188.154 75.5673 188.46 75.0609 188.46 74.4853C188.46 73.6722 187.849 72.9964 187.053 72.8751C186.89 71.7327 185.989 70.8194 184.838 70.6124L184.774 70.6124L184.014 53.9201C183.969 47.5663 184.563 34.8667 184.563 34.8667C184.574 29.983 184.634 25.7013 184.743 22.0219L184.78 20.86ZM186.721 83.8685C186.337 83.8685 186.025 83.5627 186.025 83.1868V82.1301C186.025 82.1301 187.533 82.4322 187.533 83.1868C187.533 83.8791 187.27 83.8749 186.931 83.8695H186.93C186.9 83.869 186.869 83.8685 186.837 83.8685H186.721ZM180.772 83.1867C180.837 84.1361 182.806 84.5499 182.66 83.1867V82.13C182.66 82.13 180.708 82.2373 180.772 83.1867ZM182.642 72.8557C182.825 72.1014 183.518 71.5386 184.342 71.5386C185.167 71.5386 185.86 72.1015 186.042 72.8557H182.642ZM186.797 73.8267H186.585H182.1H181.888C181.518 73.8267 181.216 74.1222 181.216 74.4853C181.216 74.8484 181.518 75.1438 181.888 75.1438H186.797C187.167 75.1438 187.469 74.8484 187.469 74.4853C187.469 74.1222 187.167 73.8267 186.797 73.8267ZM195.291 78.0544H196.158C196.402 78.0544 196.6 77.8584 196.6 77.6166C196.6 77.3748 196.402 77.1789 196.158 77.1789H195.291C195.047 77.1789 194.849 77.3748 194.849 77.6166C194.849 77.8584 195.047 78.0544 195.291 78.0544ZM194.603 81.1536L195.437 81.5044C195.672 81.6033 195.786 81.8835 195.691 82.1301C195.597 82.3767 195.33 82.4963 195.095 82.3975L194.261 82.0466C194.026 81.9477 193.912 81.6676 194.007 81.421C194.078 81.233 194.25 81.1189 194.432 81.1189C194.489 81.1189 194.547 81.13 194.603 81.1536ZM193.859 74.0145L194.64 73.3878C194.86 73.2112 194.915 72.861 194.763 72.6056C194.669 72.448 194.517 72.3633 194.364 72.3633C194.268 72.3633 194.172 72.3958 194.088 72.4633L193.307 73.09C193.087 73.2667 193.032 73.6169 193.184 73.8722C193.336 74.1274 193.639 74.1911 193.859 74.0145ZM172.956 78.0544H172.089C171.845 78.0544 171.647 77.8584 171.647 77.6166C171.647 77.3748 171.845 77.1789 172.089 77.1789H172.956C173.2 77.1789 173.398 77.3748 173.398 77.6166C173.398 77.8584 173.2 78.0544 172.956 78.0544ZM173.644 81.1536L172.811 81.5044C172.576 81.6033 172.461 81.8835 172.556 82.1301C172.65 82.3767 172.917 82.4963 173.152 82.3975L173.986 82.0466C174.221 81.9477 174.335 81.6676 174.241 81.421C174.169 81.2331 173.997 81.1189 173.815 81.1189C173.758 81.1189 173.7 81.13 173.644 81.1536ZM174.388 74.0145L173.607 73.3878C173.387 73.2112 173.332 72.861 173.484 72.6057C173.579 72.448 173.73 72.3633 173.884 72.3633C173.979 72.3633 174.075 72.3958 174.159 72.4633L174.94 73.09C175.16 73.2666 175.215 73.6168 175.063 73.8721C174.911 74.1273 174.609 74.1912 174.388 74.0145Z" fill="#B2DF4B"/>
<path d="M120.108 143.099C124.937 144.37 127.415 147.395 129.507 150.212C131.604 153.028 126.995 151.688 124.451 150.671C121.908 149.655 115.783 145.895 115.783 145.895L95.4794 139.754V130.363L101.551 130.008C101.551 130.008 115.275 141.828 120.108 143.099Z" fill="white"/>
<path d="M99.0698 74.3203C103.412 90.756 105.654 106.482 106.008 121.568C106.008 121.568 110.075 122.076 109.568 125.635C109.06 129.194 98.3825 138.852 98.3825 138.852L94.6833 126.591L93.3 81.4074L99.0698 74.3203Z" fill="white"/>
<path fill-rule="evenodd" clip-rule="evenodd" d="M100.551 82.7319L98.0578 81.0779C97.8985 80.9723 97.6884 81.0544 97.6311 81.2446L96.7615 84.1326C96.6891 84.3731 96.9055 84.5985 97.1297 84.5163L100.493 83.2823C100.722 83.1982 100.757 82.8685 100.551 82.7319ZM100.249 83.2093L97.185 84.0957L98.0972 81.4691L100.249 83.2093Z" fill="#B2DF4B"/>
<path fill-rule="evenodd" clip-rule="evenodd" d="M99.457 103.526L96.9634 101.872C96.8041 101.766 96.594 101.849 96.5367 102.039L95.6671 104.927C95.5947 105.167 95.8111 105.393 96.0353 105.31L99.3986 104.076C99.6278 103.992 99.6629 103.663 99.457 103.526ZM99.1551 104.003L96.0907 104.89L97.0029 102.263L99.1551 104.003Z" fill="#B2DF4B"/>
<path fill-rule="evenodd" clip-rule="evenodd" d="M98.1459 115.208L98.3315 112.222C98.3434 112.031 98.1672 111.89 97.9738 111.936L95.0379 112.627C94.7934 112.684 94.7064 112.984 94.8898 113.137L97.6401 115.433C97.8276 115.589 98.1306 115.455 98.1459 115.208ZM97.5815 115.186L95.2816 112.975L98.0125 112.452L97.5815 115.186Z" fill="#B2DF4B"/>
<path fill-rule="evenodd" clip-rule="evenodd" d="M102.872 113.005L99.8855 112.82C99.6948 112.808 99.5539 112.984 99.5994 113.177L100.29 116.113C100.348 116.358 100.648 116.445 100.801 116.261L103.097 113.511C103.253 113.324 103.119 113.02 102.872 113.005ZM102.849 113.57L100.639 115.869L100.115 113.139L102.849 113.57Z" fill="#B2DF4B"/>
<path fill-rule="evenodd" clip-rule="evenodd" d="M100.567 128.23L97.8873 129.562C97.7161 129.647 97.6822 129.87 97.8183 130.015L99.8846 132.212C100.057 132.395 100.36 132.321 100.401 132.085L101.014 128.556C101.056 128.315 100.788 128.12 100.567 128.23ZM100.829 128.73L100.064 131.827L98.2459 129.724L100.829 128.73Z" fill="#B2DF4B"/>
<path fill-rule="evenodd" clip-rule="evenodd" d="M101.88 119.912L99.2006 121.245C99.0295 121.33 98.9955 121.553 99.1316 121.697L101.198 123.895C101.37 124.078 101.673 124.003 101.714 123.768L102.327 120.238C102.369 119.997 102.101 119.802 101.88 119.912ZM102.142 120.412L101.378 123.509L99.5591 121.406L102.142 120.412Z" fill="#B2DF4B"/>
<path d="M84.5104 84.2037L81.5644 93.0976C74.8302 113.467 71.5142 123.806 71.4147 124.775C71.3528 125.377 71.7179 125.827 72.2809 125.98C72.6193 126.072 73.0332 126.067 73.5471 125.991C74.3468 125.872 75.416 125.572 76.7069 125.126C77.7048 124.782 78.7831 124.368 79.8754 123.921L80.335 123.731C80.4843 123.669 80.6295 123.608 80.77 123.548L81.4999 123.234L81.7083 123.142L81.8294 122.949C82.0447 122.606 82.3512 122.001 82.6536 121.17C82.9194 120.44 83.1311 119.658 83.2704 118.833L83.3192 118.521C83.3625 118.218 83.7788 117.516 84.6373 116.317L85.2357 115.498C85.7264 114.837 86.6706 113.573 86.7655 113.445L87.3207 112.693C87.8514 111.97 88.3146 111.324 88.767 110.673C91.0371 107.404 92.6411 104.544 93.5874 101.791C94.3901 99.4559 94.6716 97.2923 94.3538 95.3034C93.867 92.2672 94.0535 89.3662 94.764 86.6435C95.3544 84.3812 93.4871 82.2941 90.7952 81.5268C88.0137 80.734 85.3637 81.632 84.5104 84.2037Z" fill="white"/>
<path d="M89.4411 71.0515C91.0819 72.7929 92.4586 74.1209 93.5713 75.0355C95.4455 76.576 98.1323 78.2271 101.632 79.9887C90.928 82.4674 84.3922 82.9574 82.0242 81.4588C82.0242 81.4588 83.0106 76.8175 84.4277 74.829C85.4829 73.3484 89.4411 71.0515 89.4411 71.0515Z" fill="white"/>
<path d="M106.467 48.6766C104.244 57.1229 98.1674 65.9409 91.6971 64.238C85.2269 62.5346 81.6459 50.9902 83.8698 42.5438C86.0936 34.0975 93.1418 28.631 99.612 30.334C106.082 32.0369 108.691 40.2307 106.467 48.6766Z" fill="white"/>
<path d="M107.948 51.3703C105.431 61.0364 98.5545 71.1278 91.2321 69.1789C83.9098 67.2296 79.8572 54.018 82.374 44.3519C84.8907 34.6859 92.867 28.43 100.189 30.3789C107.512 32.3277 110.464 41.7047 107.948 51.3703Z" fill="white"/>
<path fill-rule="evenodd" clip-rule="evenodd" d="M96.2619 31.4906C101.252 31.774 104.893 33.4133 106.935 36.3017L107.165 36.6357C108.174 38.0927 109.023 39.0097 109.394 41.7675L109.43 42.0606C109.642 43.8748 109.704 45.7886 109.595 46.4237C109.537 46.692 109.421 46.7857 109.276 46.7573C108.946 46.6928 108.092 45.1752 106.714 42.2044L105.558 43.5583C104.928 44.2854 103.593 44.9708 102.802 45.4859C102.011 46.001 96.2619 31.4906 96.2619 31.4906Z" fill="#E7EAEE"/>
<path fill-rule="evenodd" clip-rule="evenodd" d="M101.3 58.9286C104.078 60.0874 106.189 61.5924 106.748 60.9665C107.308 60.3405 105.4 58.4344 103.917 55.8456C102.364 53.2712 100.89 50.0284 100.614 48.7091L99.9083 45.3744C97.8438 47.9797 95.9108 56.7209 101.3 58.9286Z" fill="white"/>
<path d="M133.602 218.107L133.452 227.38H128.177L126.598 216.74L133.602 218.107Z" fill="white"/>
<path d="M75.8394 168.799C75.8394 168.799 110.061 168.043 120.819 166.492C132.761 164.769 139.292 160.698 141.89 161.179C143.106 161.405 150.29 162.678 165.279 164.272C171.618 164.946 188.073 165.05 188.073 165.05L194.46 151.456C194.46 151.456 149.517 142.433 135.307 146.339C130.838 147.567 121.159 149.34 109.651 148.692C99.7002 148.133 72.6362 142.876 72.6362 142.876C72.6362 142.876 61.709 146.798 63.6869 156.445C65.6649 166.091 75.8394 168.799 75.8394 168.799Z" fill="white"/>
<path fill-rule="evenodd" clip-rule="evenodd" d="M190.798 157.273L192.902 151.181C192.902 151.181 148.034 142.812 133.825 146.717C129.355 147.946 125.316 149.971 113.809 149.324C109.403 149.076 101.871 148.045 91.2123 146.231C85.8204 145.313 84.9542 145.653 89.1919 148.424C99.019 154.85 120.878 153.336 140.712 150.44C177.573 145.058 190.798 157.273 190.798 157.273Z" fill="#E7EAEE"/>
<path d="M127.648 220.213C125.416 222.679 122.456 226.742 123.98 230.809L150.417 238.943C150.417 238.943 151.432 235.891 149.909 233.352C148.381 230.809 133.957 220.775 133.957 220.775L127.648 220.213Z" fill="white"/>
<path fill-rule="evenodd" clip-rule="evenodd" d="M139.851 225.722C140.026 225.675 140.206 225.778 140.254 225.953C140.301 226.128 140.198 226.308 140.023 226.356C139.162 226.589 138.594 227.133 138.395 227.822C138.137 228.713 138.109 229.624 138.401 231.082C138.437 231.259 138.322 231.433 138.144 231.468C137.966 231.504 137.793 231.389 137.758 231.211C137.445 229.652 137.476 228.634 137.764 227.639C138.028 226.727 138.772 226.014 139.851 225.722Z" fill="#E7EAEE"/>
<path fill-rule="evenodd" clip-rule="evenodd" d="M125.293 231.247L151.302 238.899C151.302 238.899 154.605 238.205 151.189 237.72C147.68 237.221 127.134 227.813 124.875 229.527C124.553 229.77 125.094 230.715 125.293 231.247Z" fill="#E7EAEE"/>
<path d="M60.4872 166.859C60.4872 166.859 72.2231 170.563 81.6737 171.952C91.1242 173.341 109.975 174.131 109.975 174.131C109.975 174.131 115.86 177.33 116.24 178.812C116.388 179.389 117.28 187.014 119.745 196.756C120.905 201.338 127.103 222.06 127.103 222.06L135.307 218.429C135.307 218.429 134.978 180.341 129.741 167.709C124.504 155.077 70.6747 142.807 70.6747 142.807C70.6747 142.807 59.2503 140.741 56.1401 150.084C53.03 159.426 60.4872 166.859 60.4872 166.859Z" fill="white"/>
<path fill-rule="evenodd" clip-rule="evenodd" d="M128.417 220.747L136.62 217.115C136.401 191.724 134.545 174.817 131.054 166.396C131.054 166.396 134.622 211.229 128.417 220.747Z" fill="#E7EAEE"/>
<path d="M199.954 157.772C201.995 160.4 205.482 164.019 209.752 163.225L222.353 138.602C222.353 138.602 219.11 137.168 216.345 138.227C213.575 139.29 201.395 152.001 201.395 152.001L199.954 157.772Z" fill="white"/>
<path fill-rule="evenodd" clip-rule="evenodd" d="M145.222 230.094C145.353 229.969 145.56 229.973 145.686 230.104C145.811 230.235 145.807 230.443 145.676 230.568C144.913 231.299 144.772 232.524 145.209 233.263C145.302 233.42 145.25 233.621 145.094 233.713C144.938 233.806 144.737 233.754 144.644 233.598C144.054 232.601 144.234 231.04 145.222 230.094Z" fill="#E7EAEE"/>
<path fill-rule="evenodd" clip-rule="evenodd" d="M142.54 227.929C142.672 227.805 142.88 227.811 143.004 227.944C143.128 228.076 143.121 228.284 142.989 228.408L142.812 228.578C141.431 229.937 141.035 231.125 142.251 232.399C142.376 232.531 142.371 232.739 142.24 232.864C142.109 232.989 141.901 232.984 141.776 232.853C140.877 231.911 140.693 230.894 141.091 229.875C141.365 229.173 141.843 228.584 142.54 227.929Z" fill="#E7EAEE"/>
<path fill-rule="evenodd" clip-rule="evenodd" d="M129.903 227.499C130.656 228.94 134.658 228.348 133.961 224.364C133.632 222.479 127.815 223.509 129.903 227.499Z" fill="#E7EAEE"/>
<path fill-rule="evenodd" clip-rule="evenodd" d="M207.254 163.683C212.542 157.641 215.581 144.051 219.935 139.375C221.472 137.724 223.466 137.354 221.32 141.262C217.393 148.411 209.847 163.683 209.847 163.683C209.448 163.883 208.954 163.683 208.508 163.683H207.254Z" fill="#E7EAEE"/>
<path d="M120.108 143.099C124.937 144.37 127.415 147.395 129.507 150.212C131.604 153.028 126.995 151.688 124.451 150.671C121.908 149.655 117.042 145.796 117.042 145.796L120.108 143.099Z" fill="white"/>
<path d="M76.1256 131.661C76.1256 131.661 103.307 143.338 107.137 143.353C110.963 143.369 120.354 147.928 120.861 151.487C121.479 155.816 105.102 149.454 105.102 149.454C105.102 149.454 68.4996 149.454 62.4015 143.353C56.2994 137.253 60.3659 124.544 60.3659 124.544L76.1256 131.661Z" fill="white"/>
<path d="M69.5152 77.2668C69.5152 77.2668 76.1256 81.3333 77.1412 94.5509C78.1568 107.768 74.0899 123.527 74.0899 123.527C74.0899 123.527 76.6334 125.561 77.1412 127.594C77.649 129.628 76.1037 132.312 76.1037 132.312C76.1037 132.312 60.8745 139.795 59.8576 140.303C58.8411 140.811 54.7742 139.286 54.7742 135.219C54.7742 131.153 56.2994 127.594 56.2994 127.594C57.0291 100.765 52.7407 74.7247 69.5152 77.2668Z" fill="white"/>
<path fill-rule="evenodd" clip-rule="evenodd" d="M96.4423 49.1419C98.0059 47.0481 101.311 46.3663 102.193 49.6718C102.193 49.6718 102.87 51.6663 101.505 52.8986C97.3207 56.6737 94.8786 51.2356 96.4423 49.1419Z" fill="white"/>
<path fill-rule="evenodd" clip-rule="evenodd" d="M105.174 51.4131C106.659 49.424 109.799 48.7763 110.637 51.9166C110.637 51.9166 111.281 53.8113 109.983 54.982C106.008 58.5685 103.688 53.4022 105.174 51.4131Z" fill="white"/>
<path d="M93.0104 76.8744C93.0104 76.8744 93.0104 101.311 93.3694 114.966C93.7284 128.622 90.5983 142.076 84.6184 152.598C78.6384 163.12 79.4523 178.172 75.0443 179.291C40.1782 188.14 49.5653 79.8417 62.4658 72.9213C75.3664 66.0008 79.6278 64.5349 79.6278 64.5349" fill="white"/>
<path fill-rule="evenodd" clip-rule="evenodd" d="M75.1291 83.7304L72.1243 88.2167C71.8751 88.5888 72.0633 89.0957 72.4949 89.215L76.5044 90.3236C76.9704 90.4525 77.4112 90.0506 77.3257 89.5747L76.321 83.9798C76.2166 83.3985 75.4577 83.2397 75.1291 83.7304ZM75.7821 84.4208L76.6794 89.6908L73.1929 88.2168L75.7821 84.4208Z" fill="#B2DF4B"/>
<path fill-rule="evenodd" clip-rule="evenodd" d="M65.4614 79.3485L61.9204 85.0324C61.6943 85.3954 61.87 85.8743 62.2773 86.0049L68.46 87.987C68.9749 88.1521 69.4574 87.659 69.2813 87.1478L66.6396 79.4818C66.4595 78.9592 65.7537 78.8793 65.4614 79.3485ZM66.3011 80.0413L68.1101 87.1478L62.7495 85.0324L66.3011 80.0413Z" fill="#B2DF4B"/>
<path fill-rule="evenodd" clip-rule="evenodd" d="M63.2799 122.351L65.6885 131.403C65.8366 131.959 66.5778 132.069 66.8812 131.58L70.4623 125.806C70.6609 125.486 70.55 125.064 70.2195 124.884L64.2297 121.606C63.7233 121.329 63.1314 121.793 63.2799 122.351ZM63.9145 122.62L69.4666 125.46L66.3232 131.234L63.9145 122.62Z" fill="#B2DF4B"/>
<path fill-rule="evenodd" clip-rule="evenodd" d="M58.4566 155.588L59.7699 161.793C59.8904 162.362 60.6371 162.505 60.9592 162.021L64.5073 156.682C64.7691 156.289 64.5412 155.755 64.0756 155.672L59.2143 154.806C58.7557 154.724 58.3601 155.133 58.4566 155.588ZM59.6025 155.49L63.8155 156.984L60.1802 161.135L59.6025 155.49Z" fill="#B2DF4B"/>
<path fill-rule="evenodd" clip-rule="evenodd" d="M69.8387 154.275L71.152 160.48C71.2725 161.049 72.0192 161.192 72.3413 160.707L75.8893 155.369C76.1511 154.975 75.9233 154.442 75.4577 154.359L70.5963 153.493C70.1377 153.411 69.7422 153.819 69.8387 154.275ZM70.4464 154.815L75.3513 154.679L71.315 159.865L70.4464 154.815Z" fill="#B2DF4B"/>
<path fill-rule="evenodd" clip-rule="evenodd" d="M63.7099 141.58L65.0232 147.784C65.1437 148.354 65.8904 148.497 66.2125 148.012L69.7605 142.674C70.0223 142.28 69.7945 141.747 69.3289 141.664L64.4675 140.797C64.0089 140.715 63.6134 141.124 63.7099 141.58ZM64.3523 141.444L68.7758 142.748L65.2278 147.211L64.3523 141.444Z" fill="#B2DF4B"/>
<path fill-rule="evenodd" clip-rule="evenodd" d="M209.075 161.658C208.745 162.302 208.204 162.571 207.482 162.612C204.911 162.754 202.874 161.62 201.055 159.968C200.366 159.342 199.755 158.629 199.064 158.005C198.578 157.565 198.058 157.279 197.299 157.551C196.719 157.76 196.037 157.681 195.402 157.746C193.971 157.892 192.543 158.083 191.108 158.187C190.193 158.253 190.171 159.034 189.956 159.572C189.471 160.789 189.108 162.057 188.722 163.312C188.572 163.8 188.333 163.993 187.786 163.986C185.051 163.953 182.316 163.955 179.582 163.978C178.336 163.988 177.09 164.137 175.846 164.109C173.507 164.056 171.165 163.981 168.832 163.802C166.576 163.628 164.332 163.303 162.08 163.063C160.499 162.894 158.908 162.805 157.333 162.591C155.502 162.342 153.686 161.98 151.859 161.699C150.944 161.559 150.015 161.517 149.1 161.383C147.53 161.152 145.96 160.912 144.401 160.621C142.954 160.351 141.593 160.631 140.231 161.081C137.579 161.956 134.92 162.811 132.26 163.662C131.787 163.813 131.647 163.938 131.861 164.512C132.644 166.621 133.378 168.752 134.016 170.908C134.466 172.43 134.778 173.998 135.066 175.561C135.42 177.476 135.716 179.403 135.98 181.333C136.182 182.807 136.31 184.292 136.442 185.775C136.61 187.66 136.769 189.545 136.896 191.433C137.023 193.313 137.129 195.195 137.2 197.078C137.321 200.275 137.412 203.473 137.508 206.671C137.566 208.608 137.603 210.545 137.666 212.481C137.685 213.043 137.865 213.62 137.78 214.16C137.715 214.567 137.426 215.136 137.094 215.264C136.239 215.593 135.993 216.229 136 217.105C136.01 218.223 136.15 219.342 136.121 220.458C136.102 221.169 136.374 221.666 136.891 222.043C139.241 223.757 141.614 225.439 143.962 227.154C145.076 227.968 146.176 228.806 147.244 229.68C148.388 230.616 149.509 231.582 150.6 232.579C151.687 233.573 152.265 234.788 152.448 236.304C152.59 237.479 152.44 238.571 152.244 239.689C152.142 240.271 151.809 240.509 151.204 240.312C148.66 239.482 146.122 238.636 143.566 237.845C139.344 236.539 135.111 235.27 130.883 233.986C129.375 233.529 127.868 233.072 126.359 232.62C125.435 232.343 125.239 231.514 125.068 230.764C124.58 228.63 125.21 226.688 126.336 224.898C127.024 223.803 127.827 222.779 128.58 221.725C129.195 220.863 129.037 219.981 128.732 219.049C127.741 216.015 126.766 212.975 125.829 209.924C124.904 206.912 123.987 203.896 123.149 200.86C122.263 197.65 121.459 194.417 120.65 191.187C120.211 189.439 119.798 187.684 119.443 185.917C119.178 184.597 119.028 183.253 118.819 181.921C118.57 180.329 118.42 178.71 118.011 177.161C117.834 176.494 117.187 175.884 116.623 175.4C115.394 174.348 113.982 173.564 112.448 173.028C112.069 172.896 111.659 172.804 111.259 172.789C109.356 172.717 107.452 172.698 105.549 172.622C103.691 172.547 101.833 172.444 99.9774 172.319C98.0636 172.19 96.1512 172.036 94.2408 171.864C92.1959 171.68 90.1437 171.535 88.1137 171.241C85.9615 170.931 83.829 170.479 81.6933 170.061C80.9988 169.925 80.4914 170.347 80.3837 171.326C80.1482 173.467 79.4207 175.457 78.5566 177.405C77.9333 178.81 76.7576 179.513 75.307 179.752C74.2717 179.923 73.211 180.087 72.1694 180.047C69.2051 179.935 66.5614 178.957 64.2099 177.077C61.2274 174.693 59.4824 171.507 57.9966 168.11C57.3308 166.588 56.4737 165.135 55.9512 163.568C55.3836 161.866 55.0964 160.07 54.7012 158.312C54.3936 156.944 54.0798 155.576 53.8211 154.198C53.6165 153.108 53.4877 152.004 53.3322 150.906C53.1257 149.446 52.9221 147.986 52.7257 146.525C52.6608 146.042 52.5966 145.556 52.5763 145.07C52.5127 143.547 52.4815 142.023 52.4169 140.501C52.3263 138.366 52.1572 136.232 52.129 134.096C52.0807 130.444 52.0857 126.789 52.1295 123.136C52.1487 121.532 52.2844 119.927 52.4285 118.327C52.5924 116.509 52.8408 114.699 53.0219 112.882C53.1512 111.586 53.1917 110.28 53.3403 108.985C53.5584 107.087 53.7977 105.188 54.1013 103.302C54.4625 101.058 54.8755 98.8216 55.3121 96.5909C56.1383 92.3697 57.0996 88.1742 58.6733 84.1634C59.6758 81.6082 60.7221 79.0015 62.7687 77.0726C63.6545 76.2377 64.8854 75.7565 65.9862 75.1639C69.0073 73.5374 72.0443 71.9404 75.0664 70.3158C75.2077 70.2399 75.329 70.0191 75.3521 69.851C75.4322 69.2685 75.3966 68.6622 75.5397 68.0992C75.6329 67.7325 75.8902 67.3301 76.1943 67.1084C77.2138 66.3647 78.2819 65.6867 79.3452 65.0049C79.5354 64.8829 79.8049 64.776 80.0139 64.8098C81.1348 64.9908 81.6972 64.301 82.0814 63.4523C82.6017 62.3031 83.0766 61.1274 83.4802 59.9325C84.1487 57.9534 84.8229 55.9693 85.3287 53.9459C85.5032 53.2479 85.2347 52.4153 85.0771 51.6633C84.7563 50.1331 84.4902 48.5748 83.9738 47.1081C83.6437 46.1704 82.9756 45.3199 82.3372 44.5286C80.6865 42.4827 79.8195 40.1912 80.097 37.5658C80.2176 36.4258 80.7066 35.3634 81.5593 34.5351C82.5628 33.5604 83.5916 32.6118 84.5982 31.6403C85.3321 30.932 85.2794 30.3905 84.3239 29.6981C82.9866 28.7291 81.7042 27.6821 80.4249 26.636C79.3323 25.7426 78.8622 24.4661 78.5728 23.1576C78.1791 21.3775 78.1318 19.5815 78.8579 17.844C80.0191 15.0652 81.6925 12.7718 84.7557 11.9071C87.4554 11.1451 90.1486 11.1967 92.5715 12.7271C94.7731 14.1177 96.1714 16.1889 96.7865 18.7453C97.5083 21.7453 96.6866 24.4451 95.1704 27.0129C95.0434 27.228 95.0305 27.5104 94.9646 27.7615C95.19 27.8041 95.4141 27.8748 95.6411 27.8851C98.5571 28.0179 101.456 28.3416 104.067 29.7316C107.495 31.5559 109.651 34.4474 110.602 38.2107C110.745 38.7741 110.743 39.3797 110.762 39.9672C110.826 41.9707 110.831 43.977 110.949 45.9769C110.974 46.3945 111.294 46.9069 111.635 47.1744C113.274 48.458 113.832 51.6013 112.307 53.462C112.155 53.6482 112.025 53.853 111.875 54.0416C111.29 54.7787 110.44 55.1365 109.595 54.9859C108.875 54.8576 108.814 55.1001 108.576 55.6318C108.068 56.7661 107.46 57.8636 106.805 58.9213C105.926 60.3391 105.029 61.7552 104.013 63.0745C103.399 63.8712 102.57 64.5124 101.793 65.1705C100.85 65.9687 99.8535 66.7027 98.8936 67.4811C98.4149 67.8693 97.89 68.0698 97.2782 67.9815C96.6439 67.89 96.2869 68.2468 96.1012 68.7604C95.7425 69.7527 95.4183 70.7593 95.1352 71.7754C95.0756 71.9895 95.202 72.3018 95.3315 72.5149C96.4632 74.3777 97.5873 76.2462 98.7698 78.0768C99.7295 79.5624 100.821 80.9647 101.749 82.4683C102.324 83.3983 102.704 84.4481 103.169 85.4452C103.981 87.1847 104.81 88.9165 105.585 90.672C105.745 91.0332 105.788 91.4958 105.732 91.8901C105.651 92.464 105.085 92.6474 104.472 92.2768C103.759 91.8463 103.087 91.3432 102.42 90.8424C102.007 90.5323 101.635 90.1669 101.242 89.8291C101.197 89.79 101.136 89.7689 101.082 89.7395C101.074 89.808 101.049 89.8787 101.059 89.9447C101.169 90.7168 101.257 91.4934 101.405 92.2585C101.557 93.0486 101.789 93.8231 101.95 94.6119C102.268 96.1789 102.577 97.7484 102.862 99.3218C103.183 101.091 103.491 102.863 103.77 104.64C103.913 105.553 103.962 106.481 104.086 107.398C104.272 108.784 104.507 110.164 104.681 111.552C104.776 112.31 104.797 113.078 104.839 113.842C104.897 114.884 104.935 115.926 104.995 116.968C105.142 119.538 105.291 122.107 105.453 124.676C105.493 125.313 105.868 125.803 106.441 125.985C108.072 126.503 109.213 128.407 108.938 129.997C108.874 130.367 108.792 130.749 108.63 131.082C108.239 131.882 108.748 132.336 109.254 132.752C110.076 133.427 110.933 134.061 111.791 134.69C113.828 136.184 115.88 137.658 117.918 139.151C119.763 140.504 121.8 141.444 123.986 142.111C125.74 142.646 127.233 143.661 128.635 144.83C129.325 145.405 129.921 146.255 131.012 146.045C132.557 145.748 134.097 145.426 135.637 145.109C136.102 145.013 136.558 144.873 137.024 144.793C138.65 144.513 139.609 143.363 140.566 142.173C141.278 141.288 142.072 140.469 142.812 139.606C144.269 137.909 145.711 136.199 147.167 134.501C147.891 133.657 148.636 132.832 149.367 131.994C151.428 129.633 153.476 127.262 155.549 124.912C156.636 123.681 157.768 122.489 158.874 121.274C159.172 120.947 159.49 120.628 159.725 120.259C160.083 119.697 160.449 119.524 161.148 119.751C162.677 120.246 162.65 120.151 161.581 121.324C159.666 123.425 157.814 125.584 155.929 127.711C155.007 128.751 154.055 129.764 153.14 130.811C151.536 132.647 149.956 134.505 148.355 136.345C147.218 137.65 146.068 138.944 144.918 140.237C144.028 141.238 143.125 142.228 142.238 143.231C142.161 143.319 142.099 143.562 142.127 143.579C142.344 143.715 142.588 143.916 142.816 143.907C144.675 143.834 146.53 143.692 148.389 143.629C149.78 143.581 151.175 143.581 152.567 143.629C154.349 143.691 156.135 143.767 157.909 143.938C159.887 144.127 161.853 144.432 163.825 144.682C165.847 144.938 167.876 145.149 169.89 145.453C171.904 145.757 173.901 146.166 175.909 146.5C177.573 146.777 179.249 146.982 180.91 147.272C183.029 147.64 185.138 148.069 187.254 148.458C188.739 148.731 190.231 148.969 191.716 149.242C193.148 149.505 194.573 149.81 196.007 150.065C196.91 150.225 197.822 150.387 198.735 150.425C199.118 150.44 199.606 150.232 199.889 149.962C202.062 147.896 204.167 145.759 206.348 143.704C208.79 141.403 211.343 139.231 214.096 137.3C215.356 136.416 216.767 136.571 218.139 136.69C218.939 136.759 219.712 137.144 220.496 137.393C221.139 137.598 221.196 137.995 220.91 138.556C219.611 141.105 218.335 143.666 217.036 146.215C215.913 148.418 214.769 150.611 213.597 152.846C212.065 155.809 210.572 158.734 209.075 161.658ZM88.8698 142.859C89.5527 140.884 90.1519 138.877 90.6904 136.857C91.0403 135.546 91.2387 134.191 91.4635 132.849C91.6944 131.47 91.8876 130.084 92.0743 128.698C92.291 127.089 92.6285 125.478 92.6547 123.863C92.7073 120.622 92.5732 117.377 92.5374 114.133C92.5156 112.151 92.5041 110.168 92.5428 108.186C92.5732 106.627 91.6662 105.465 91.0052 104.187C90.565 103.336 90.1006 102.477 89.8195 101.568C89.3039 99.9013 88.8846 98.2023 88.4851 96.5026C88.2119 95.3404 88.0105 94.1588 87.8308 92.9777C87.6229 91.611 87.1735 90.3274 86.5902 89.0872C86.5412 88.9831 86.1313 88.9072 86.0873 88.9661C85.8523 89.2809 85.677 89.641 85.4871 89.9888C85.1492 90.6077 84.6356 91.197 84.5182 91.8561C84.2838 93.1731 83.6768 94.3032 83.0564 95.4334C82.6702 96.1368 82.0199 96.1549 81.5682 95.5095C81.0825 94.8157 80.5581 94.1153 80.2482 93.339C79.5197 91.5139 78.8673 89.6553 78.2607 87.7854C77.4635 85.3281 76.7117 82.855 75.9961 80.3727C75.6224 79.0768 75.25 77.7604 75.0931 76.4278C74.9393 75.1213 75.0611 73.7826 75.057 72.458C75.0566 72.3396 75.0204 72.2212 75.0009 72.1028C74.9472 72.1449 74.8981 72.1955 74.8391 72.228C73.4508 72.9917 72.0712 73.7718 70.6696 74.5103C69.2796 75.2428 67.8828 75.9661 66.4606 76.6329C64.9021 77.3635 63.3379 78.1173 62.4351 79.648C61.4585 81.304 60.3171 82.8825 59.7288 84.7494C59.1222 86.6738 58.4362 88.5762 57.9083 90.5217C57.3683 92.5117 57.0006 94.5479 56.5139 96.5532C56.2031 97.8342 55.6909 99.0766 55.4869 100.371C55.1758 102.345 54.9835 104.345 54.872 106.341C54.7763 108.054 54.7836 109.772 54.5523 111.479C54.3728 112.804 54.2508 114.137 54.0891 115.465C53.8429 117.486 53.4004 119.504 53.3688 121.528C53.2988 126.01 53.4833 130.494 53.4624 134.978C53.4515 137.327 53.8019 139.624 54.0786 141.94C54.3858 144.511 54.5678 147.097 54.861 149.67C55.0603 151.418 55.2596 153.177 55.6326 154.893C56.2398 157.688 56.8921 160.48 57.7029 163.221C58.7145 166.64 60.1997 169.862 62.2909 172.783C63.5978 174.609 65.193 176.105 67.1624 177.18C69.8323 178.637 72.6956 178.511 75.5643 178.066C76.0347 177.993 76.6435 177.631 76.845 177.23C77.4096 176.107 77.903 174.922 78.2245 173.709C78.6813 171.985 78.8832 170.194 79.3313 168.467C80.0703 165.62 81 162.82 81.6963 159.964C82.2699 157.61 83.3628 155.487 84.3125 153.299C85.0113 151.689 85.8379 150.135 86.6835 148.479C87.4179 146.608 88.2133 144.757 88.8698 142.859ZM114.071 171.925C115.453 172.77 116.807 173.665 118.122 174.611C118.942 175.201 119.532 176.059 119.712 177.051C120.129 179.347 120.405 181.669 120.808 183.969C121.091 185.582 121.497 187.174 121.833 188.779C122.106 190.086 122.359 191.396 122.618 192.706C122.873 193.992 123.122 195.28 123.38 196.566C123.576 197.546 123.78 198.525 123.987 199.503C124.322 201.085 124.589 202.685 125.022 204.24C125.449 205.771 126.091 207.241 126.559 208.762C127.339 211.293 128.306 213.744 129.427 216.143C129.692 216.711 130.139 216.597 130.404 216.493C132.08 215.837 133.734 215.121 135.377 214.383C135.895 214.15 136.171 213.699 136.147 213.083C136.082 211.409 136.037 209.734 135.991 208.06C135.936 206.056 135.889 204.053 135.838 202.049C135.788 200.088 135.777 198.124 135.675 196.165C135.575 194.251 135.387 192.342 135.229 190.432C135.032 188.052 134.848 185.67 134.615 183.294C134.453 181.653 134.306 180.002 133.995 178.386C133.458 175.587 132.798 172.812 132.192 170.027C131.485 166.781 130.121 163.953 127.423 161.828C125.369 160.21 123.214 158.765 120.883 157.611C118.305 156.334 115.699 155.091 113.023 154.041C109.964 152.841 106.993 151.325 103.624 151.049C102.006 150.916 100.401 150.633 98.7856 150.461C97.4896 150.323 96.183 150.284 94.8876 150.142C92.8373 149.918 90.7949 149.62 88.7427 149.418C88.4549 149.39 88.0216 149.66 87.8451 149.921C87.4394 150.519 87.1341 151.188 86.8174 151.843C85.8285 153.888 84.6701 155.874 83.9177 158.004C82.9236 160.817 82.2487 163.744 81.4425 166.623C80.9856 168.255 80.9759 168.327 82.3983 168.626C84.044 168.971 85.7159 169.2 87.3833 169.429C88.4739 169.579 89.5791 169.621 90.6736 169.746C92.7477 169.985 94.8166 170.27 96.8922 170.494C98.2129 170.636 99.5407 170.722 100.867 170.801C102.85 170.919 104.833 171.029 106.818 171.101C108.006 171.144 109.197 171.109 110.539 171.109C111.785 171.086 113.002 171.272 114.071 171.925ZM173.621 162.45C174.9 162.51 176.178 162.573 177.458 162.6C180.424 162.663 183.39 162.713 186.357 162.749C186.949 162.756 187.482 162.511 187.642 161.901C188.501 158.62 190.191 155.578 190.409 152.106C190.464 151.226 190.082 150.604 189.183 150.447C188.246 150.283 187.32 150.053 186.385 149.875C185.209 149.65 184.028 149.454 182.85 149.237C181.793 149.043 180.737 148.841 179.682 148.637C178.909 148.488 178.14 148.323 177.367 148.177C175.886 147.897 174.405 147.623 172.924 147.352C171.911 147.167 170.899 146.976 169.882 146.813C169.094 146.686 168.298 146.607 167.508 146.492C165.838 146.248 164.17 145.995 162.501 145.745C161.548 145.603 160.596 145.446 159.641 145.317C158.367 145.145 157.09 144.855 155.815 144.862C152.617 144.88 149.418 145.02 146.22 145.145C144.691 145.205 143.159 145.29 141.639 145.462C140.789 145.558 139.971 145.827 139.354 146.543C138.349 147.711 137.269 148.815 136.254 149.973C135.613 150.705 135.013 151.475 134.427 152.252C133.651 153.28 132.706 153.905 131.354 153.8C129.14 153.629 126.923 153.503 124.709 153.333C123.887 153.27 123.069 153.148 122.252 153.033C120.866 152.839 119.485 152.614 118.098 152.433C116.771 152.259 115.441 152.115 114.11 151.978C113.734 151.94 113.35 151.961 112.972 151.982C112.896 151.986 112.828 152.115 112.756 152.187C112.833 152.222 112.912 152.255 112.988 152.294C113.654 152.642 114.302 153.029 114.988 153.332C116.999 154.22 119.073 154.98 121.034 155.966C123.88 157.397 126.537 159.146 128.952 161.247C129.701 161.899 130.42 162.383 131.648 162.22C133.595 161.961 135.414 161.48 137.161 160.63C139.512 159.486 141.905 158.548 144.608 159.108C146.173 159.433 147.746 159.717 149.308 160.052C150.297 160.264 151.263 160.614 152.26 160.762C153.497 160.945 154.756 160.978 156.004 161.086C158.275 161.284 160.545 161.494 162.816 161.691C164.358 161.825 165.9 161.946 167.519 162.148C169.553 162.25 171.587 162.355 173.621 162.45ZM94.5018 118.573C94.5243 119.18 94.5 119.788 94.5102 120.395C94.5575 123.234 94.6021 126.073 94.6656 128.912C94.684 129.735 94.6479 130.585 94.8366 131.375C95.2186 132.974 95.7198 134.546 96.208 136.118C96.417 136.792 96.7077 137.433 97.4687 137.699C98.1309 137.931 98.7722 138.223 99.4356 138.451C100.42 138.788 100.722 138.661 101.364 137.76C101.576 137.462 101.821 137.187 102.06 136.909C103.598 135.115 105.182 133.359 106.663 131.52C107.757 130.162 107.567 127.978 105.736 127.277C105.54 127.202 105.344 127.111 105.14 127.069C104.058 126.845 104.108 126.847 104.072 125.826C103.944 122.173 104.372 118.511 103.798 114.863C103.569 113.406 103.664 111.9 103.453 110.439C103.125 108.166 102.672 105.911 102.255 103.651C101.862 101.514 101.467 99.3761 101.036 97.246C100.714 95.6566 100.327 94.0803 99.9807 92.4957C99.7164 91.2872 99.5088 90.0644 99.1896 88.871C99.1033 88.5484 98.7029 88.3097 98.4467 88.0325C98.147 88.3219 97.6218 88.5858 97.5856 88.9052C97.4019 90.5242 97.1522 92.1748 97.2945 93.7816C97.4579 95.6271 97.7348 97.4568 97.3825 99.2892C96.9811 101.377 96.3132 103.382 95.1818 105.209C94.5546 106.222 94.0861 107.272 94.1928 108.525C94.2984 109.765 94.3327 111.013 94.3504 112.258C94.3755 114.029 94.3568 115.801 94.3568 117.724C94.4074 118.007 94.4913 118.289 94.5018 118.573ZM86.535 55.8382C86.4072 56.0361 86.23 56.2179 86.1593 56.4344C85.4377 58.6426 84.7787 60.8724 84.0075 63.0628C83.5429 64.3825 82.8136 65.5601 81.6079 66.3894C80.7319 66.9919 79.9148 67.6793 79.0576 68.3102C78.6349 68.6212 78.7241 68.8906 78.9878 69.2684C79.7766 70.3987 80.6103 71.5104 81.2687 72.7155C82.1774 74.3787 82.9557 76.114 83.7644 77.8305C84.5523 79.5029 85.3752 81.1637 86.0576 82.8793C86.6374 84.3369 86.9493 85.902 87.5457 87.3513C88.0849 88.6614 88.6633 89.9528 88.8587 91.356C88.9251 91.8331 89.0798 91.837 89.4413 91.8357C91.6141 91.828 93.7124 91.5409 95.5443 90.2474C95.7009 90.1369 95.8335 89.9096 95.8632 89.7188C95.9351 89.2572 95.9228 88.7832 95.9769 88.318C96.0151 87.9899 96.2291 87.6351 96.1524 87.3491C95.867 86.2856 95.4871 85.2477 95.1551 84.1964C94.5209 82.1881 93.6889 80.2009 93.6322 78.0821C93.5745 75.9262 93.7684 73.7606 93.9161 71.6036C93.9763 70.7237 94.1489 69.8407 94.3714 68.9854C94.6323 67.9822 94.5703 67.7077 93.6649 67.2184C92.1749 66.4132 90.8904 65.3303 89.9722 63.9337C88.4737 61.6545 87.3223 59.2016 86.9114 56.3663C86.7859 56.1903 86.6604 56.0142 86.535 55.8382ZM108.149 55.1656C108.19 55.0837 108.559 54.828 108.011 54.7356C107.457 54.6423 106.832 54.3735 106.451 53.9769C105.705 53.1989 105.088 52.2927 104.461 51.4087C104.283 51.1585 104.221 51.0067 103.971 51.3067C103.813 51.4971 103.607 51.6482 103.449 51.8389C102.078 53.4944 100.107 54.1973 98.2614 53.7373C96.0487 53.1858 94.6997 50.8267 94.6695 48.7799C94.6575 47.9639 94.3994 47.2802 93.7477 46.8109C92.6632 46.0298 91.5476 45.2908 90.4328 44.5527C89.8088 44.1396 89.2142 44.2747 89.0532 44.9263C88.6544 46.5396 88.1579 48.1566 88.0187 49.799C87.8464 51.8311 87.9283 53.8826 88.4136 55.9103C89.231 59.3263 90.2922 62.5724 93.0799 64.9798C94.8772 66.5319 97.0973 66.8811 99.2373 65.9418C101.358 65.0108 102.661 63.2889 103.929 61.4967C104.994 59.9903 106.057 58.4815 107.196 56.8979C107.518 56.3228 107.852 55.7536 108.149 55.1656ZM199.998 156.624C201.472 158.499 203.186 160.064 205.531 160.821C206.98 161.289 207.51 161.207 208.312 159.678C209.948 156.561 211.564 153.433 213.176 150.303C213.82 149.053 214.415 147.778 215.06 146.528C216.319 144.088 217.595 141.655 218.872 139.224C219.105 138.78 218.884 138.378 218.54 138.332C217.349 138.173 216.091 137.833 214.985 138.569C213.526 139.539 212.058 140.515 210.716 141.636C208.68 143.335 206.719 145.128 204.788 146.946C203.913 147.771 203.173 148.743 202.395 149.668C201.779 150.399 200.99 151.014 200.756 152.012C200.54 152.935 200.326 153.859 200.111 154.934C199.859 155.485 199.577 156.087 199.998 156.624ZM149.815 238.137C150.162 238.164 150.831 238.006 150.835 237.913C150.88 236.606 151.127 235.22 149.954 234.199C148.429 232.873 146.951 231.485 145.361 230.242C142.795 228.236 140.154 226.325 137.544 224.377C136.611 223.681 135.683 222.941 134.496 222.76C133.433 222.597 132.35 222.576 131.283 222.434C130.384 222.313 129.771 222.703 129.225 223.351C127.9 224.921 126.937 226.667 126.572 228.706C126.287 230.304 126.801 231.184 128.091 231.564C130.548 232.287 132.986 233.07 135.438 233.809C137.195 234.339 138.968 234.817 140.721 235.358C143.278 236.147 145.823 236.973 148.526 237.783C148.955 237.908 149.379 238.102 149.815 238.137ZM98.2312 139.667C96.5349 138.995 94.8486 138.298 93.1483 137.637C92.646 137.442 92.2184 137.384 92.0527 138.158C91.873 138.998 91.4895 139.793 91.2124 140.614C90.5975 142.435 89.9797 144.255 89.3975 146.087C89.29 146.425 89.1262 146.9 89.7948 146.965C90.666 147.049 91.5319 147.194 92.4041 147.258C94.1074 147.382 95.8123 147.503 97.5187 147.559C100.054 147.643 102.59 147.673 105.127 147.718C105.936 147.732 106.747 147.717 107.557 147.722C107.754 147.723 107.963 147.709 108.146 147.766C110.342 148.452 112.53 149.163 114.728 149.843C116.938 150.526 119.153 151.198 121.515 151.066C122.335 151.02 122.485 150.866 122.184 150.112C122.019 149.7 121.79 149.281 121.488 148.963C120.008 147.413 118.202 146.331 116.27 145.441C114.73 144.732 113.225 143.941 111.494 143.763C110.683 143.679 109.867 143.563 109.08 143.359C107.829 143.035 106.589 142.66 105.366 142.244C103.837 141.723 102.331 141.139 100.662 140.582C99.8517 140.278 99.0362 139.986 98.2312 139.667ZM79.155 72.621C78.4441 71.5192 77.6958 70.4416 76.9612 69.3551C76.8589 69.2039 76.7473 69.059 76.6399 68.9112C76.569 69.16 76.4692 69.4046 76.4324 69.6584C76.311 70.497 76.2426 71.3442 76.0986 72.1786C75.8134 73.8301 75.6584 75.4527 76.7288 76.9206C76.7966 77.0136 76.8498 77.1251 76.8803 77.2361C77.274 78.667 77.6606 80.0997 78.0531 81.5309C78.1525 81.8933 78.2563 82.2551 78.3753 82.6114C78.8873 84.1441 79.5077 85.6495 79.8936 87.2129C80.2899 88.8188 80.5934 90.4329 81.4166 91.8998C81.6531 92.3212 81.7297 92.8301 81.9042 93.2896C81.9562 93.4267 82.1279 93.6476 82.1824 93.6306C82.3564 93.5763 82.5856 93.4612 82.644 93.3113C83.3237 91.566 83.6511 89.6597 84.9404 88.1942C86.0355 86.9494 85.8082 85.6774 85.1365 84.3485C84.874 83.8292 84.7115 83.2603 84.4772 82.7255C83.9705 81.5694 83.4855 80.4013 82.9185 79.2748C82.4231 78.2907 81.8232 77.3595 81.2779 76.4C80.8945 75.7254 80.5253 75.0427 80.0738 74.2877C79.7698 73.7307 79.4982 73.1528 79.155 72.621ZM120.197 142.324C117.978 140.89 115.728 139.498 113.578 137.966C111.777 136.684 110.109 135.218 108.359 133.862C107.887 133.496 107.345 133.375 106.862 133.926C106.081 134.82 105.284 135.7 104.503 136.594C103.922 137.26 103.363 137.947 102.781 138.612C102.326 139.132 102.374 139.411 103.04 139.61C105.181 140.25 107.338 140.839 109.472 141.5C112.386 142.402 115.297 143.318 118.184 144.3C119.108 144.615 119.922 145.249 120.845 145.568C121.782 145.891 122.784 146.06 123.771 146.198C124.912 146.357 126.067 146.42 127.218 146.492C127.401 146.503 127.596 146.339 127.785 146.256C127.673 146.1 127.588 145.911 127.444 145.794C125.619 144.301 123.441 143.53 121.175 142.708C120.847 142.583 120.485 142.51 120.197 142.324ZM91.3039 102.32C91.5861 103.39 92.2564 103.911 93.2885 104.008C94.1796 104.091 94.4414 103.603 94.6587 102.951C94.97 102.019 95.2782 101.085 95.5703 100.146C96.2189 98.0607 96.1261 95.9594 95.7379 93.8396C95.6113 93.1484 95.6409 92.4281 95.6092 91.7206C95.6046 91.6179 95.6569 91.5126 95.6829 91.4084C95.5787 91.4389 95.4707 91.46 95.371 91.5013C94.7453 91.76 94.1429 92.1184 93.4924 92.2645C92.274 92.5383 91.0319 92.7194 89.7918 92.8777C89.313 92.9389 89.0294 92.989 89.1815 93.5749C89.3251 94.1282 89.3824 94.7033 89.4966 95.265C89.7427 96.4752 90.0009 97.683 90.2542 99.0436C90.6087 100.135 91.0118 101.213 91.3039 102.32ZM104.289 90.8953C104.407 90.9954 104.538 91.08 104.663 91.1716C104.663 91.0019 104.71 90.8144 104.654 90.6655C104.324 89.7909 104.017 88.903 103.616 88.0611C102.759 86.2641 101.971 84.4164 100.925 82.7322C99.8969 81.0765 98.5122 79.6456 97.4198 78.0245C96.6372 76.8632 96.0835 75.5484 95.4153 74.3088C95.3126 74.1182 95.1428 73.9637 95.0041 73.7925C94.9403 73.9937 94.8172 74.1963 94.8222 74.3958C94.8541 75.6905 94.8709 76.9881 94.9794 78.2774C95.0535 79.1568 95.2018 80.043 95.4382 80.8923C95.7006 81.8354 96.1764 82.7205 96.4216 83.6665C96.7086 84.7735 97.2344 85.4738 98.3065 86.0652C100.084 87.0458 101.919 88.0651 103.17 89.931C103.542 90.2528 103.913 90.577 104.289 90.8953ZM96.3745 47.9799C95.7911 48.8295 96.8729 51.806 97.4611 52.0274C101.579 53.5772 102.753 50.925 102.807 50.1968C102.914 48.7517 103.092 47.2864 101.726 46.1146C98.1223 45.3977 97.3173 46.607 96.3745 47.9799ZM112.142 49.1832C111.588 47.8045 110.751 46.9052 109.292 47.22C108.548 47.3806 107.893 47.9704 107.208 48.3845C105.738 49.2739 105.545 49.7606 106.059 51.3374C106.574 52.9155 107.774 53.8195 109.3 54.1264C110.564 54.3804 111.467 53.5966 112.134 52.4175C112.303 51.3403 112.58 50.2744 112.142 49.1832ZM106.689 47.4006C107.282 46.9784 107.926 46.3534 108.566 46.3303C109.674 46.2903 109.494 45.6136 109.375 45.0807C109.041 43.5917 108.604 42.1247 108.179 40.6578C107.887 39.6536 107.64 39.596 106.933 40.3033C105.721 41.5149 104.494 42.703 102.972 43.5394C102.495 43.801 102.43 44.4037 102.77 44.8784C102.897 45.0552 103.069 45.2068 103.164 45.3978C103.632 46.3389 104.057 47.3027 104.556 48.2261C104.667 48.4303 104.583 49.1523 105.297 48.6206C105.758 48.2102 106.188 47.7563 106.689 47.4006ZM196.105 156.351C197.138 156.159 198.246 155.894 198.406 154.519C198.433 154.288 198.538 154.067 198.59 153.838C198.916 152.416 198.547 151.961 197.124 151.808C195.784 151.664 194.454 151.425 193.122 151.21C192.41 151.095 192.278 151.228 192.199 151.953C192.09 152.957 191.934 153.959 191.746 154.952C191.582 155.822 191.825 156.51 192.59 156.681C193.763 156.579 194.953 156.565 196.105 156.351ZM134.056 221.054C134.201 221.047 134.447 220.761 134.452 220.597C134.488 219.51 134.462 218.422 134.474 217.335C134.481 216.724 134.013 216.704 133.677 216.811C132.945 217.044 132.249 217.391 131.543 217.702C131.033 217.926 130.46 218.108 130.521 218.844C130.565 219.363 130.565 219.895 130.685 220.397C130.883 221.231 131.603 220.834 132.191 221C132.813 221.026 133.437 221.081 134.056 221.054ZM93.5858 132.705C93.5421 132.581 93.3624 132.506 93.245 132.408C93.1598 132.53 93.0113 132.646 92.9996 132.775C92.9282 133.556 92.8671 134.339 92.8432 135.123C92.8198 135.888 93.3618 136.385 94.1406 136.314C94.2725 136.302 94.5064 136.07 94.4893 135.977C94.3747 135.354 94.2048 134.742 93.9769 134.051C93.8503 133.601 93.7412 133.145 93.5858 132.705ZM136.396 147.053C136.48 146.886 136.657 146.421 136.142 146.518C135.356 146.665 134.583 146.888 133.81 147.099C133.669 147.137 133.553 147.27 133.426 147.359C133.573 147.429 133.719 147.553 133.869 147.559C134.5 147.581 135.131 147.568 135.838 147.492C136.031 147.35 136.299 147.244 136.396 147.053ZM77.7186 67.3773C77.5975 67.4477 77.4764 67.5182 77.3553 67.5886C77.4505 67.6948 77.5286 67.8422 77.6475 67.8918C77.7186 67.9215 77.8744 67.8196 77.9565 67.7401C78.4241 67.287 78.8833 66.8252 79.3396 66.3607C79.431 66.2676 79.4975 66.1501 79.5755 66.0439C79.4218 66.0739 79.2288 66.0554 79.1213 66.1424C78.6652 66.5116 78.2345 66.9122 77.7186 67.3773Z" fill="#00160A"/>
<path fill-rule="evenodd" clip-rule="evenodd" d="M94.0006 58.5303C93.2888 58.1454 92.5846 57.8297 92.4367 56.9721C92.1493 55.3057 92.7497 53.3425 94.9214 53.4567C96.8796 53.5596 98.122 55.1857 97.4292 57.0225C96.9184 58.3768 95.6789 59.0484 94.0006 58.5303Z" fill="#B2DF4B"/>
<path fill-rule="evenodd" clip-rule="evenodd" d="M103.657 52.3138C103.696 52.0584 103.735 51.8795 103.774 51.7007C103.836 51.8566 103.915 52.008 103.956 52.1693C104.262 53.3645 105.23 56.3406 104.077 57.7101C103.981 57.824 103.494 57.842 103.191 57.8228C102.596 57.7852 101.902 56.9069 102.012 56.3406C102.029 56.2557 103.466 57.6502 103.774 56.8955C104.288 55.6369 103.657 52.7467 103.657 52.3138Z" fill="#00160A"/>
<path fill-rule="evenodd" clip-rule="evenodd" d="M95.5513 61.035C95.4914 61.0046 95.4086 61.0127 95.337 61.0157C95.16 61.023 94.9177 60.706 95.0209 60.5718C95.1762 60.37 95.3522 60.1662 95.5626 60.0333C95.6878 59.9542 95.8951 60.2108 95.8794 60.3242C95.8677 60.409 95.9483 60.5418 96.0264 60.5992C97.216 61.4732 98.5367 62.0396 99.982 62.3119C100.077 62.3298 100.161 62.4151 100.249 62.4691C100.161 62.5306 100.073 62.6501 99.9837 62.6449C98.407 62.5528 96.5842 61.5589 95.5513 61.035Z" fill="#00160A"/>
<path fill-rule="evenodd" clip-rule="evenodd" d="M57.1383 129.474L55.6407 135.87C55.5249 136.365 55.9903 136.798 56.4753 136.647L61.6741 135.028C62.1114 134.892 62.2785 134.361 61.998 133.999L58.2967 129.222C57.9582 128.785 57.2643 128.936 57.1383 129.474ZM57.7777 130.5L61.0411 134.401L56.2801 136.02L57.7777 130.5Z" fill="#B2DF4B"/>
<path fill-rule="evenodd" clip-rule="evenodd" d="M61.7843 92.573C61.237 92.5239 60.875 93.1288 61.177 93.5879L64.9857 99.3779C65.2424 99.7682 65.8131 99.7731 66.0766 99.3873L69.5821 94.2537C69.8648 93.8396 69.5979 93.2742 69.0985 93.2294L61.7843 92.573ZM62.2995 93.2295L68.8478 94.5021L64.9856 98.5444L62.2995 93.2295Z" fill="#B2DF4B"/>
<path fill-rule="evenodd" clip-rule="evenodd" d="M85.9216 136.847H80.5498C80.1045 136.847 79.7883 137.281 79.9247 137.705L81.7292 143.314C81.8996 143.843 82.6099 143.934 82.9084 143.465L86.4757 137.856C86.7538 137.419 86.4397 136.847 85.9216 136.847ZM85.4839 137.942L82.7921 143.113L80.9876 137.504L85.4839 137.942Z" fill="#B2DF4B"/>
<path fill-rule="evenodd" clip-rule="evenodd" d="M68.3197 167.239L68.0742 172.102C68.0484 172.611 68.5884 172.954 69.0387 172.714L75.2845 169.387C75.8137 169.105 75.7194 168.32 75.1386 168.171L69.1382 166.636C68.7361 166.533 68.3406 166.825 68.3197 167.239ZM68.7944 167.703L74.5342 168.5L69.0387 171.749L68.7944 167.703Z" fill="#B2DF4B"/>
<path fill-rule="evenodd" clip-rule="evenodd" d="M60.0382 107.52L55.2227 110.857C54.8152 111.14 54.8558 111.755 55.2969 111.981L60.9322 114.874C61.4033 115.116 61.9522 114.73 61.8832 114.204L61.0633 107.974C60.9992 107.486 60.4421 107.24 60.0382 107.52ZM60.2316 108.679L61.2321 114.29L55.5968 111.397L60.2316 108.679Z" fill="#B2DF4B"/>
<path fill-rule="evenodd" clip-rule="evenodd" d="M82.1334 121.816L79.1287 126.303C78.87 126.689 79.0835 127.214 79.5384 127.311L83.0517 128.054C83.4858 128.145 83.8841 127.789 83.8411 127.348L83.3326 122.118C83.2729 121.504 82.4766 121.304 82.1334 121.816ZM82.9516 122.715V127.52L79.9307 126.303L82.9516 122.715Z" fill="#B2DF4B"/>
<path fill-rule="evenodd" clip-rule="evenodd" d="M82.7025 100.681C83.5768 100.111 84.3439 100.246 83.7197 101.502C83.7197 101.502 79.1621 113.057 77.8004 113.194C76.509 113.324 75.8857 111.654 74.0825 106.879L74.0059 106.676C73.9991 106.657 73.9932 106.639 73.988 106.622L73.9784 106.583L73.9666 106.562L73.9417 106.504L73.726 105.921C73.4713 105.226 72.8303 104.078 72.4912 103.68C72.13 103.255 72.936 102.992 73.5313 102.992C74.6425 102.992 76.0022 103.302 78.1405 102.685C80.6448 101.962 81.5043 101.463 82.7025 100.681ZM80.7643 106.618L80.7041 106.657C80.0683 107.048 79.3657 107.349 78.5978 107.559C77.6793 107.81 76.3466 107.841 75.4845 107.653L75.3403 107.619L75.3935 107.752C75.88 108.965 76.3127 110.367 76.6896 111.08L76.8212 111.323C77.0575 111.748 77.2651 112.056 77.433 112.242L77.4854 112.296L77.5506 112.217C77.8317 111.858 78.8322 110.506 79.5272 109.156L79.5999 109.014C79.8975 108.43 80.222 107.767 80.5735 107.025L80.7643 106.618ZM82.6401 102.016L82.5344 102.076C81.5457 102.627 79.9103 103.541 78.5046 103.947C76.8219 104.432 75.3954 104.606 74.2219 104.45L74.15 104.439L74.1912 104.556C74.3032 104.869 74.7785 106.355 74.9467 106.583C75.6277 107.212 76.4629 107.272 77.4853 107.025L77.6319 106.987C81.2931 106.28 82.6401 102.016 82.6401 102.016Z" fill="#B2DF4B"/>
<path fill-rule="evenodd" clip-rule="evenodd" d="M211.215 142.414C211.361 142.306 211.567 142.337 211.674 142.483C212.432 143.511 213.715 143.562 215.421 142.614C215.58 142.526 215.78 142.584 215.868 142.742C215.956 142.901 215.899 143.1 215.74 143.188C213.777 144.278 212.134 144.214 211.146 142.873C211.038 142.727 211.069 142.521 211.215 142.414Z" fill="#E7EAEE"/>
<path fill-rule="evenodd" clip-rule="evenodd" d="M208.733 145.044C208.867 144.922 209.075 144.932 209.197 145.066C210.347 146.331 211.874 146.403 213.117 145.739C213.277 145.654 213.476 145.714 213.561 145.874C213.647 146.034 213.586 146.233 213.426 146.319C211.942 147.111 210.089 147.024 208.711 145.508C208.589 145.374 208.599 145.166 208.733 145.044Z" fill="#E7EAEE"/>
<path fill-rule="evenodd" clip-rule="evenodd" d="M206.044 147.649C206.176 147.525 206.384 147.531 206.509 147.663C207.616 148.84 209.869 149.416 211.41 148.599C211.571 148.514 211.769 148.575 211.854 148.735C211.939 148.896 211.878 149.094 211.718 149.179C209.893 150.146 207.327 149.491 206.03 148.113C205.906 147.981 205.912 147.773 206.044 147.649Z" fill="#E7EAEE"/>
<path fill-rule="evenodd" clip-rule="evenodd" d="M208.132 157.946C210.437 156.831 208.054 152.698 205.823 154.371C204.393 155.444 205.961 158.996 208.132 157.946Z" fill="#E7EAEE"/>
</svg>
